<?xml version="1.0" encoding="utf-8"?>
<!-- Generator: Adobe Illustrator 18.1.1, SVG Export Plug-In . SVG Version: 6.00 Build 0)  -->
<svg version="1.1" id="Layer_1" xmlns="http://www.w3.org/2000/svg" xmlns:xlink="http://www.w3.org/1999/xlink" x="0px" y="0px"
	 viewBox="0 0 500 500" enable-background="new 0 0 500 500" xml:space="preserve">
<g>
	<path fill="#F6921E" d="M250,475C125.9,475,25,374.1,25,250S125.9,25,250,25s225,100.9,225,225S374.1,475,250,475z M250,33.2
		C130.5,33.2,33.2,130.5,33.2,250S130.5,466.8,250,466.8S466.8,369.5,466.8,250S369.5,33.2,250,33.2z"/>
</g>
<g>
	<polygon fill="#404041" stroke="#FFFFFF" stroke-width="7" stroke-miterlimit="10" points="228.1,195.7 166,402.6 209.1,394.7 
		271.2,187.8 	"/>
	<polygon fill="#404041" stroke="#FFFFFF" stroke-width="7" stroke-miterlimit="10" points="269.1,195.7 331.2,402.6 288.1,394.7 
		226,187.8 	"/>
	<path fill="#F6921E" d="M339.2,192.2c0-2.4-7-4.5-18.7-6.3c11.3-3.8,17.8-7.1,17.4-9.4c-0.4-2.3-7.7-3.3-19.5-2.9
		c10.4-5.7,16.3-10.1,15.5-12.3s-8.1-1.9-19.8,0.5c9.3-7.4,14.3-12.8,13.1-14.8s-8.3-0.4-19.4,3.9c7.9-8.9,11.8-15,10.3-16.9
		s-8.3,1-18.4,7.2c6.2-10.1,9-16.9,7.2-18.4s-8,2.4-16.9,10.3c4.4-11,6-18.2,3.9-19.4s-7.4,3.8-14.8,13.1c2.4-11.6,2.7-19,0.5-19.8
		s-6.7,5-12.3,15.5c0.3-11.9-0.6-19.1-2.9-19.5s-5.7,6.1-9.4,17.4c-0.4-2.9-0.9-5.5-1.4-7.8c-0.3-1.4-0.6-2.7-0.9-3.8
		c-1.2-4.6-2.6-7.1-4-7.1l0,0l0,0c-2.4,0-4.5,7-6.3,18.7c-3.8-11.3-7.1-17.8-9.4-17.4c-2.3,0.4-3.3,7.7-2.9,19.5
		c-5.7-10.4-10.1-16.3-12.3-15.5c-2.2,0.8-1.9,8.1,0.5,19.8c-7.4-9.3-12.8-14.3-14.8-13.1s-0.4,8.3,3.9,19.4
		c-8.9-7.9-15-11.8-16.9-10.3c-1.8,1.5,1,8.3,7.2,18.4c-10.1-6.2-16.9-9-18.4-7.2s2.4,8,10.3,16.9c-11-4.4-18.2-6-19.4-3.9
		s3.8,7.4,13.1,14.8c-11.6-2.4-19-2.7-19.8-0.5s5,6.7,15.5,12.3c-11.9-0.3-19.1,0.6-19.5,2.9c-0.4,2.3,6.1,5.7,17.4,9.4
		c-11.7,1.7-18.7,3.9-18.7,6.3s7,4.5,18.7,6.3c-11.3,3.8-17.8,7.1-17.4,9.4c0.4,2.3,7.7,3.3,19.5,2.9c-10.4,5.7-16.3,10.1-15.5,12.3
		s8.1,1.9,19.8-0.5c-9.3,7.4-14.3,12.8-13.1,14.8s8.3,0.4,19.4-3.9c-7.9,8.9-11.8,15-10.3,16.9c1.5,1.8,8.3-1,18.4-7.2
		c-6.2,10.1-9,16.9-7.2,18.4s8-2.4,16.9-10.3c-4.4,11-6,18.2-3.9,19.4s7.4-3.8,14.8-13.1c-2.4,11.6-2.7,19-0.5,19.8s6.7-5,12.3-15.5
		c-0.3,11.9,0.6,19.1,2.9,19.5c2.3,0.4,5.7-6.1,9.4-17.4c1.7,11.7,3.9,18.7,6.3,18.7l0,0l0,0c1.4,0,2.8-2.5,4-7.1
		c0.3-1.1,0.6-2.4,0.9-3.8c0.5-2.3,0.9-4.9,1.4-7.8c3.8,11.3,7.1,17.8,9.4,17.4s3.3-7.7,2.9-19.5c5.7,10.4,10.1,16.3,12.3,15.5
		c2.2-0.8,1.9-8.1-0.5-19.8c7.4,9.3,12.8,14.3,14.8,13.1s0.4-8.3-3.9-19.4c8.9,7.9,15,11.8,16.9,10.3s-1-8.3-7.2-18.4
		c10.1,6.2,16.9,9,18.4,7.2s-2.4-8-10.3-16.9c11,4.4,18.2,6,19.4,3.9c1.2-2-3.8-7.4-13.1-14.8c11.6,2.4,19,2.7,19.8,0.5
		s-5-6.7-15.5-12.3c11.9,0.3,19.1-0.6,19.5-2.9c0.4-2.3-6.1-5.7-17.4-9.4C332.2,196.8,339.2,194.6,339.2,192.2z"/>
	<circle fill="#FFFFFF" cx="248.5" cy="192.5" r="69.5"/>
	<g>
		<path fill="#404041" d="M247,242.6v-67.1h-24.3v-9c3.2,0,6.3-0.2,9.2-0.7c3-0.5,5.7-1.4,8.1-2.7c2.4-1.3,4.5-3.1,6.1-5.4
			c1.7-2.3,2.8-5.2,3.4-8.7h8.6v93.7H247V242.6z"/>
	</g>
</g>
</svg>
