<?xml version="1.0" encoding="utf-8"?>
<!-- Generator: Adobe Illustrator 18.1.1, SVG Export Plug-In . SVG Version: 6.00 Build 0)  -->
<svg version="1.1" id="Layer_1" xmlns="http://www.w3.org/2000/svg" xmlns:xlink="http://www.w3.org/1999/xlink" x="0px" y="0px"
	 viewBox="0 0 100 100" enable-background="new 0 0 100 100" xml:space="preserve">
<path fill="#F6931D" d="M50,95C25.2,95,5,74.8,5,50S25.2,5,50,5s45,20.2,45,45S74.8,95,50,95z M50,6.6C26.1,6.6,6.6,26.1,6.6,50
	S26.1,93.4,50,93.4S93.4,73.9,93.4,50S73.9,6.6,50,6.6z"/>
<g>
	<path fill="#FFFFFF" d="M62.8,76.2H35.9c-1.2,0-2.2-0.9-2.2-2.2l7.5-39.7c0-1.2,0.9-2.2,2.2-2.2h26.9c1.2,0,2.2,0.9,2.2,2.2
		l-7.5,39.7C65.3,75.3,64,76.2,62.8,76.2z"/>
	<path fill="#414142" d="M62.8,77.5H35.9c-1.9,0-3.4-1.6-3.4-3.4l7.5-39.7c0-1.6,1.6-3.1,3.4-3.1h26.9c1.9,0,3.4,1.6,3.4,3.4
		l-7.5,39.7C66.2,75.9,64.6,77.5,62.8,77.5z M43.4,33.1c-0.6,0-1.2,0.6-1.2,1.2L34.6,74c0,0.3,0.6,0.9,1.2,0.9h26.9
		c0.6,0,1.2-0.6,1.2-1.2L71.5,34c0-0.3-0.6-0.9-1.2-0.9L43.4,33.1z"/>
</g>
<g>
	<path fill="#FFFFFF" d="M59.6,72.6H32.7c-1.2,0-2.2-0.9-2.2-2.2l7.5-39.7c0-1.2,0.9-2.2,2.2-2.2h26.9c1.2,0,2.2,0.9,2.2,2.2
		l-7.5,39.7C62.1,71.7,60.9,72.6,59.6,72.6z"/>
	<path fill="#414142" d="M59.6,73.9H32.7c-1.9,0-3.4-1.6-3.4-3.4l7.5-39.7c0-1.6,1.6-3.1,3.4-3.1h26.9c1.9,0,3.4,1.6,3.4,3.4
		l-7.5,39.7C63.1,72.3,61.5,73.9,59.6,73.9z M40.2,29.5c-0.6,0-1.2,0.6-1.2,1.2l-7.5,39.7c0,0.3,0.6,0.9,1.2,0.9h26.9
		c0.6,0,1.2-0.6,1.2-1.2l7.5-39.7c0-0.3-0.6-0.9-1.2-0.9H40.2z"/>
</g>
<g>
	<path fill="#FFFFFF" d="M56.2,69.2H29.3c-1.2,0-2.2-0.9-2.2-2.2l7.5-39.7c0-1.2,0.9-2.2,2.2-2.2h26.9c1.2,0,2.2,0.9,2.2,2.2
		l-7.5,39.4C58.4,67.9,57.4,69.2,56.2,69.2z"/>
	<path fill="#414142" d="M56.2,70.1H29.3c-1.9,0-3.4-1.6-3.4-3.4L33.4,27c0-1.6,1.6-3.1,3.4-3.1h26.9c1.9,0,3.4,1.6,3.4,3.4L59.6,67
		C59.6,68.5,58.1,70.1,56.2,70.1z M36.8,26c-0.6,0-1.2,0.6-1.2,1.2L28.1,67c0,0.3,0.6,0.9,1.2,0.9h26.9c0.6,0,1.2-0.6,1.2-1.2
		L64.9,27c0-0.3-0.6-0.9-1.2-0.9L36.8,26z"/>
</g>
<rect x="36.7" y="28.6" fill="none" width="36.6" height="10.2"/>
<text transform="matrix(1 0 0 1 36.6607 33.6419)" fill="#F7931D" font-family="'HelveticaNeue-LightItalic'" font-size="7">CODE</text>
<g>
	<g>
		<polygon fill="#414042" points="50.2,42.9 44.7,42.9 34,59.8 53.9,59.8 		"/>
		<polygon fill="#414042" points="44.2,42.9 43.6,42.9 31,59.8 33.4,59.8 		"/>
		<polygon fill="#414042" points="50.7,42.9 51.3,42.9 57,59.8 54.6,59.8 		"/>
		<polygon fill="#FFFFFF" points="46.6,54.5 43.6,54.5 41.7,60 46.2,60 		"/>
		<polygon fill="#FFFFFF" points="47,49.6 45.3,49.6 43.9,53.5 46.7,53.5 		"/>
		<polygon fill="#FFFFFF" points="47.3,46.5 46.3,46.5 45.5,49 47.1,49 		"/>
		<polygon fill="#FFFFFF" points="47.5,44.6 47,44.6 46.5,46 47.4,46 		"/>
		<polygon fill="#FFFFFF" points="47.6,43.2 47.4,43.2 47,44.2 47.5,44.2 		"/>
		<path fill="none" stroke="#BE1E2D" stroke-width="4.828810e-02" stroke-miterlimit="10" d="M47.6,42.9"/>
		<path fill="none" stroke="#BE1E2D" stroke-width="4.828810e-02" stroke-miterlimit="10" d="M41.7,59.8"/>
		<path fill="none" stroke="#BE1E2D" stroke-width="4.828810e-02" stroke-miterlimit="10" d="M47.6,42.9"/>
		<path fill="none" stroke="#BE1E2D" stroke-width="4.828810e-02" stroke-miterlimit="10" d="M46.2,59.8"/>
	</g>
</g>
<g>
	<g>
		<polygon fill="#414042" points="52,62.8 44.9,79.3 48.1,78.7 55.2,62.2 		"/>
		<path fill="#FFFFFF" d="M44.5,79.6l7.4-17l3.7-0.7L48.2,79L44.5,79.6z M52.2,63l-6.8,16l2.6-0.5l6.9-16L52.2,63z"/>
	</g>
	<g>
		<polygon fill="#414042" points="54.9,62.8 56.5,79.3 53.6,78.7 52,62.2 		"/>
		<path fill="#FFFFFF" d="M56.8,79.6L53.4,79l-1.7-17l3.5,0.7L56.8,79.6z M53.8,78.5l2.4,0.5l-1.5-16l-2.4-0.5L53.8,78.5z"/>
	</g>
	<path fill="#F7931D" d="M59.9,62.5c0-0.2-0.4-0.3-1.2-0.4c0.8-0.3,1.3-0.5,1.3-0.7c0-0.2-0.5-0.2-1.3-0.2c0.8-0.4,1.3-0.7,1.2-0.9
		c0-0.2-0.6-0.1-1.4,0c0.7-0.5,1.2-0.9,1.1-1c-0.1-0.1-0.6,0-1.4,0.3c0.7-0.6,1-1.1,0.9-1.2c-0.1-0.1-0.6,0.1-1.4,0.5
		c0.6-0.7,0.8-1.2,0.7-1.3c-0.1-0.1-0.6,0.2-1.3,0.7c0.4-0.8,0.6-1.3,0.5-1.4c-0.1-0.1-0.6,0.3-1.2,0.9c0.3-0.8,0.4-1.3,0.3-1.4
		c-0.1-0.1-0.5,0.4-1,1.1c0.2-0.8,0.2-1.3,0-1.4c-0.2,0-0.5,0.4-0.9,1.2c0-0.2,0-0.4,0-0.6c0-0.1,0-0.2,0-0.3c0-0.3-0.1-0.5-0.2-0.5
		l0,0l0,0c-0.2,0-0.4,0.5-0.7,1.3c-0.1-0.8-0.3-1.2-0.5-1.2c-0.2,0-0.3,0.5-0.4,1.4c-0.3-0.7-0.5-1.1-0.7-1.1
		c-0.2,0.1-0.2,0.6-0.2,1.4c-0.4-0.6-0.7-1-0.9-0.9s-0.1,0.6,0.1,1.4c-0.5-0.6-0.9-0.8-1.1-0.7c-0.1,0.1,0,0.6,0.3,1.3
		c-0.6-0.4-1.1-0.6-1.2-0.5c-0.1,0.1,0.1,0.6,0.5,1.2c-0.7-0.3-1.2-0.4-1.3-0.3c-0.1,0.1,0.2,0.5,0.7,1c-0.8-0.2-1.3-0.2-1.4,0
		c-0.1,0.2,0.3,0.5,0.9,0.9c-0.8,0-1.4,0-1.4,0.2c-0.1,0.2,0.4,0.4,1.1,0.7c-0.8,0.1-1.4,0.3-1.4,0.4s0.4,0.3,1.2,0.4
		c-0.8,0.3-1.3,0.5-1.3,0.7c0,0.2,0.5,0.2,1.3,0.2c-0.8,0.4-1.3,0.7-1.2,0.9c0,0.2,0.6,0.1,1.4,0c-0.7,0.5-1.2,0.9-1.1,1
		c0.1,0.1,0.6,0,1.4-0.3c-0.7,0.6-1,1.1-0.9,1.2c0.1,0.1,0.6-0.1,1.4-0.5c-0.6,0.7-0.8,1.2-0.7,1.3c0.1,0.1,0.6-0.2,1.3-0.7
		c-0.4,0.8-0.6,1.3-0.5,1.4c0.1,0.1,0.6-0.3,1.2-0.9c-0.3,0.8-0.4,1.3-0.3,1.4c0.1,0.1,0.5-0.4,1-1.1c-0.2,0.8-0.2,1.3,0,1.4
		c0.2,0,0.5-0.4,0.9-1.2c0,0.8,0.1,1.3,0.2,1.3l0,0l0,0c0.1,0,0.2-0.2,0.4-0.5c0-0.1,0.1-0.2,0.1-0.3c0.1-0.2,0.1-0.3,0.2-0.6
		c0.1,0.8,0.3,1.2,0.5,1.2s0.3-0.5,0.4-1.4c0.3,0.7,0.5,1.1,0.7,1.1c0.2-0.1,0.2-0.6,0.2-1.4c0.4,0.6,0.7,1,0.9,0.9
		c0.2-0.1,0.1-0.6-0.1-1.4c0.5,0.6,0.9,0.8,1.1,0.7c0.1-0.1,0-0.6-0.3-1.3c0.6,0.4,1.1,0.6,1.2,0.5c0.1-0.1-0.1-0.6-0.5-1.2
		c0.7,0.3,1.2,0.4,1.3,0.3c0.1-0.1-0.2-0.5-0.7-1c0.8,0.2,1.3,0.2,1.4,0c0.1-0.2-0.3-0.5-0.9-0.9c0.8,0,1.4,0,1.4-0.2
		c0.1-0.2-0.4-0.4-1.1-0.7C59.3,62.9,59.9,62.7,59.9,62.5z"/>
	<path fill="#FFFFFF" d="M54.3,57.7c2.7,0,4.5,2.2,4.1,4.9c-0.4,2.7-3,4.9-5.7,4.9c-2.7,0-4.5-2.2-4.1-4.9
		C49.1,59.9,51.6,57.7,54.3,57.7z"/>
</g>
</svg>
