<?xml version="1.0" encoding="utf-8"?>
<!-- Generator: Adobe Illustrator 19.1.0, SVG Export Plug-In . SVG Version: 6.00 Build 0)  -->
<svg version="1.1" id="Layer_1" xmlns="http://www.w3.org/2000/svg" xmlns:xlink="http://www.w3.org/1999/xlink" x="0px" y="0px"
	 viewBox="0 0 1000 500" enable-background="new 0 0 1000 500" xml:space="preserve">
<g>
	<path fill="#F7931D" d="M500,475c-124.1,0-225-100.9-225-225S375.9,25,500,25s225,100.9,225,225S624.1,475,500,475z M500,33.2
		c-119.5,0-216.8,97.3-216.8,216.8S380.5,466.8,500,466.8S716.8,369.5,716.8,250S619.5,33.2,500,33.2z"/>
	<g>
		<path fill="#414042" d="M566.6,320.7h-174v-2.5c0-7.7-6.2-13.9-13.9-13.9h-2.5v-76.5h2.5c7.7,0,13.9-6.2,13.9-13.9v-2.5h174.1v2.5
			c0,7.7,6.2,13.9,13.9,13.9h2.5v76.5h-2.5c-7.7,0-13.9,6.2-13.9,13.9L566.6,320.7L566.6,320.7z M397.4,315.7h164.4
			c1.1-8.4,7.8-15.1,16.2-16.2v-66.8c-8.4-1.1-15.1-7.8-16.2-16.2H397.4c-1.1,8.4-7.8,15.1-16.2,16.2v66.8
			C389.6,300.6,396.3,307.3,397.4,315.7z"/>
		<path fill="#414042" d="M592.7,343.7H366.5c-8.6,0-15.7-7-15.7-15.7V204c0-8.6,7-15.7,15.7-15.7h226.2c8.6,0,15.7,7,15.7,15.7v124
			C608.4,336.7,601.4,343.7,592.7,343.7z M366.5,203.3c-0.4,0-0.7,0.3-0.7,0.7v124c0,0.4,0.3,0.7,0.7,0.7h226.2
			c0.4,0,0.7-0.3,0.7-0.7V204c0-0.4-0.3-0.7-0.7-0.7H366.5z"/>
		<circle fill="#414042" cx="479.6" cy="267.4" r="41"/>
		<path fill="#414042" d="M414.1,284c-9.2,0-16.6-7.5-16.6-16.6s7.5-16.6,16.6-16.6c9.2,0,16.6,7.5,16.6,16.6S423.2,284,414.1,284z
			 M414.1,255.8c-6.4,0-11.6,5.2-11.6,11.6s5.2,11.6,11.6,11.6s11.6-5.2,11.6-11.6S420.5,255.8,414.1,255.8z"/>
		<path fill="#414042" d="M545.1,284c-9.2,0-16.6-7.5-16.6-16.6s7.5-16.6,16.6-16.6c9.2,0,16.6,7.5,16.6,16.6S554.3,284,545.1,284z
			 M545.1,255.8c-6.4,0-11.6,5.2-11.6,11.6s5.2,11.6,11.6,11.6c6.4,0,11.6-5.2,11.6-11.6S551.5,255.8,545.1,255.8z"/>
		<path fill="#414042" d="M641.5,299.9c-4.1,0-7.5-3.4-7.5-7.5V164.2H405.8c-4.1,0-7.5-3.4-7.5-7.5s3.4-7.5,7.5-7.5h235.6
			c4.1,0,7.5,3.4,7.5,7.5v135.7C648.9,296.6,645.6,299.9,641.5,299.9z"/>
		<path fill="#414042" d="M621.5,319.9c-4.1,0-7.5-3.4-7.5-7.5V184.2H385.9c-4.1,0-7.5-3.4-7.5-7.5s3.4-7.5,7.5-7.5h235.6
			c4.1,0,7.5,3.4,7.5,7.5v135.7C629,316.6,625.6,319.9,621.5,319.9z"/>
		<g>
			<path fill="#FFFFFF" d="M491.4,286.9c-2,1.3-5.3,2.7-9.5,2.7c-5.2,0-9.8-2-13-5.7c-2.4-2.7-4-6.4-4.6-11h-4v-3.1h3.6
				c0-0.3,0-0.6,0-1c0-1,0.1-2,0.1-2.9h-3.8v-3.2h4.2c0.8-4.5,2.7-8.2,5.3-10.8c3.3-3.4,7.4-5.3,12.7-5.3c3.8,0,6.7,1.1,8.5,2
				l-1.3,4.2c-1.6-1-4.3-1.8-7.2-1.8c-3.5,0-6.3,1.2-8.4,3.5c-1.9,1.9-3.2,4.7-3.8,8.1H488v3.2h-18.4c-0.1,0.8-0.1,1.8-0.1,2.7
				c0,0.4,0,0.7,0,1.1H488v3.1h-18.1c0.5,3.7,1.8,6.5,3.5,8.4c2.4,2.5,5.6,3.7,9,3.7s6.3-1.3,7.8-2.1L491.4,286.9z"/>
		</g>
	</g>
</g>
<g>
	<path fill="#414042" d="M428.9,377.8c-1.2-1.2-2.8-1.7-4.8-1.7c-2,0-3.5,0.5-4.8,1.5c-1.2,1-2.2,2.2-2.8,3.7
		c-0.7,1.5-1.1,3.1-1.3,4.9c-0.2,1.7-0.3,3.4-0.3,4.9h0.1c0.8-1.7,2-3,3.6-4c1.6-1,3.4-1.5,5.3-1.5c1.7,0,3.2,0.3,4.6,0.8
		c1.4,0.6,2.5,1.3,3.5,2.3c1,1,1.7,2.2,2.2,3.6c0.5,1.4,0.8,2.9,0.8,4.5s-0.3,3.1-0.8,4.5c-0.6,1.4-1.3,2.6-2.4,3.6
		c-1,1-2.2,1.8-3.6,2.4c-1.4,0.6-2.9,0.8-4.6,0.8c-2,0-3.8-0.3-5.3-0.9c-1.5-0.6-2.7-1.6-3.6-3s-1.7-3.2-2.1-5.5
		c-0.5-2.3-0.7-5-0.7-8.3c0-0.7,0-1.6,0.1-2.6c0.1-1.1,0.3-2.2,0.6-3.5c0.3-1.2,0.7-2.5,1.2-3.7c0.5-1.3,1.2-2.4,2.1-3.4
		c0.9-1,2-1.9,3.3-2.5c1.3-0.6,2.9-1,4.7-1c3,0,5.4,0.7,7.2,2.2c1.8,1.4,2.8,3.6,3.2,6.6h-3C430.9,380.4,430.1,378.9,428.9,377.8z
		 M420.3,388.7c-1,0.5-1.9,1.1-2.6,1.9c-0.7,0.8-1.3,1.7-1.6,2.8c-0.4,1.1-0.6,2.2-0.6,3.5c0,1.2,0.2,2.3,0.5,3.4
		c0.3,1.1,0.8,2,1.5,2.8c0.7,0.8,1.6,1.4,2.6,1.8c1.1,0.4,2.3,0.7,3.8,0.7c1.2,0,2.3-0.2,3.3-0.7c1-0.5,1.8-1.1,2.5-1.9
		c0.7-0.8,1.3-1.7,1.7-2.8c0.4-1.1,0.6-2.2,0.6-3.3c0-1.2-0.2-2.4-0.6-3.5c-0.4-1.1-0.9-2-1.6-2.8c-0.7-0.8-1.5-1.4-2.5-1.9
		c-1-0.5-2.2-0.7-3.4-0.7C422.5,388,421.4,388.3,420.3,388.7z"/>
	<path fill="#414042" d="M458.7,386.6c-1,1.3-2.3,2.2-4,2.7v0.1c2.2,0.4,3.9,1.4,5.1,2.9c1.2,1.5,1.8,3.4,1.8,5.7
		c0,1.7-0.3,3.2-0.9,4.4c-0.6,1.3-1.4,2.3-2.5,3.1c-1.1,0.8-2.3,1.5-3.7,1.9c-1.4,0.4-2.9,0.6-4.5,0.6c-1.6,0-3.1-0.2-4.5-0.6
		c-1.4-0.4-2.6-1-3.7-1.9c-1.1-0.8-1.9-1.9-2.5-3.1c-0.6-1.3-0.9-2.7-0.9-4.4c0.1-2.2,0.7-4.1,1.9-5.7c1.2-1.6,2.8-2.5,4.9-2.9v-0.1
		c-1.8-0.5-3.1-1.4-4.1-2.7c-0.9-1.3-1.4-2.8-1.4-4.7c0-1.4,0.3-2.7,0.9-3.7c0.6-1.1,1.4-1.9,2.3-2.6s2-1.2,3.3-1.5
		c1.2-0.3,2.4-0.5,3.7-0.5s2.5,0.2,3.7,0.5c1.2,0.3,2.3,0.8,3.3,1.5s1.8,1.6,2.4,2.6c0.6,1.1,0.9,2.3,0.9,3.7
		C460.1,383.7,459.7,385.3,458.7,386.6z M453.3,405.1c1-0.3,1.9-0.8,2.7-1.4s1.4-1.4,1.8-2.4c0.4-1,0.7-2.1,0.7-3.4
		c0-1.2-0.2-2.3-0.7-3.2c-0.5-0.9-1.1-1.7-1.9-2.3c-0.8-0.6-1.7-1.1-2.7-1.4c-1-0.3-2.1-0.4-3.2-0.4c-1.2,0-2.2,0.1-3.3,0.4
		c-1,0.3-1.9,0.7-2.7,1.4c-0.8,0.6-1.4,1.4-1.8,2.3c-0.5,0.9-0.7,2-0.7,3.2c0,1.2,0.2,2.4,0.7,3.3c0.4,1,1.1,1.8,1.8,2.4
		s1.7,1.1,2.7,1.4c1,0.3,2.2,0.5,3.3,0.5C451.1,405.5,452.3,405.4,453.3,405.1z M452.7,387.8c0.9-0.2,1.6-0.6,2.3-1.1
		c0.7-0.5,1.2-1.2,1.6-2c0.4-0.8,0.6-1.7,0.6-2.8c0-1-0.2-1.8-0.6-2.5c-0.4-0.7-0.9-1.3-1.5-1.8c-0.6-0.5-1.4-0.8-2.3-1.1
		c-0.9-0.3-1.8-0.4-2.8-0.4c-0.9,0-1.8,0.1-2.7,0.4c-0.9,0.3-1.6,0.6-2.3,1.1c-0.7,0.5-1.2,1.1-1.6,1.8c-0.4,0.7-0.6,1.6-0.6,2.5
		c0,1.1,0.2,2.1,0.6,2.9c0.4,0.8,1,1.5,1.6,2s1.4,0.9,2.3,1.1c0.9,0.2,1.7,0.3,2.6,0.3C450.9,388.2,451.8,388.1,452.7,387.8z"/>
	<path fill="#414042" d="M468,402.3h4v5.1h-4V402.3z"/>
	<path fill="#414042" d="M484.4,403.8c1.2,1.2,2.8,1.7,4.8,1.7c2,0,3.6-0.5,4.8-1.5c1.2-1,2.1-2.2,2.8-3.7s1.1-3.1,1.3-4.9
		c0.2-1.7,0.3-3.4,0.3-4.9h-0.1c-0.8,1.7-2,3-3.6,4c-1.6,1-3.4,1.5-5.3,1.5c-1.7,0-3.2-0.3-4.6-0.8c-1.4-0.6-2.5-1.3-3.5-2.3
		c-1-1-1.7-2.2-2.2-3.6c-0.5-1.4-0.8-2.9-0.8-4.5s0.3-3.1,0.8-4.5c0.6-1.4,1.3-2.6,2.4-3.6c1-1,2.2-1.8,3.6-2.4
		c1.4-0.6,2.9-0.9,4.6-0.9c2,0,3.8,0.3,5.3,0.9c1.5,0.6,2.7,1.6,3.6,3.1s1.7,3.3,2.1,5.5c0.5,2.3,0.7,5,0.7,8.3c0,0.7,0,1.6-0.1,2.6
		s-0.3,2.2-0.6,3.5c-0.3,1.2-0.7,2.5-1.2,3.7c-0.5,1.3-1.2,2.4-2.1,3.4c-0.9,1-2,1.8-3.3,2.5c-1.3,0.6-2.9,1-4.7,1
		c-3,0-5.4-0.7-7.2-2.1c-1.8-1.4-2.8-3.6-3.2-6.6h3C482.4,401.2,483.1,402.7,484.4,403.8z M492.9,392.9c1-0.5,1.9-1.1,2.6-1.9
		c0.7-0.8,1.3-1.7,1.6-2.8c0.4-1.1,0.6-2.2,0.6-3.5c0-1.2-0.2-2.3-0.5-3.4c-0.3-1-0.8-2-1.5-2.7c-0.7-0.8-1.6-1.4-2.6-1.8
		c-1.1-0.4-2.3-0.7-3.8-0.7c-1.2,0-2.3,0.2-3.3,0.7c-1,0.5-1.8,1.1-2.6,1.9c-0.7,0.8-1.3,1.7-1.7,2.8c-0.4,1.1-0.6,2.2-0.6,3.3
		c0,1.2,0.2,2.4,0.6,3.5c0.4,1.1,0.9,2,1.6,2.8c0.7,0.8,1.5,1.4,2.5,1.9c1,0.5,2.2,0.7,3.4,0.7C490.7,393.5,491.9,393.3,492.9,392.9
		z"/>
	<path fill="#414042" d="M525.4,386.6c-1,1.3-2.3,2.2-4,2.7v0.1c2.2,0.4,3.9,1.4,5.1,2.9c1.2,1.5,1.8,3.4,1.8,5.7
		c0,1.7-0.3,3.2-0.9,4.4c-0.6,1.3-1.4,2.3-2.5,3.1c-1.1,0.8-2.3,1.5-3.7,1.9c-1.4,0.4-2.9,0.6-4.5,0.6c-1.6,0-3.1-0.2-4.5-0.6
		c-1.4-0.4-2.6-1-3.7-1.9c-1.1-0.8-1.9-1.9-2.5-3.1c-0.6-1.3-0.9-2.7-0.9-4.4c0.1-2.2,0.7-4.1,1.9-5.7c1.2-1.6,2.8-2.5,4.9-2.9v-0.1
		c-1.8-0.5-3.1-1.4-4.1-2.7s-1.4-2.8-1.4-4.7c0-1.4,0.3-2.7,0.9-3.7c0.6-1.1,1.4-1.9,2.3-2.6c1-0.7,2-1.2,3.3-1.5
		c1.2-0.3,2.4-0.5,3.7-0.5s2.5,0.2,3.7,0.5c1.2,0.3,2.3,0.8,3.3,1.5s1.8,1.6,2.4,2.6c0.6,1.1,0.9,2.3,0.9,3.7
		C526.9,383.7,526.4,385.3,525.4,386.6z M520,405.1c1-0.3,1.9-0.8,2.7-1.4s1.4-1.4,1.8-2.4c0.4-1,0.7-2.1,0.7-3.4
		c0-1.2-0.2-2.3-0.7-3.2c-0.5-0.9-1.1-1.7-1.9-2.3s-1.7-1.1-2.7-1.4c-1-0.3-2.1-0.4-3.2-0.4c-1.2,0-2.2,0.1-3.3,0.4
		s-1.9,0.7-2.7,1.4s-1.4,1.4-1.8,2.3c-0.5,0.9-0.7,2-0.7,3.2c0,1.2,0.2,2.4,0.7,3.3s1.1,1.8,1.8,2.4c0.8,0.6,1.7,1.1,2.7,1.4
		c1,0.3,2.2,0.5,3.3,0.5C517.9,405.5,519,405.4,520,405.1z M519.4,387.8c0.9-0.2,1.6-0.6,2.3-1.1c0.7-0.5,1.2-1.2,1.6-2
		c0.4-0.8,0.6-1.7,0.6-2.8c0-1-0.2-1.8-0.6-2.5c-0.4-0.7-0.9-1.3-1.5-1.8c-0.6-0.5-1.4-0.8-2.3-1.1c-0.9-0.3-1.8-0.4-2.8-0.4
		c-0.9,0-1.8,0.1-2.7,0.4c-0.9,0.3-1.6,0.6-2.3,1.1c-0.7,0.5-1.2,1.1-1.6,1.8c-0.4,0.7-0.6,1.6-0.6,2.5c0,1.1,0.2,2.1,0.6,2.9
		c0.4,0.8,1,1.5,1.6,2s1.4,0.9,2.3,1.1c0.9,0.2,1.7,0.3,2.6,0.3C517.6,388.2,518.5,388.1,519.4,387.8z"/>
	<path fill="#414042" d="M554.1,374.2v2.8c-1.1,1.1-2.3,2.6-3.8,4.4c-1.5,1.8-2.9,4-4.3,6.6s-2.6,5.4-3.6,8.7
		c-1,3.2-1.7,6.8-1.8,10.7h-3.3c0.2-2.8,0.6-5.5,1.2-8.1c0.6-2.5,1.4-5,2.5-7.4c1.1-2.4,2.5-4.8,4.1-7.3c1.6-2.4,3.6-5,6-7.6h-18.6
		v-2.8H554.1z"/>
	<path fill="#414042" d="M580.9,408c-4,0-7.3-1.4-9.7-4.2c-2.1-2.5-3.5-5.9-3.9-10.1h-3.2l0.9-2.2h2.1c0-0.1,0-0.2,0-0.4v-0.5
		c0-0.3,0-0.5,0-0.8c0-0.3,0-0.6,0.1-1h-3.1l0.9-2.2h2.4c0.7-3.9,2.2-7.1,4.4-9.4c2.4-2.6,5.6-3.9,9.4-3.9c4,0,6.9,1.2,8.9,3.7
		l-1.3,2.8c-2.1-2.5-4.7-3.7-7.7-3.7c-2.9,0-5.3,1.1-7.2,3.2c-1.6,1.8-2.7,4.3-3.3,7.4h16l-0.9,2.2h-15.4c-0.1,0.8-0.1,1.5-0.1,2.1
		v0.4c0,0.2,0,0.3,0,0.4h14.6l-0.9,2.2h-13.5c0.4,3.3,1.4,6,3,8.1c1.9,2.4,4.4,3.6,7.6,3.6c1.7,0,3.2-0.4,4.6-1.1
		c1.1-0.6,2.4-1.6,3.7-3v3.7C586.9,407,584.1,408,580.9,408z"/>
</g>
</svg>
