<?xml version="1.0" encoding="utf-8"?>
<!-- Generator: Adobe Illustrator 18.1.1, SVG Export Plug-In . SVG Version: 6.00 Build 0)  -->
<svg version="1.1" id="Layer_1" xmlns="http://www.w3.org/2000/svg" xmlns:xlink="http://www.w3.org/1999/xlink" x="0px" y="0px"
	 viewBox="0 0 500 500" enable-background="new 0 0 500 500" xml:space="preserve">
<g>
	<path fill="#F6921E" d="M250,475C125.9,475,25,374.1,25,250C25,125.9,125.9,25,250,25c124.1,0,225,100.9,225,225
		C475,374.1,374.1,475,250,475z M250,33.2C130.5,33.2,33.2,130.5,33.2,250c0,119.5,97.3,216.8,216.8,216.8
		c119.5,0,216.8-97.3,216.8-216.8C466.8,130.5,369.5,33.2,250,33.2z"/>
	<g>
		<path fill="#404041" d="M316.6,320.7H142.6v-2.5c0-7.7-6.2-13.9-13.9-13.9h-2.5v-76.5h2.5c7.7,0,13.9-6.2,13.9-13.9v-2.5h174.1
			v2.5c0,7.7,6.2,13.9,13.9,13.9h2.5v76.5h-2.5c-7.7,0-13.9,6.2-13.9,13.9V320.7z M147.4,315.7h164.4c1.1-8.4,7.8-15.1,16.2-16.2
			v-66.8c-8.4-1.1-15.1-7.8-16.2-16.2H147.4c-1.1,8.4-7.8,15.1-16.2,16.2v66.8C139.6,300.6,146.3,307.3,147.4,315.7z"/>
		<path fill="#404041" d="M342.7,343.7H116.5c-8.6,0-15.7-7-15.7-15.7V204c0-8.6,7-15.7,15.7-15.7h226.2c8.6,0,15.7,7,15.7,15.7v124
			C358.4,336.7,351.4,343.7,342.7,343.7z M116.5,203.3c-0.4,0-0.7,0.3-0.7,0.7v124c0,0.4,0.3,0.7,0.7,0.7h226.2
			c0.4,0,0.7-0.3,0.7-0.7V204c0-0.4-0.3-0.7-0.7-0.7H116.5z"/>
		<circle fill="#404041" cx="229.6" cy="267.4" r="41"/>
		<path fill="#404041" d="M164.1,284c-9.2,0-16.6-7.5-16.6-16.6c0-9.2,7.5-16.6,16.6-16.6c9.2,0,16.6,7.5,16.6,16.6
			C180.7,276.6,173.2,284,164.1,284z M164.1,255.8c-6.4,0-11.6,5.2-11.6,11.6c0,6.4,5.2,11.6,11.6,11.6s11.6-5.2,11.6-11.6
			C175.7,261,170.5,255.8,164.1,255.8z"/>
		<path fill="#404041" d="M295.1,284c-9.2,0-16.6-7.5-16.6-16.6c0-9.2,7.5-16.6,16.6-16.6s16.6,7.5,16.6,16.6
			C311.8,276.6,304.3,284,295.1,284z M295.1,255.8c-6.4,0-11.6,5.2-11.6,11.6c0,6.4,5.2,11.6,11.6,11.6s11.6-5.2,11.6-11.6
			C306.8,261,301.5,255.8,295.1,255.8z"/>
		<path fill="#404041" d="M391.5,299.9c-4.1,0-7.5-3.4-7.5-7.5V164.2H155.8c-4.1,0-7.5-3.4-7.5-7.5s3.4-7.5,7.5-7.5h235.6
			c4.1,0,7.5,3.4,7.5,7.5v135.7C398.9,296.6,395.6,299.9,391.5,299.9z"/>
		<path fill="#404041" d="M371.5,319.9c-4.1,0-7.5-3.4-7.5-7.5V184.2H135.9c-4.1,0-7.5-3.4-7.5-7.5s3.4-7.5,7.5-7.5h235.6
			c4.1,0,7.5,3.4,7.5,7.5v135.7C379,316.6,375.6,319.9,371.5,319.9z"/>
		<g>
			<path fill="#FFFFFF" d="M241.4,286.9c-2,1.3-5.3,2.7-9.5,2.7c-5.2,0-9.8-2-13-5.7c-2.4-2.7-4-6.4-4.6-11h-4v-3.1h3.6
				c0-0.3,0-0.6,0-1c0-1,0.1-2,0.1-2.9h-3.8v-3.2h4.2c0.8-4.5,2.7-8.2,5.3-10.8c3.3-3.4,7.4-5.3,12.7-5.3c3.8,0,6.7,1.1,8.5,2
				l-1.3,4.2c-1.6-1-4.3-1.8-7.2-1.8c-3.5,0-6.3,1.2-8.4,3.5c-1.9,1.9-3.2,4.7-3.8,8.1H238v3.2h-18.4c-0.1,0.8-0.1,1.8-0.1,2.7
				c0,0.4,0,0.7,0,1.1H238v3.1h-18.1c0.5,3.7,1.8,6.5,3.5,8.4c2.4,2.5,5.6,3.7,9,3.7c3.4,0,6.3-1.3,7.8-2.1L241.4,286.9z"/>
		</g>
	</g>
	<g>
		<path fill="#404041" d="M179.3,377c1.1-0.1,2-0.4,2.9-0.8c0.8-0.4,1.5-1.1,2-1.9c0.5-0.9,0.9-2.1,1.2-3.7h2.5V405h-3.1v-25.6h-9.1
			v-2.2C176.9,377.2,178.2,377.1,179.3,377z"/>
		<path fill="#404041" d="M202.9,399.8h4.1v5.2h-4.1V399.8z"/>
		<path fill="#404041" d="M234.4,383.7c-1,1.3-2.4,2.3-4.1,2.8v0.1c2.3,0.5,4,1.4,5.2,3c1.2,1.5,1.8,3.5,1.8,5.8
			c0,1.7-0.3,3.3-0.9,4.5c-0.6,1.3-1.5,2.4-2.6,3.2c-1.1,0.9-2.3,1.5-3.8,1.9s-3,0.6-4.6,0.6c-1.6,0-3.1-0.2-4.6-0.6
			c-1.4-0.4-2.7-1.1-3.8-1.9c-1.1-0.9-1.9-1.9-2.6-3.2c-0.6-1.3-0.9-2.8-0.9-4.5c0.1-2.3,0.7-4.2,1.9-5.8c1.2-1.6,2.9-2.6,5.1-3
			v-0.1c-1.8-0.6-3.2-1.5-4.2-2.8c-1-1.3-1.5-2.9-1.5-4.8c0-1.5,0.3-2.8,0.9-3.8c0.6-1.1,1.4-2,2.4-2.7c1-0.7,2.1-1.2,3.3-1.6
			c1.2-0.3,2.5-0.5,3.8-0.5c1.3,0,2.5,0.2,3.8,0.5c1.2,0.3,2.4,0.9,3.4,1.6c1,0.7,1.8,1.6,2.4,2.7c0.6,1.1,0.9,2.4,0.9,3.8
			C235.9,380.8,235.4,382.4,234.4,383.7z M228.9,402.7c1.1-0.3,2-0.8,2.8-1.4c0.8-0.6,1.4-1.5,1.9-2.4c0.5-1,0.7-2.1,0.7-3.4
			c0-1.2-0.2-2.3-0.7-3.3c-0.5-0.9-1.1-1.7-1.9-2.4c-0.8-0.6-1.7-1.1-2.8-1.4c-1.1-0.3-2.2-0.5-3.3-0.4c-1.2,0-2.3,0.1-3.4,0.4
			c-1.1,0.3-2,0.8-2.8,1.4s-1.4,1.4-1.9,2.4c-0.5,0.9-0.7,2-0.7,3.3c0,1.3,0.2,2.4,0.7,3.4c0.5,1,1.1,1.8,1.9,2.4
			c0.8,0.6,1.7,1.1,2.8,1.5c1.1,0.3,2.2,0.5,3.4,0.5S227.8,403,228.9,402.7z M228.2,385c0.9-0.2,1.7-0.6,2.3-1.2
			c0.7-0.5,1.2-1.2,1.6-2c0.4-0.8,0.6-1.8,0.6-2.9c0-1-0.2-1.9-0.6-2.6c-0.4-0.8-0.9-1.4-1.5-1.9c-0.7-0.5-1.4-0.9-2.3-1.1
			c-0.9-0.3-1.9-0.4-2.9-0.4c-1,0-1.9,0.1-2.8,0.4c-0.9,0.3-1.7,0.6-2.4,1.1c-0.7,0.5-1.2,1.1-1.6,1.9c-0.4,0.8-0.6,1.6-0.6,2.6
			c0,1.1,0.2,2.1,0.6,2.9c0.4,0.8,1,1.5,1.7,2c0.7,0.5,1.5,0.9,2.4,1.1c0.9,0.2,1.8,0.3,2.7,0.3C226.4,385.3,227.4,385.2,228.2,385z
			"/>
		<path fill="#404041" d="M244.3,397.8c0.4,1.1,0.9,2.1,1.7,2.9c0.7,0.8,1.7,1.4,2.8,1.8c1.1,0.4,2.3,0.7,3.7,0.7
			c1.1,0,2.2-0.2,3.3-0.5c1-0.3,2-0.8,2.8-1.5c0.8-0.7,1.5-1.5,2-2.4c0.5-0.9,0.7-2,0.7-3.2c0-1.2-0.2-2.3-0.6-3.2s-1-1.7-1.8-2.3
			c-0.8-0.6-1.6-1.1-2.6-1.4c-1-0.3-2.1-0.4-3.2-0.4h-2.6v-2.6h2.6c0.8,0,1.6-0.1,2.4-0.4c0.8-0.2,1.6-0.6,2.3-1.1
			c0.7-0.5,1.2-1.2,1.6-1.9c0.4-0.8,0.6-1.7,0.6-2.8c0-1.1-0.2-2.1-0.6-2.9c-0.4-0.8-0.9-1.5-1.6-2c-0.7-0.5-1.5-0.9-2.4-1.2
			s-1.9-0.4-2.9-0.4c-1.3,0-2.4,0.2-3.4,0.6c-1,0.4-1.8,1-2.5,1.8c-0.7,0.8-1.2,1.7-1.5,2.8c-0.3,1.1-0.5,2.2-0.4,3.5h-3.1
			c0-1.6,0.3-3.1,0.8-4.5c0.5-1.4,1.2-2.6,2.2-3.6c0.9-1,2.1-1.8,3.4-2.4c1.3-0.6,2.9-0.9,4.5-0.9c1.3,0,2.7,0.2,3.9,0.5
			c1.3,0.3,2.4,0.9,3.4,1.6c1,0.7,1.8,1.6,2.4,2.7c0.6,1.1,0.9,2.4,0.9,4c0,1.9-0.5,3.5-1.5,4.9c-1,1.4-2.4,2.3-4.3,2.8v0.1
			c2.3,0.4,4,1.3,5.2,2.8c1.2,1.5,1.8,3.4,1.8,5.7c0,1.7-0.3,3.2-1,4.5c-0.6,1.3-1.5,2.4-2.6,3.3c-1.1,0.9-2.3,1.5-3.8,2
			c-1.4,0.4-2.9,0.7-4.5,0.7c-1.8,0-3.4-0.3-4.9-0.8c-1.5-0.5-2.8-1.3-3.8-2.3c-1.1-1-1.9-2.2-2.4-3.6c-0.5-1.4-0.7-3.1-0.6-5h3.1
			C243.8,395.4,244,396.6,244.3,397.8z"/>
		<path fill="#404041" d="M274.9,377c1.1-0.1,2-0.4,2.9-0.8c0.8-0.4,1.5-1.1,2-1.9c0.5-0.9,0.9-2.1,1.2-3.7h2.5V405h-3.1v-25.6h-9.1
			v-2.2C272.6,377.2,273.8,377.1,274.9,377z"/>
		<path fill="#404041" d="M317.1,405.7c-4.1,0-7.4-1.4-9.9-4.3c-2.2-2.6-3.5-6-4-10.4h-3.2l0.9-2.2h2.2c0-0.1,0-0.2,0-0.4v-0.5
			c0-0.3,0-0.5,0-0.9c0-0.3,0-0.7,0.1-1.1h-3.1l0.9-2.2h2.5c0.7-4,2.2-7.2,4.5-9.6c2.5-2.7,5.7-4,9.6-4c4.1,0,7.1,1.3,9.1,3.8
			l-1.3,2.9c-2.2-2.6-4.8-3.8-7.9-3.8c-3,0-5.5,1.1-7.4,3.3c-1.7,1.9-2.8,4.4-3.4,7.5h16.4l-0.9,2.2h-15.8c-0.1,0.8-0.1,1.5-0.1,2.1
			v0.4c0,0.2,0,0.3,0.1,0.4h14.9l-0.9,2.2h-13.9c0.4,3.4,1.5,6.2,3.1,8.3c2,2.5,4.6,3.7,7.8,3.7c1.7,0,3.3-0.4,4.7-1.1
			c1.1-0.7,2.4-1.7,3.8-3.1v3.8C323.2,404.6,320.3,405.7,317.1,405.7z"/>
	</g>
</g>
<g>
	<g>
		<polygon fill="#414042" points="353.7,169.2 318.1,287.8 342.8,283.2 378.4,164.6 		"/>
		<path fill="#FFFFFF" d="M315.2,290.3l36.9-122.9l29.1-5.4l-36.8,123L315.2,290.3z M355.2,170.9L321,285.2l20.3-3.7l34.3-114.3
			L355.2,170.9z"/>
	</g>
	<g>
		<polygon fill="#414042" points="377.2,169.2 412.8,287.8 388.1,283.2 352.5,164.6 		"/>
		<path fill="#FFFFFF" d="M415.6,290.3l-29.1-5.4L349.6,162l29.2,5.4L415.6,290.3z M389.6,281.5l20.3,3.7l-34.3-114.3l-20.3-3.7
			L389.6,281.5z"/>
	</g>
	<path fill="#F7931D" d="M417.4,167.2c0-1.4-4-2.6-10.7-3.6c6.5-2.2,10.2-4.1,10-5.4c-0.2-1.3-4.4-1.9-11.2-1.7
		c6-3.2,9.3-5.8,8.9-7.1c-0.5-1.3-4.7-1.1-11.3,0.3c5.3-4.2,8.2-7.3,7.5-8.5s-4.8-0.2-11.1,2.3c4.5-5.1,6.8-8.6,5.9-9.7
		c-0.9-1-4.7,0.6-10.5,4.1c3.6-5.8,5.2-9.7,4.1-10.5c-1-0.9-4.6,1.4-9.7,5.9c2.5-6.3,3.4-10.4,2.3-11.1s-4.3,2.2-8.5,7.5
		c1.4-6.7,1.6-10.9,0.3-11.3c-1.3-0.5-3.8,2.9-7.1,8.9c0.2-6.8-0.3-11-1.7-11.2c-1.3-0.2-3.3,3.5-5.4,10c-0.2-1.7-0.5-3.2-0.8-4.5
		c-0.2-0.8-0.3-1.5-0.5-2.2c-0.7-2.6-1.5-4.1-2.3-4.1l0,0l0,0c-1.4,0-2.6,4-3.6,10.7c-2.2-6.5-4.1-10.2-5.4-10s-1.9,4.4-1.7,11.2
		c-3.2-6-5.8-9.3-7.1-8.9c-1.3,0.5-1.1,4.7,0.3,11.3c-4.2-5.3-7.3-8.2-8.5-7.5s-0.2,4.8,2.3,11.1c-5.1-4.5-8.6-6.8-9.7-5.9
		c-1,0.9,0.6,4.7,4.1,10.5c-5.8-3.6-9.7-5.2-10.5-4.1c-0.9,1,1.4,4.6,5.9,9.7c-6.3-2.5-10.4-3.4-11.1-2.3c-0.7,1.2,2.2,4.3,7.5,8.5
		c-6.7-1.4-10.9-1.6-11.3-0.3c-0.5,1.3,2.9,3.8,8.9,7.1c-6.8-0.2-11,0.3-11.2,1.7c-0.2,1.3,3.5,3.3,10,5.4c-6.7,1-10.7,2.2-10.7,3.6
		s4,2.6,10.7,3.6c-6.5,2.2-10.2,4.1-10,5.4c0.2,1.3,4.4,1.9,11.2,1.7c-6,3.2-9.3,5.8-8.9,7.1c0.5,1.3,4.7,1.1,11.3-0.3
		c-5.3,4.2-8.2,7.3-7.5,8.5s4.8,0.2,11.1-2.3c-4.5,5.1-6.8,8.6-5.9,9.7c0.9,1,4.7-0.6,10.5-4.1c-3.6,5.8-5.2,9.7-4.1,10.5
		c1,0.9,4.6-1.4,9.7-5.9c-2.5,6.3-3.4,10.4-2.3,11.1c1.2,0.7,4.3-2.2,8.5-7.5c-1.4,6.7-1.6,10.9-0.3,11.3c1.3,0.5,3.8-2.9,7.1-8.9
		c-0.2,6.8,0.3,11,1.7,11.2c1.3,0.2,3.3-3.5,5.4-10c1,6.7,2.2,10.7,3.6,10.7l0,0l0,0c0.8,0,1.6-1.5,2.3-4.1c0.2-0.7,0.3-1.4,0.5-2.2
		c0.3-1.3,0.5-2.8,0.8-4.5c2.2,6.5,4.1,10.2,5.4,10s1.9-4.4,1.7-11.2c3.2,6,5.8,9.3,7.1,8.9c1.3-0.5,1.1-4.7-0.3-11.3
		c4.2,5.3,7.3,8.2,8.5,7.5s0.2-4.8-2.3-11.1c5.1,4.5,8.6,6.8,9.7,5.9c1-0.9-0.6-4.7-4.1-10.5c5.8,3.6,9.7,5.2,10.5,4.1
		c0.9-1-1.4-4.6-5.9-9.7c6.3,2.5,10.4,3.4,11.1,2.3c0.7-1.2-2.2-4.3-7.5-8.5c6.7,1.4,10.9,1.6,11.3,0.3c0.5-1.3-2.9-3.8-8.9-7.1
		c6.8,0.2,11-0.3,11.2-1.7c0.2-1.3-3.5-3.3-10-5.4C413.4,169.8,417.4,168.5,417.4,167.2z"/>
	<circle fill="#FFFFFF" cx="365.4" cy="167.3" r="39.8"/>
	<g>
		<path fill="#414042" d="M364.5,196v-38.5h-13.9v-5.2c1.8,0,3.6-0.1,5.3-0.4c1.7-0.3,3.3-0.8,4.7-1.6c1.4-0.8,2.6-1.8,3.5-3.1
			c1-1.3,1.6-3,2-5h4.9V196H364.5z"/>
	</g>
</g>
</svg>
