<?xml version="1.0" encoding="utf-8"?>
<!-- Generator: Adobe Illustrator 19.0.1, SVG Export Plug-In . SVG Version: 6.00 Build 0)  -->
<svg version="1.1" id="Layer_1" xmlns="http://www.w3.org/2000/svg" xmlns:xlink="http://www.w3.org/1999/xlink" x="0px" y="0px"
	 viewBox="0 0 1000 500" enable-background="new 0 0 1000 500" xml:space="preserve">
<g>
	<path fill="#F7931D" d="M500,475c-124.1,0-225-100.9-225-225S375.9,25,500,25s225,100.9,225,225S624.1,475,500,475z M500,33.2
		c-119.5,0-216.8,97.3-216.8,216.8S380.5,466.8,500,466.8S716.8,369.5,716.8,250S619.5,33.2,500,33.2z"/>
	<g>
		<polygon fill="#414042" points="532.3,167.5 462.9,167.5 375,340.5 624.1,340.5 		"/>
		<polygon fill="#414042" points="457.3,167.5 449.2,167.5 336.6,340.5 366.6,340.5 		"/>
		<polygon fill="#414042" points="538.3,167.5 546.4,167.5 663.4,340.5 633.4,340.5 		"/>
		<polygon fill="#FFFFFF" points="518.8,285.5 480.3,285.5 471.5,341.5 527.5,341.5 		"/>
		<polygon fill="#FFFFFF" points="510,236.1 489.2,236.1 482.2,275.5 516.9,275.5 		"/>
		<polygon fill="#FFFFFF" points="505.5,204.9 493.5,204.9 489.6,230 509.5,230 		"/>
		<polygon fill="#FFFFFF" points="502.8,184.8 496.2,184.8 494,199.6 505.1,199.6 		"/>
		<polygon fill="#FFFFFF" points="500.8,170.9 498.3,170.9 496.3,181.6 502.7,181.6 		"/>
		<path fill="none" stroke="#BE1E2D" stroke-width="0.5462" stroke-miterlimit="10" d="M499.5,167.5"/>
		<path fill="none" stroke="#BE1E2D" stroke-width="0.5462" stroke-miterlimit="10" d="M471.5,340.5"/>
		<path fill="none" stroke="#BE1E2D" stroke-width="0.5462" stroke-miterlimit="10" d="M499.5,167.5"/>
		<path fill="none" stroke="#BE1E2D" stroke-width="0.5462" stroke-miterlimit="10" d="M527.5,340.5"/>
	</g>
</g>
<g>
	<path fill="#414042" d="M411.7,372v2.8c-1.1,1.1-2.3,2.6-3.8,4.4c-1.5,1.8-2.9,4-4.3,6.6s-2.6,5.4-3.6,8.7c-1,3.2-1.7,6.8-1.8,10.7
		h-3.3c0.2-2.8,0.6-5.5,1.2-8.1c0.6-2.5,1.4-5,2.5-7.4c1.1-2.4,2.5-4.8,4.1-7.3c1.6-2.4,3.6-5,6-7.6h-18.6V372H411.7z"/>
	<path fill="#414042" d="M422.6,377.8c1.1-0.1,2-0.4,2.8-0.8c0.8-0.4,1.4-1,2-1.9c0.5-0.8,0.9-2,1.1-3.6h2.4v33.6h-3v-25H419V378
		C420.3,378,421.5,377.9,422.6,377.8z"/>
	<path fill="#414042" d="M445.7,400h4v5.1h-4V400z"/>
	<path fill="#414042" d="M471.4,371.5h2.7v22.7h5v2.5h-5v8.4h-2.8v-8.4h-15.5v-2.9L471.4,371.5z M471.3,375.9L471.3,375.9
		l-12.8,18.3h12.8V375.9z"/>
	<path fill="#414042" d="M498.1,371.5h2.7v22.7h5v2.5h-5v8.4H498v-8.4h-15.5v-2.9L498.1,371.5z M498,375.9L498,375.9l-12.8,18.3H498
		V375.9z"/>
	<path fill="#414042" d="M529.8,384.3c-1,1.3-2.3,2.2-4,2.7v0.1c2.2,0.4,3.9,1.4,5.1,2.9c1.2,1.5,1.8,3.4,1.8,5.7
		c0,1.7-0.3,3.2-0.9,4.4c-0.6,1.3-1.4,2.3-2.5,3.1c-1.1,0.8-2.3,1.5-3.7,1.9s-2.9,0.6-4.5,0.6c-1.6,0-3.1-0.2-4.5-0.6
		c-1.4-0.4-2.6-1-3.7-1.9c-1.1-0.8-1.9-1.9-2.5-3.1c-0.6-1.3-0.9-2.7-0.9-4.4c0.1-2.2,0.7-4.1,1.9-5.7c1.2-1.6,2.8-2.5,4.9-2.9V387
		c-1.8-0.5-3.1-1.4-4.1-2.7c-0.9-1.3-1.4-2.8-1.4-4.7c0-1.4,0.3-2.7,0.9-3.7c0.6-1.1,1.4-1.9,2.3-2.6c1-0.7,2-1.2,3.3-1.5
		c1.2-0.3,2.4-0.5,3.7-0.5s2.5,0.2,3.7,0.5c1.2,0.3,2.3,0.8,3.3,1.5c1,0.7,1.8,1.6,2.4,2.6c0.6,1.1,0.9,2.3,0.9,3.7
		C531.3,381.5,530.8,383,529.8,384.3z M524.4,402.8c1-0.3,1.9-0.8,2.7-1.4s1.4-1.4,1.8-2.4c0.4-1,0.7-2.1,0.7-3.4
		c0-1.2-0.2-2.3-0.7-3.2c-0.5-0.9-1.1-1.7-1.9-2.3c-0.8-0.6-1.7-1.1-2.7-1.4c-1-0.3-2.1-0.4-3.2-0.4c-1.2,0-2.2,0.1-3.3,0.4
		c-1,0.3-1.9,0.7-2.7,1.4c-0.8,0.6-1.4,1.4-1.8,2.3c-0.5,0.9-0.7,2-0.7,3.2c0,1.2,0.2,2.4,0.7,3.3c0.4,1,1.1,1.8,1.8,2.4
		s1.7,1.1,2.7,1.4c1,0.3,2.2,0.5,3.3,0.5C522.3,403.3,523.4,403.2,524.4,402.8z M523.8,385.6c0.9-0.2,1.6-0.6,2.3-1.1
		c0.7-0.5,1.2-1.2,1.6-2c0.4-0.8,0.6-1.7,0.6-2.8c0-1-0.2-1.8-0.6-2.5c-0.4-0.7-0.9-1.3-1.5-1.8c-0.6-0.5-1.4-0.8-2.3-1.1
		c-0.9-0.3-1.8-0.4-2.8-0.4c-0.9,0-1.8,0.1-2.7,0.4c-0.9,0.3-1.6,0.6-2.3,1.1s-1.2,1.1-1.6,1.8c-0.4,0.7-0.6,1.6-0.6,2.5
		c0,1.1,0.2,2.1,0.6,2.9c0.4,0.8,1,1.5,1.6,2c0.7,0.5,1.4,0.9,2.3,1.1c0.9,0.2,1.7,0.3,2.6,0.3C522,385.9,522.9,385.8,523.8,385.6z"
		/>
	<path fill="#414042" d="M553.7,370.9v21.5l13.7-12h4l-10.6,9.2l11.3,15.6h-3.8l-9.8-13.5l-4.9,4.1v9.4h-3v-34.3H553.7z"/>
	<path fill="#414042" d="M577.5,380.4v4.2h0.1c0.8-1.5,1.8-2.7,3.1-3.6c1.3-0.9,3-1.3,5-1.3c1.6,0,3.1,0.4,4.4,1.2
		c1.3,0.8,2.2,2,2.7,3.6c0.7-1.6,1.8-2.8,3.3-3.6c1.4-0.8,3-1.2,4.6-1.2c5.5,0,8.2,2.9,8.2,8.7v16.8h-3v-16.7c0-2-0.4-3.6-1.3-4.7
		c-0.9-1.1-2.4-1.6-4.6-1.6c-1.3,0-2.4,0.2-3.3,0.7c-0.9,0.5-1.6,1.2-2.1,2c-0.5,0.8-0.9,1.8-1.1,2.9c-0.2,1.1-0.3,2.2-0.3,3.3v14
		h-3v-16.8c0-0.8-0.1-1.6-0.3-2.4c-0.2-0.8-0.5-1.4-0.9-2c-0.4-0.6-0.9-1-1.6-1.3c-0.7-0.3-1.5-0.5-2.4-0.5c-1.3,0-2.4,0.2-3.3,0.7
		c-0.9,0.5-1.7,1.1-2.3,1.9c-0.6,0.8-1,1.8-1.3,2.9c-0.3,1.1-0.4,2.3-0.4,3.6v13.8h-3v-24.8H577.5z"/>
</g>
</svg>
