<svg xmlns="http://www.w3.org/2000/svg" viewBox="0 0 164.78 164.78"><defs><style>.cls-1{fill:none;stroke:#f39200;stroke-miterlimit:10;stroke-width:3px;}.cls-2{font-size:18px;font-family:HelveticaNeue-Light, Helvetica Neue;}.cls-2,.cls-4{fill:#3c3c3b;}.cls-3{letter-spacing:-0.11em;}.cls-5{fill:#fff;}</style></defs><title>Element 3</title><g id="Ebene_2" data-name="Ebene 2"><g id="Layer_1" data-name="Layer 1"><circle class="cls-1" cx="82.39" cy="82.39" r="80.89"/><text class="cls-2" transform="translate(39.7 139.14)">102 <tspan class="cls-3" x="35.03" y="0">T</tspan><tspan x="43.04" y="0">eams</tspan></text><circle class="cls-4" cx="55.39" cy="51.05" r="12.24"/><path class="cls-4" d="M119.21,67.66H45.63A14.28,14.28,0,0,0,31.36,81.93v33.28a1.15,1.15,0,0,0,1.14,1.14h99.84a1.15,1.15,0,0,0,1.14-1.14V81.93A14.28,14.28,0,0,0,119.21,67.66Z"/><rect class="cls-5" x="79.94" y="80.11" width="4.97" height="36.25"/><path class="cls-5" d="M128.34,79.3l8.22-5.77a1,1,0,0,1,1.37.23h0a1,1,0,0,1-.23,1.37l-8.22,5.77a1,1,0,0,1-1.37-.23h0A1.06,1.06,0,0,1,128.34,79.3Z"/><path class="cls-5" d="M126.8,77.07,135,71.31a1,1,0,0,1,1.37.23h0a1,1,0,0,1-.23,1.37l-8.22,5.77a1,1,0,0,1-1.37-.23h0A.94.94,0,0,1,126.8,77.07Z"/><path class="cls-5" d="M125.15,74.73,133.37,69a1,1,0,0,1,1.37.23h0a1,1,0,0,1-.23,1.37l-8.22,5.77a1,1,0,0,1-1.37-.23h0A1.06,1.06,0,0,1,125.15,74.73Z"/><path class="cls-5" d="M123.6,72.5l8.22-5.77a1,1,0,0,1,1.37.23h0a1,1,0,0,1-.23,1.37l-8.22,5.77a1,1,0,0,1-1.37-.23h0A1,1,0,0,1,123.6,72.5Z"/><polygon class="cls-5" points="55.39 75.86 55.39 75.86 47.97 67.26 62.81 67.26 55.39 75.86"/><polygon class="cls-5" points="109.62 75.86 109.62 75.86 102.2 67.26 117.04 67.26 109.62 75.86"/><circle class="cls-4" cx="109.62" cy="51.05" r="12.23"/></g></g></svg>