<?xml version="1.0" encoding="utf-8"?>
<!-- Generator: Adobe Illustrator 18.1.1, SVG Export Plug-In . SVG Version: 6.00 Build 0)  -->
<svg version="1.1" id="Layer_1" xmlns="http://www.w3.org/2000/svg" xmlns:xlink="http://www.w3.org/1999/xlink" x="0px" y="0px"
	 viewBox="0 0 500 500" enable-background="new 0 0 500 500" xml:space="preserve">
<g>
	<path fill="#F6921E" d="M250,475C125.9,475,25,374.1,25,250C25,125.9,125.9,25,250,25c124.1,0,225,100.9,225,225
		C475,374.1,374.1,475,250,475z M250,33.2C130.5,33.2,33.2,130.5,33.2,250c0,119.5,97.3,216.8,216.8,216.8
		c119.5,0,216.8-97.3,216.8-216.8C466.8,130.5,369.5,33.2,250,33.2z"/>
</g>
<rect x="117" y="128.3" fill="#404041" width="30.7" height="30.7"/>
<rect x="117" y="189.2" fill="#404041" width="30.7" height="30.7"/>
<rect x="113" y="128.3" fill="#404041" width="8.5" height="242.3"/>
<rect x="388.4" y="128.4" fill="#404041" width="8.5" height="242.3"/>
<rect x="147.5" y="158.8" fill="#404041" width="30.7" height="30.7"/>
<rect x="178.1" y="128.3" fill="#404041" width="30.7" height="30.7"/>
<rect x="178.1" y="189.2" fill="#404041" width="30.7" height="30.7"/>
<rect x="208.6" y="158.8" fill="#404041" width="30.7" height="30.7"/>
<rect x="239.2" y="128.3" fill="#404041" width="30.7" height="30.7"/>
<rect x="239.2" y="189.2" fill="#404041" width="30.7" height="30.7"/>
<rect x="269.7" y="158.8" fill="#404041" width="30.7" height="30.7"/>
<rect x="300.3" y="128.3" fill="#404041" width="30.7" height="30.7"/>
<rect x="300.3" y="189.2" fill="#404041" width="30.7" height="30.7"/>
<rect x="330.8" y="158.8" fill="#404041" width="30.7" height="30.7"/>
<rect x="362" y="128.3" fill="#404041" width="30.7" height="30.7"/>
<rect x="362" y="189.2" fill="#404041" width="30.7" height="30.7"/>
</svg>
