<?xml version="1.0" encoding="UTF-8"?>
<svg width="654px" height="452px" viewBox="0 0 654 452" version="1.1" xmlns="http://www.w3.org/2000/svg" xmlns:xlink="http://www.w3.org/1999/xlink">
    <!-- Generator: Sketch 42 (36781) - http://www.bohemiancoding.com/sketch -->
    <title>Group</title>
    <desc>Created with Sketch.</desc>
    <defs></defs>
    <g id="Page-1" stroke="none" stroke-width="1" fill="none" fill-rule="evenodd">
        <g id="STA_Travel_Logo" fill-rule="nonzero" fill="#000000">
            <g id="Group">
                <polygon id="Shape" points="583.1 139.1 562.5 138.8 565.4 149.6"></polygon>
                <path d="M390.2,349.5 C365.3,332.2 346.5,303.1 346.5,255.6 C346.5,212.3 360.6,186.4 379.7,166.9 C400.6,145.6 422.9,140.4 440.4,139.8 C441.4,139.8 442.4,139.7 443.4,139.7 L443.4,139.7 C505.4,139.1 544.9,186.6 544.9,235.8 L544.9,326.9 L653.6,297.8 L573.9,0 L0,153.8 L79.8,451.6 L416.3,361.4 C402.1,357.2 390.2,349.5 390.2,349.5 Z M632.2,268.6 L594.6,278.7 L600,298.9 L585.3,299.5 L576.7,267.4 L628.1,253.6 L632.2,268.6 Z M626.5,247.3 L612.7,251 L606.5,228 L601.1,229.4 L606,247.8 L593,251.3 L588.1,232.9 L582.7,234.3 L589.3,258.9 L575.5,262.6 L565,223.5 L616.4,209.7 L626.5,247.3 Z M605.2,167.9 L570.1,188.8 L611,189.4 L615.2,205.1 L559.5,202.8 L554,182.1 L601.1,152.2 L605.2,167.9 Z M599.3,145.9 L552.2,175.8 L548,160.1 L554.7,156.1 L550,138.8 L542.2,138.7 L538,123 L593.7,125.3 L599.3,145.9 Z M582.5,82.5 C585.1,92.3 585,95.6 582.8,100.1 C580.6,104.6 576.5,107.7 570.5,109.3 C568.6,109.8 566.8,110.1 565,110.1 C563.2,110.2 561.6,109.9 559.9,109.4 C558.3,108.9 556.8,108.1 555.4,106.9 C554,105.8 553.1,104.8 552.1,102.8 C550.8,103.5 536.8,118 536.8,118 L532.9,103.4 L548.2,88.3 C548.2,88.3 553.4,86.9 556.4,86.1 L557.3,89.4 C558,91.9 559,93.5 560.5,94.2 C561.9,94.9 563.5,95 565.3,94.6 C567,94.1 568.4,93.3 569.2,92 C570.1,90.8 570.2,88.9 569.5,86.4 L567.6,79.1 L529.2,89.4 L525.3,75 L576.8,61.2 C576.8,61.2 581.9,80.2 582.5,82.5 Z M550.7,19.6 L564.5,15.9 L575.6,57.4 L561.8,61 L558.3,47.8 L520.7,57.9 L516.7,42.9 L554.3,32.8 L550.7,19.6 Z M315.3,364.7 C253.9,363.1 242,320.5 242,271.4 L242,192.8 L169.1,192.8 C154.4,192.8 148.6,198.5 148.6,207.5 C148.6,231.2 226.4,236.2 226.4,295.1 C226.4,319.7 217.4,364.7 147,364.7 L69.9,364.7 L84,312.2 L144.7,312.2 C161.9,312.2 167.4,305.8 167.4,296.8 C167.4,273.1 85.7,259.9 84.5,201 C84.4,194.4 85.4,189 88.7,177.9 C88.7,177.9 93.9,157.3 118.8,146.7 C137.4,138.8 151.7,140.4 190.2,140.1 C201.3,140 225,140 242,140 L242,102.9 L297.9,87.7 L297.9,87.7 L297.9,87.7 L297.9,87.7 L297.9,140.2 L353.4,140.2 L339,192.8 L297.9,192.8 L297.9,258.3 C297.9,287.8 301.2,312 330.7,312.1 L339,312.1 L353.4,364.7 L315.3,364.7 L315.3,364.7 Z" id="Shape"></path>
                <path d="M489.6,244.2 C489.6,213.7 475.8,197.3 446.4,197.3 C417.7,197.3 398.3,219.4 398.5,250.8 C398.7,283.4 416.9,312 444.7,312 C462.7,312 459.8,312.2 459.8,312.2 L469.2,347.4 L489.7,341.9 L489.7,244.2 L489.6,244.2 Z" id="Shape"></path>
            </g>
        </g>
    </g>
</svg>