<svg xmlns="http://www.w3.org/2000/svg" width="88" height="34" viewBox="0 0 88 34"><title>BreakOut-Logo</title><path d="M6.53,10h4.58a13,13,0,0,1,1.46.1,2.58,2.58,0,0,1,1.12.44,1.72,1.72,0,0,1,.73.83,2.85,2.85,0,0,1,.24,1.36A3.14,3.14,0,0,1,13.83,15a3.32,3.32,0,0,1-2.19,1v0A2.49,2.49,0,0,1,14,18.75a4.18,4.18,0,0,1-.24,1.32,3.51,3.51,0,0,1-2.19,2.09,5.49,5.49,0,0,1-2.14.34H3.85ZM4.77,21.87H9.45a5.56,5.56,0,0,0,1.61-.24A3.32,3.32,0,0,0,12.23,21,2.49,2.49,0,0,0,13,20a3.66,3.66,0,0,0,.24-1.27,2,2,0,0,0-.73-1.8,4.21,4.21,0,0,0-2.39-.54H5.89Zm1.32-6.19h4.19A4.48,4.48,0,0,0,13,15a2.55,2.55,0,0,0,1-2.09,2.66,2.66,0,0,0-.19-1.17,1.48,1.48,0,0,0-.58-0.63,2.59,2.59,0,0,0-.93-0.29,8.63,8.63,0,0,0-1.17,0H7.21Z" style="fill:#fff"/><path d="M16.61,13.54h0.68l-0.49,2.14h0A5.15,5.15,0,0,1,18.22,14a3.06,3.06,0,0,1,2-.68h0.29a0.62,0.62,0,0,1,.29,0L20.65,14a2,2,0,0,0-.54,0,2.67,2.67,0,0,0-1.66.49,4.66,4.66,0,0,0-1.12,1.27,8.08,8.08,0,0,0-.73,1.61c-0.19.58-.29,1.07-0.44,1.56l-0.83,3.65H14.66Z" style="fill:#fff"/><path d="M20.75,18.12c0,0.15,0,.34,0,0.49s0,0.34,0,.49a3.27,3.27,0,0,0,.19,1.17,3.14,3.14,0,0,0,.54,1,3,3,0,0,0,.88.68,2.48,2.48,0,0,0,1.22.24A3.36,3.36,0,0,0,24.7,22a3.5,3.5,0,0,0,1-.58,3.88,3.88,0,0,0,.73-0.83,3.25,3.25,0,0,0,.44-1h0.68A3.77,3.77,0,0,1,27,20.8a4.43,4.43,0,0,1-.88,1,4.17,4.17,0,0,1-1.22.68,4.59,4.59,0,0,1-1.46.24,3.63,3.63,0,0,1-1.51-.29,2.9,2.9,0,0,1-1.07-.78,3.68,3.68,0,0,1-.63-1.12A4.23,4.23,0,0,1,20,19.19a7.34,7.34,0,0,1,.34-2.34A6.58,6.58,0,0,1,21.24,15a4.08,4.08,0,0,1,1.51-1.22,4.45,4.45,0,0,1,2-.44,4.29,4.29,0,0,1,1.41.24,3.9,3.9,0,0,1,1,.73,2.81,2.81,0,0,1,.63,1.12,4.23,4.23,0,0,1,.24,1.36,3.22,3.22,0,0,1,0,.68,3.82,3.82,0,0,1-.1.68H20.75v0Zm6.58-.58c0-.15,0-0.29,0-0.39s0-.24,0-0.34a4.42,4.42,0,0,0-.15-1.12,3.37,3.37,0,0,0-.49-0.93,2.4,2.4,0,0,0-.88-0.63,3.37,3.37,0,0,0-2.63,0,3.72,3.72,0,0,0-1.12.83,3.78,3.78,0,0,0-.78,1.17,6.49,6.49,0,0,0-.49,1.36h6.43Z" style="fill:#fff"/><path d="M29.86,16.12A3.26,3.26,0,0,1,31.22,14a4.55,4.55,0,0,1,2.53-.63,6.22,6.22,0,0,1,.83.1,2.94,2.94,0,0,1,.93.29,2.29,2.29,0,0,1,.73.63,1.85,1.85,0,0,1,.29,1.07,6.67,6.67,0,0,1-.1.78c0,0.34-.15.63-0.19,1s-0.15.58-.19,0.88-0.1.44-.1,0.49c0,0.24-.15.49-0.19,0.78s-0.15.54-.19,0.83-0.1.54-.15,0.73a2.18,2.18,0,0,0,0,.54,0.55,0.55,0,0,0,.15.39,0.48,0.48,0,0,0,.39.15,0.62,0.62,0,0,0,.29,0c0.1,0,.19,0,0.29,0l-0.1.58a1.07,1.07,0,0,1-.39,0H35.61a0.82,0.82,0,0,1-.68-0.29,1.07,1.07,0,0,1-.19-0.63,1,1,0,0,1,0-.34c0-.15,0-0.29.1-0.39h0a2.82,2.82,0,0,1-.68.83,3.44,3.44,0,0,1-.88.58,7.1,7.1,0,0,1-.93.34,6.66,6.66,0,0,1-.93.1,3.8,3.8,0,0,1-1.07-.15,2.47,2.47,0,0,1-.88-0.44,2.16,2.16,0,0,1-.58-0.73,2.91,2.91,0,0,1,.1-2.53A2.83,2.83,0,0,1,29.86,18a3.51,3.51,0,0,1,1.27-.39c0.49-.1,1-0.1,1.46-0.15a6.76,6.76,0,0,0,1.56-.15,2.56,2.56,0,0,0,1-.29,1.14,1.14,0,0,0,.54-0.54,2.1,2.1,0,0,0,.15-0.83,1.83,1.83,0,0,0-.54-1.36,2.44,2.44,0,0,0-1.75-.49,3.58,3.58,0,0,0-2,.54,2.68,2.68,0,0,0-1.07,1.7H29.86v0Zm5.65,1.32h0a1.11,1.11,0,0,1-.58.29,4.06,4.06,0,0,1-.73.19,4.8,4.8,0,0,1-.83.1c-0.29,0-.49,0-0.68,0a11.08,11.08,0,0,0-1.27.1,3.45,3.45,0,0,0-1.07.29,2,2,0,0,0-.78.63,2.08,2.08,0,0,0-.29,1.17,1.67,1.67,0,0,0,.19.88,2,2,0,0,0,.49.58,1.65,1.65,0,0,0,.73.29,5.37,5.37,0,0,0,.88.1A3.08,3.08,0,0,0,34,21a4.45,4.45,0,0,0,.73-1.12c0.19-.44.34-0.88,0.49-1.32Z" style="fill:#fff"/><path d="M40.14,10h0.68L39,18.32l0,0,6-4.82h1l-4.58,3.6,3.21,5.41H43.94l-2.92-5-2.14,1.66L38.19,22.5H37.51Z" style="fill:#fff"/><path d="M68.83,22.55H68.15V20.6h0a3.37,3.37,0,0,1-.49.93,4.85,4.85,0,0,1-.73.68,3.23,3.23,0,0,1-.93.44,3.71,3.71,0,0,1-1,.15,3.84,3.84,0,0,1-1.36-.19,3.28,3.28,0,0,1-.93-0.49,1.59,1.59,0,0,1-.54-0.73,2.55,2.55,0,0,1-.29-0.78,4.86,4.86,0,0,1-.1-0.78V13.54H62.4v5.7a5,5,0,0,0,0,.83,3.71,3.71,0,0,0,.29,1,2,2,0,0,0,.78.78,2.5,2.5,0,0,0,1.46.34,3.11,3.11,0,0,0,1.36-.29,3.18,3.18,0,0,0,1-.78A3.4,3.4,0,0,0,68,19.92a4.93,4.93,0,0,0,.19-1.51V13.54h0.68v9h0Z" style="fill:#fff"/><path d="M74.09,14.13H72.14v6.28a2.36,2.36,0,0,0,.15.88,1,1,0,0,0,.39.49,1.22,1.22,0,0,0,.63.19,4.69,4.69,0,0,0,.83,0v0.58h-1a2.07,2.07,0,0,1-.83-0.24,1.37,1.37,0,0,1-.58-0.68,2.76,2.76,0,0,1-.19-1.22V14.13H69.9V13.54h1.66V10.72h0.68v2.83h1.95v0.58h-0.1Z" style="fill:#fff"/><polygon points="2.97 6.67 0 4.29 2.39 1.31 3.07 1.8 1.17 4.14 3.46 6.04 2.97 6.67" style="fill:#fff"/><polygon points="85.78 26.94 85.1 26.5 86.66 23.97 84.12 22.41 84.56 21.68 87.83 23.72 85.78 26.94" style="fill:#fff"/><rect x="63.95" y="26.26" width="23.62" height="0.83" transform="translate(-4.21 19.17) rotate(-14.03)" style="fill:#fff"/><rect x="43.54" y="0.66" width="0.83" height="12.96" transform="translate(8.5 34.08) rotate(-46.46)" style="fill:#fff"/><rect x="0.55" y="2.59" width="36.39" height="0.83" transform="translate(-0.15 1.21) rotate(-3.69)" style="fill:#fff"/><rect x="38.7" y="25.61" width="13.15" height="0.83" transform="translate(-3.27 45.26) rotate(-51.5)" style="fill:#fff"/><rect x="59.23" y="20.63" width="0.83" height="8.96" transform="translate(-3.64 38.63) rotate(-34.89)" style="fill:#fff"/><path d="M38.24,3.51A1.75,1.75,0,1,1,40,1.75,1.75,1.75,0,0,1,38.24,3.51Zm0-2.73a0.92,0.92,0,0,0-.93.93,1,1,0,0,0,.93.93A0.93,0.93,0,0,0,38.24.78Z" style="fill:#fff"/><path d="M40.33,34a1.75,1.75,0,1,1,1.8-1.8A1.83,1.83,0,0,1,40.33,34Zm0-2.73a0.92,0.92,0,0,0-.93.93,1,1,0,0,0,.93.93A0.93,0.93,0,0,0,40.33,31.27Z" style="fill:#fff"/><path d="M63,31.66a1.75,1.75,0,1,1,1.75-1.75A1.72,1.72,0,0,1,63,31.66Zm0-2.73a0.92,0.92,0,0,0-.93.93,1,1,0,0,0,.93.93A0.93,0.93,0,0,0,63,28.93Z" style="fill:#fff"/><path d="M60.45,15.93a6.87,6.87,0,0,1-13.74,0A6.87,6.87,0,0,1,60.45,15.93Zm-12.86,0a6,6,0,1,0,6-6A6.05,6.05,0,0,0,47.59,15.93Z" style="fill:#fff"/></svg>