<?xml version="1.0" encoding="utf-8"?>
<!-- Generator: Adobe Illustrator 18.1.1, SVG Export Plug-In . SVG Version: 6.00 Build 0)  -->
<svg version="1.1" id="Layer_1" xmlns="http://www.w3.org/2000/svg" xmlns:xlink="http://www.w3.org/1999/xlink" x="0px" y="0px"
	 viewBox="0 0 100 100" enable-background="new 0 0 100 100" xml:space="preserve">
<path fill="#F6931D" d="M50,95C25.2,95,5,74.8,5,50S25.2,5,50,5s45,20.2,45,45S74.8,95,50,95z M50,6.6C26.1,6.6,6.6,26.1,6.6,50
	S26.1,93.4,50,93.4S93.4,73.9,93.4,50S73.9,6.6,50,6.6z"/>
<g>
	<path fill="#FFFFFF" d="M62.8,76.2H35.9c-1.2,0-2.2-0.9-2.2-2.2l7.5-39.7c0-1.2,0.9-2.2,2.2-2.2h26.9c1.2,0,2.2,0.9,2.2,2.2
		l-7.5,39.7C65.3,75.3,64,76.2,62.8,76.2z"/>
	<path fill="#414142" d="M62.8,77.5H35.9c-1.9,0-3.4-1.6-3.4-3.4l7.5-39.7c0-1.6,1.6-3.1,3.4-3.1h26.9c1.9,0,3.4,1.6,3.4,3.4
		l-7.5,39.7C66.2,75.9,64.6,77.5,62.8,77.5z M43.4,33.1c-0.6,0-1.2,0.6-1.2,1.2L34.6,74c0,0.3,0.6,0.9,1.2,0.9h26.9
		c0.6,0,1.2-0.6,1.2-1.2L71.5,34c0-0.3-0.6-0.9-1.2-0.9L43.4,33.1z"/>
</g>
<g>
	<path fill="#FFFFFF" d="M59.6,72.6H32.7c-1.2,0-2.2-0.9-2.2-2.2l7.5-39.7c0-1.2,0.9-2.2,2.2-2.2h26.9c1.2,0,2.2,0.9,2.2,2.2
		l-7.5,39.7C62.1,71.7,60.9,72.6,59.6,72.6z"/>
	<path fill="#414142" d="M59.6,73.9H32.7c-1.9,0-3.4-1.6-3.4-3.4l7.5-39.7c0-1.6,1.6-3.1,3.4-3.1h26.9c1.9,0,3.4,1.6,3.4,3.4
		l-7.5,39.7C63.1,72.3,61.5,73.9,59.6,73.9z M40.2,29.5c-0.6,0-1.2,0.6-1.2,1.2l-7.5,39.7c0,0.3,0.6,0.9,1.2,0.9h26.9
		c0.6,0,1.2-0.6,1.2-1.2l7.5-39.7c0-0.3-0.6-0.9-1.2-0.9H40.2z"/>
</g>
<g>
	<path fill="#FFFFFF" d="M56.2,69.2H29.3c-1.2,0-2.2-0.9-2.2-2.2l7.5-39.7c0-1.2,0.9-2.2,2.2-2.2h26.9c1.2,0,2.2,0.9,2.2,2.2
		l-7.5,39.4C58.4,67.9,57.4,69.2,56.2,69.2z"/>
	<path fill="#414142" d="M56.2,70.1H29.3c-1.9,0-3.4-1.6-3.4-3.4L33.4,27c0-1.6,1.6-3.1,3.4-3.1h26.9c1.9,0,3.4,1.6,3.4,3.4L59.6,67
		C59.6,68.5,58.1,70.1,56.2,70.1z M36.8,26c-0.6,0-1.2,0.6-1.2,1.2L28.1,67c0,0.3,0.6,0.9,1.2,0.9h26.9c0.6,0,1.2-0.6,1.2-1.2
		L64.9,27c0-0.3-0.6-0.9-1.2-0.9L36.8,26z"/>
</g>
<path fill="#414142" d="M61,38.5H36c-0.6,0-1.2-0.6-1.2-1.2c0-0.6,0.6-1.2,1.2-1.2h25c0.6,0,1.2,0.6,1.2,1.2
	C62.2,37.9,61.6,38.5,61,38.5z"/>
<path fill="#414142" d="M55.2,42h-20c-0.6,0-1.2-0.6-1.2-1.2s0.6-1.2,1.2-1.2h20c0.6,0,1.2,0.6,1.2,1.2C56.5,41.4,55.8,42,55.2,42z"
	/>
<path fill="#414142" d="M59.6,45.5h-25c-0.6,0-1.2-0.6-1.2-1.2S34,43,34.6,43h25c0.6,0,1.2,0.6,1.2,1.2S60.2,45.5,59.6,45.5z"/>
<path fill="#414142" d="M53.9,49h-20c-0.6,0-1.2-0.6-1.2-1.2s0.6-1.2,1.2-1.2h20c0.6,0,1.2,0.6,1.2,1.2C55.2,48.4,54.5,49,53.9,49z"
	/>
<path fill="#414142" d="M57.4,56h-25c-0.6,0-1.2-0.6-1.2-1.2c0-0.6,0.6-1.2,1.2-1.2h25c0.6,0,1.2,0.6,1.2,1.2
	C58.7,55.4,58,56,57.4,56z"/>
<path fill="#414142" d="M51.6,59.5h-20c-0.6,0-1.2-0.6-1.2-1.2S31,57,31.6,57h20c0.6,0,1.2,0.6,1.2,1.2
	C52.9,58.9,52.3,59.5,51.6,59.5z"/>
<path fill="#414142" d="M47.9,52.5H33.2c-0.6,0-1.2-0.6-1.2-1.2c0-0.6,0.6-1.2,1.2-1.2h14.7c0.6,0,1.2,0.6,1.2,1.2
	C49.1,51.9,48.5,52.5,47.9,52.5z"/>
<rect x="36.7" y="28.6" fill="none" width="36.6" height="10.2"/>
<text transform="matrix(1 0 0 1 36.6607 33.6419)" fill="#F7931D" font-family="'HelveticaNeue-LightItalic'" font-size="7">CODE</text>
<g>
	<g>
		<polygon fill="#414042" points="51.5,66.3 44.8,80.8 47.9,80.2 54.6,65.7 		"/>
		<path fill="#FFFFFF" d="M44.4,81.1l7-15l3.7-0.7l-7,15.1L44.4,81.1z M51.7,66.5l-6.5,14l2.6-0.5l6.5-14L51.7,66.5z"/>
	</g>
	<g>
		<polygon fill="#414042" points="54.4,66.3 56.4,80.8 53.4,80.2 51.5,65.7 		"/>
		<path fill="#FFFFFF" d="M56.7,81.1l-3.5-0.7l-2-15l3.5,0.7L56.7,81.1z M53.6,80l2.4,0.5l-1.9-14L51.8,66L53.6,80z"/>
	</g>
	<path fill="#F7931D" d="M59.4,66c0-0.2-0.4-0.3-1.2-0.4c0.8-0.3,1.3-0.5,1.3-0.7c0-0.2-0.5-0.2-1.3-0.2c0.8-0.4,1.3-0.7,1.2-0.9
		c0-0.2-0.6-0.1-1.4,0c0.7-0.5,1.2-0.9,1.1-1c-0.1-0.1-0.6,0-1.4,0.3c0.7-0.6,1-1.1,0.9-1.2c-0.1-0.1-0.6,0.1-1.4,0.5
		c0.6-0.7,0.8-1.2,0.7-1.3c-0.1-0.1-0.6,0.2-1.3,0.7c0.4-0.8,0.6-1.3,0.5-1.4c-0.1-0.1-0.6,0.3-1.2,0.9c0.3-0.8,0.4-1.3,0.3-1.4
		c-0.1-0.1-0.5,0.4-1,1.1c0.2-0.8,0.2-1.3,0-1.4c-0.2,0-0.5,0.4-0.9,1.2c0-0.2,0-0.4,0-0.6c0-0.1,0-0.2,0-0.3c0-0.3-0.1-0.5-0.2-0.5
		l0,0l0,0c-0.2,0-0.4,0.5-0.7,1.3c-0.1-0.8-0.3-1.2-0.5-1.2c-0.2,0-0.3,0.5-0.4,1.4c-0.3-0.7-0.5-1.1-0.7-1.1
		c-0.2,0.1-0.2,0.6-0.2,1.4c-0.4-0.6-0.7-1-0.9-0.9c-0.2,0.1-0.1,0.6,0.1,1.4c-0.5-0.6-0.9-0.8-1.1-0.7c-0.1,0.1,0,0.6,0.3,1.3
		c-0.6-0.4-1.1-0.6-1.2-0.5c-0.1,0.1,0.1,0.6,0.5,1.2c-0.7-0.3-1.2-0.4-1.3-0.3c-0.1,0.1,0.2,0.5,0.7,1c-0.8-0.2-1.3-0.2-1.4,0
		c-0.1,0.2,0.3,0.5,0.9,0.9c-0.8,0-1.4,0-1.4,0.2c-0.1,0.2,0.4,0.4,1.1,0.7c-0.8,0.1-1.4,0.3-1.4,0.4c0,0.2,0.4,0.3,1.2,0.4
		c-0.8,0.3-1.3,0.5-1.3,0.7c0,0.2,0.5,0.2,1.3,0.2c-0.8,0.4-1.3,0.7-1.2,0.9c0,0.2,0.6,0.1,1.4,0c-0.7,0.5-1.2,0.9-1.1,1
		s0.6,0,1.4-0.3c-0.7,0.6-1,1.1-0.9,1.2c0.1,0.1,0.6-0.1,1.4-0.5c-0.6,0.7-0.8,1.2-0.7,1.3c0.1,0.1,0.6-0.2,1.3-0.7
		c-0.4,0.8-0.6,1.3-0.5,1.4c0.1,0.1,0.6-0.3,1.2-0.9c-0.3,0.8-0.4,1.3-0.3,1.4c0.1,0.1,0.5-0.4,1-1.1c-0.2,0.8-0.2,1.3,0,1.4
		c0.2,0,0.5-0.4,0.9-1.2c0,0.8,0.1,1.3,0.2,1.3l0,0l0,0c0.1,0,0.2-0.2,0.4-0.5c0-0.1,0.1-0.2,0.1-0.3c0.1-0.2,0.1-0.3,0.2-0.6
		c0.1,0.8,0.3,1.2,0.5,1.2c0.2,0,0.3-0.5,0.4-1.4c0.3,0.7,0.5,1.1,0.7,1.1c0.2-0.1,0.2-0.6,0.2-1.4c0.4,0.6,0.7,1,0.9,0.9
		c0.2-0.1,0.1-0.6-0.1-1.4c0.5,0.6,0.9,0.8,1.1,0.7c0.1-0.1,0-0.6-0.3-1.3c0.6,0.4,1.1,0.6,1.2,0.5c0.1-0.1-0.1-0.6-0.5-1.2
		c0.7,0.3,1.2,0.4,1.3,0.3c0.1-0.1-0.2-0.5-0.7-1c0.8,0.2,1.3,0.2,1.4,0c0.1-0.2-0.3-0.5-0.9-0.9c0.8,0,1.4,0,1.4-0.2
		c0.1-0.2-0.4-0.4-1.1-0.7C58.8,66.4,59.3,66.2,59.4,66z"/>
	<path fill="#FFFFFF" d="M53.8,61.2c2.7,0,4.5,2.2,4.1,4.9c-0.4,2.7-3,4.9-5.7,4.9c-2.7,0-4.5-2.2-4.1-4.9
		C48.6,63.4,51.1,61.2,53.8,61.2z"/>
</g>
</svg>
