<?xml version="1.0" encoding="utf-8"?>
<!-- Generator: Adobe Illustrator 18.1.1, SVG Export Plug-In . SVG Version: 6.00 Build 0)  -->
<svg version="1.1" id="Layer_1" xmlns="http://www.w3.org/2000/svg" xmlns:xlink="http://www.w3.org/1999/xlink" x="0px" y="0px"
	 viewBox="0 0 500 500" enable-background="new 0 0 500 500" xml:space="preserve">
<path fill="#414141" d="M376.6,340.6H175c-9.4,0-15.6-7.8-15.6-15.6V184.4c0-7.8,6.2-15.6,15.6-15.6h201.6c7.8,0,15.6,6.2,15.6,15.6
	V325C392.2,332.8,384.4,340.6,376.6,340.6z"/>
<g>
	<g>
		<polygon fill="#414042" points="318.7,148.9 283.1,267.5 307.8,263 343.4,144.4 		"/>
		<path fill="#FFFFFF" d="M280.3,270.1l36.8-122.9l29.1-5.4l-36.9,122.9L280.3,270.1z M320.3,150.7L286,265l20.3-3.7L340.6,147
			L320.3,150.7z"/>
	</g>
	<g>
		<polygon fill="#414042" points="342.2,148.9 377.8,267.5 353.1,263 317.5,144.4 		"/>
		<path fill="#FFFFFF" d="M380.7,270.1l-29.1-5.4l-36.9-122.9l29.2,5.4L380.7,270.1z M354.7,261.2l20.3,3.7l-34.3-114.3l-20.3-3.7
			L354.7,261.2z"/>
	</g>
	<path fill="#F7931D" d="M382.4,146.9c0-1.4-4-2.6-10.7-3.6c6.5-2.2,10.2-4.1,10-5.4c-0.2-1.3-4.4-1.9-11.2-1.7
		c6-3.2,9.3-5.8,8.9-7.1c-0.5-1.3-4.7-1.1-11.3,0.3c5.3-4.2,8.2-7.3,7.5-8.5s-4.8-0.2-11.1,2.3c4.5-5.1,6.8-8.6,5.9-9.7
		s-4.7,0.6-10.5,4.1c3.6-5.8,5.2-9.7,4.1-10.5c-1-0.9-4.6,1.4-9.7,5.9c2.5-6.3,3.4-10.4,2.3-11.1c-1.2-0.7-4.3,2.2-8.5,7.5
		c1.4-6.7,1.6-10.9,0.3-11.3c-1.3-0.5-3.8,2.9-7.1,8.9c0.2-6.8-0.3-11-1.7-11.2c-1.3-0.2-3.3,3.5-5.4,10c-0.2-1.7-0.5-3.2-0.8-4.5
		c-0.2-0.8-0.3-1.5-0.5-2.2c-0.7-2.6-1.5-4.1-2.3-4.1l0,0l0,0c-1.4,0-2.6,4-3.6,10.7c-2.2-6.5-4.1-10.2-5.4-10s-1.9,4.4-1.7,11.2
		c-3.2-6-5.8-9.3-7.1-8.9c-1.3,0.5-1.1,4.7,0.3,11.3c-4.2-5.3-7.3-8.2-8.5-7.5s-0.2,4.8,2.3,11.1c-5.1-4.5-8.6-6.8-9.7-5.9
		c-1,0.9,0.6,4.7,4.1,10.5c-5.8-3.6-9.7-5.2-10.5-4.1c-0.9,1,1.4,4.6,5.9,9.7c-6.3-2.5-10.4-3.4-11.1-2.3s2.2,4.3,7.5,8.5
		c-6.7-1.4-10.9-1.6-11.3-0.3c-0.5,1.3,2.9,3.8,8.9,7.1c-6.8-0.2-11,0.3-11.2,1.7c-0.2,1.3,3.5,3.3,10,5.4c-6.7,1-10.7,2.2-10.7,3.6
		c0,1.4,4,2.6,10.7,3.6c-6.5,2.2-10.2,4.1-10,5.4c0.2,1.3,4.4,1.9,11.2,1.7c-6,3.2-9.3,5.8-8.9,7.1c0.5,1.3,4.7,1.1,11.3-0.3
		c-5.3,4.2-8.2,7.3-7.5,8.5s4.8,0.2,11.1-2.3c-4.5,5.1-6.8,8.6-5.9,9.7c0.9,1,4.7-0.6,10.5-4.1c-3.6,5.8-5.2,9.7-4.1,10.5
		c1,0.9,4.6-1.4,9.7-5.9c-2.5,6.3-3.4,10.4-2.3,11.1s4.3-2.2,8.5-7.5c-1.4,6.7-1.6,10.9-0.3,11.3c1.3,0.5,3.8-2.9,7.1-8.9
		c-0.2,6.8,0.3,11,1.7,11.2c1.3,0.2,3.3-3.5,5.4-10c1,6.7,2.2,10.7,3.6,10.7l0,0l0,0c0.8,0,1.6-1.5,2.3-4.1c0.2-0.7,0.3-1.4,0.5-2.2
		c0.3-1.3,0.5-2.8,0.8-4.5c2.2,6.5,4.1,10.2,5.4,10s1.9-4.4,1.7-11.2c3.2,6,5.8,9.3,7.1,8.9c1.3-0.5,1.1-4.7-0.3-11.3
		c4.2,5.3,7.3,8.2,8.5,7.5s0.2-4.8-2.3-11.1c5.1,4.5,8.6,6.8,9.7,5.9c1-0.9-0.6-4.7-4.1-10.5c5.8,3.6,9.7,5.2,10.5,4.1
		c0.9-1-1.4-4.6-5.9-9.7c6.3,2.5,10.4,3.4,11.1,2.3c0.7-1.2-2.2-4.3-7.5-8.5c6.7,1.4,10.9,1.6,11.3,0.3c0.5-1.3-2.9-3.8-8.9-7.1
		c6.8,0.2,11-0.3,11.2-1.7c0.2-1.3-3.5-3.3-10-5.4C378.4,149.5,382.4,148.3,382.4,146.9z"/>
	<circle fill="#FFFFFF" cx="330.4" cy="147.1" r="39.8"/>
	<g>
		<path fill="#414042" d="M329.6,175.8v-38.5h-13.9v-5.1c1.8,0,3.6-0.1,5.3-0.4c1.7-0.3,3.3-0.8,4.7-1.6c1.4-0.8,2.6-1.8,3.5-3.1
			c1-1.3,1.6-3,2-5h4.9v53.7H329.6L329.6,175.8z"/>
	</g>
</g>
<g>
	<path fill="#404041" d="M197.2,399.8c0.4,1.1,0.9,2.1,1.7,2.9c0.7,0.8,1.7,1.4,2.8,1.9c1.1,0.4,2.3,0.7,3.7,0.7
		c1.2,0,2.3-0.2,3.3-0.5c1.1-0.3,2-0.8,2.8-1.5c0.8-0.7,1.5-1.5,2-2.4c0.5-1,0.7-2,0.7-3.3c0-1.3-0.2-2.3-0.6-3.2
		c-0.4-0.9-1-1.7-1.8-2.3c-0.8-0.6-1.6-1.1-2.6-1.4c-1-0.3-2.1-0.4-3.2-0.4h-2.6v-2.6h2.6c0.8,0,1.6-0.1,2.4-0.4
		c0.8-0.2,1.6-0.6,2.3-1.1c0.7-0.5,1.2-1.2,1.7-1.9c0.4-0.8,0.6-1.7,0.6-2.8c0-1.2-0.2-2.1-0.6-2.9c-0.4-0.8-0.9-1.5-1.6-2
		c-0.7-0.5-1.5-0.9-2.4-1.2c-0.9-0.2-1.9-0.4-2.9-0.4c-1.3,0-2.4,0.2-3.4,0.6c-1,0.4-1.8,1-2.5,1.8c-0.7,0.8-1.2,1.7-1.5,2.8
		c-0.3,1.1-0.5,2.2-0.4,3.5h-3.1c0-1.6,0.3-3.2,0.8-4.5c0.5-1.4,1.2-2.6,2.2-3.6c0.9-1,2.1-1.8,3.4-2.4c1.3-0.6,2.9-0.9,4.5-0.9
		c1.3,0,2.7,0.2,3.9,0.5c1.3,0.3,2.4,0.9,3.4,1.6s1.8,1.6,2.4,2.7c0.6,1.1,0.9,2.4,0.9,4c0,1.9-0.5,3.5-1.5,4.9
		c-1,1.4-2.4,2.3-4.3,2.8v0.1c2.3,0.4,4,1.3,5.3,2.8c1.2,1.5,1.9,3.4,1.9,5.7c0,1.7-0.3,3.2-1,4.5c-0.6,1.3-1.5,2.4-2.6,3.3
		c-1.1,0.9-2.4,1.6-3.8,2c-1.4,0.4-3,0.7-4.5,0.7c-1.8,0-3.4-0.3-4.9-0.8c-1.5-0.5-2.8-1.3-3.8-2.3c-1.1-1-1.9-2.2-2.4-3.7
		c-0.5-1.4-0.7-3.1-0.6-5h3.1C196.7,397.4,196.9,398.7,197.2,399.8z"/>
	<path fill="#404041" d="M241.6,371.8l11.7,30.9l12.1-30.9h4.9v35.2H267v-30.5h-0.1l-12,30.5h-3.2l-11.6-30.5H240v30.5h-3.4v-35.2
		H241.6z"/>
	<path fill="#404041" d="M279.8,371.8v5h-3.1v-5H279.8z M279.8,381.6v25.5h-3.1v-25.5H279.8z"/>
	<path fill="#404041" d="M288.9,381.6v4.4h0.1c0.6-1.5,1.6-2.8,3.2-3.7c1.5-0.9,3.2-1.4,5-1.4c1.8,0,3.3,0.2,4.5,0.7
		c1.2,0.5,2.2,1.1,2.9,1.9c0.7,0.8,1.2,1.9,1.5,3.1c0.3,1.2,0.4,2.6,0.4,4.1v16.4h-3.1v-15.9c0-1.1-0.1-2.1-0.3-3
		c-0.2-0.9-0.5-1.8-1-2.4c-0.5-0.7-1.2-1.2-2-1.6c-0.8-0.4-1.9-0.6-3.1-0.6s-2.4,0.2-3.3,0.7c-1,0.4-1.8,1.1-2.5,1.8
		c-0.7,0.8-1.2,1.7-1.6,2.8c-0.4,1.1-0.6,2.2-0.6,3.5v14.9h-3.1v-25.5H288.9z"/>
</g>
<g>
	<path fill="#F69220" d="M250,475C126.6,475,25,373.4,25,250S126.6,25,250,25s225,101.6,225,225S373.4,475,250,475z M250,32.8
		C131.2,32.8,32.8,131.2,32.8,250S131.2,467.2,250,467.2S467.2,368.8,467.2,250S368.8,32.8,250,32.8z"/>
</g>
<polygon fill="#414141" points="87.5,176.6 146.9,198.4 146.9,259.4 87.5,281.2 "/>
</svg>
