<?xml version="1.0" encoding="utf-8"?>
<!-- Generator: Adobe Illustrator 18.1.1, SVG Export Plug-In . SVG Version: 6.00 Build 0)  -->
<svg version="1.1" id="Layer_1" xmlns="http://www.w3.org/2000/svg" xmlns:xlink="http://www.w3.org/1999/xlink" x="0px" y="0px"
	 viewBox="0 0 500 500" enable-background="new 0 0 500 500" xml:space="preserve">
<path fill="#F7931D" d="M250,475C125.9,475,25,374.1,25,250S125.9,25,250,25s225,100.9,225,225S374.1,475,250,475z M250,33.2
	C130.5,33.2,33.2,130.5,33.2,250S130.5,466.8,250,466.8S466.8,369.5,466.8,250S369.5,33.2,250,33.2z"/>
<g>

	
</g>
<path fill="#404041" d="M245.3,348c-0.2,0-0.5-0.1-0.7-0.2l-9.4-6.3l-7.2,2.1l-15.1-5.6l-27.1,1.2c-0.3,0-0.6-0.1-0.9-0.3
	c-0.2-0.2-0.4-0.6-0.4-0.9v-15.4l10.6-27.9l-27.4-7.4l-10.5-11.4c-0.2-0.3-0.4-0.7-0.3-1.1l1.1-6.6l-5.5-13.7
	c-0.1-0.3-0.1-0.6,0.1-0.9l4.1-8.3l-5.2-9.3l-0.2-42.5c0-0.4,0.2-0.7,0.4-0.9c0.2-0.2,0.5-0.3,0.8-0.3c0,0,11.6,1.1,11.6,1.1l9-13
	l-8.2-10.3c-0.2-0.3-0.3-0.6-0.3-0.9c0.1-0.4,0.3-0.6,0.5-0.9l6.2-4.1l3.2-17.1c0.1-0.6,0.6-1,1.2-1c0.1,0,6.2,0.7,6.2,0.7l-7-6.3
	c-0.4-0.4-0.5-1-0.2-1.5l4.4-7.7c0.2-0.4,0.5-0.6,0.9-0.6l9.9-1.1l6.9,1.1c0.5,0.1,0.9,0.4,1,0.9l1.8,6.4l6.4-2.8
	c0.1-0.1,0.3-0.1,0.5-0.1c0.2,0,0.3,0,0.5,0.1c0.3,0.1,0.5,0.4,0.7,0.6l0.5,1.1l-0.6-9.4c0-0.6,0.4-1.1,0.9-1.2l9.6-2.9l-9.2-16.3
	c-0.3-0.5-0.2-1.2,0.2-1.5l7-6l-7.3-14.6c-0.2-0.4-0.2-0.9,0.1-1.3c0.2-0.3,0.6-0.5,1-0.5c0,0,18.9,2.2,18.9,2.2l6.9,2.3
	c0.5,0.1,0.8,0.6,0.8,1.1v11l3.8,4.3l20.5,1.1c0.4,0,0.8,0.2,1,0.6c0.2,0.4,0.2,0.8,0,1.1l-5.8,12.6h13.5l24.6-18.5
	c0.2-0.2,0.5-0.2,0.7-0.2c0.3,0,0.6,0.1,0.8,0.3c0.5,0.4,0.5,1.1,0.2,1.6l-2.3,3.5l8.6-3.1c0.2,0,0.3-0.1,0.4-0.1
	c0.3,0,0.6,0.1,0.8,0.3l26.5,23.2l4.8,17.1l-4.2,17.5l4.9,3.9c0.2,0.2,0.4,0.5,0.5,0.8l4.4,37.5l6.4,8.3c0.2,0.3,0.3,0.7,0.2,1
	l-4.4,18.8c-0.1,0.4-0.4,0.8-0.8,0.9c-0.1,0-0.2,0.1-0.3,0.1c-0.3,0-0.6-0.1-0.8-0.4l-9.3-8.3l-0.8,6.5c-0.1,0.4-0.3,0.7-0.6,0.9
	l-39.8,24.3c-0.2,0.1-0.4,0.2-0.6,0.2c-0.3,0-0.5-0.1-0.8-0.3l-2.6-2.2l10,22.8l27.3,25c0.2,0.2,0.4,0.6,0.4,0.9
	c0,0.3-0.2,0.7-0.5,0.9L304,318.6l2.1,19.2c0,0.5-0.2,1-0.7,1.2l-4.4,2.2c-0.2,0.1-0.4,0.1-0.6,0.1c-0.2,0-0.3,0-0.5-0.1l-10.6-4.2
	l-23.8,8.7l-14.3-4.2l-5,6C246,347.8,245.7,348,245.3,348"/>
<g>
	<g>
		<polygon fill="#414042" points="318.7,148.9 283.1,267.5 307.8,263 343.4,144.4 		"/>
		<path fill="#FFFFFF" d="M280.3,270.1l36.8-122.9l29.1-5.4l-36.9,122.9L280.3,270.1z M320.3,150.7L286,265l20.3-3.7L340.6,147
			L320.3,150.7z"/>
	</g>
	<g>
		<polygon fill="#414042" points="342.2,148.9 377.8,267.5 353.1,263 317.5,144.4 		"/>
		<path fill="#FFFFFF" d="M380.7,270.1l-29.1-5.4l-36.9-122.9l29.2,5.4L380.7,270.1z M354.7,261.2l20.3,3.7l-34.3-114.3l-20.3-3.7
			L354.7,261.2z"/>
	</g>
	<path fill="#F7931D" d="M382.4,146.9c0-1.4-4-2.6-10.7-3.6c6.5-2.2,10.2-4.1,10-5.4c-0.2-1.3-4.4-1.9-11.2-1.7
		c6-3.2,9.3-5.8,8.9-7.1c-0.5-1.3-4.7-1.1-11.3,0.3c5.3-4.2,8.2-7.3,7.5-8.5s-4.8-0.2-11.1,2.3c4.5-5.1,6.8-8.6,5.9-9.7
		s-4.7,0.6-10.5,4.1c3.6-5.8,5.2-9.7,4.1-10.5c-1-0.9-4.6,1.4-9.7,5.9c2.5-6.3,3.4-10.4,2.3-11.1c-1.2-0.7-4.3,2.2-8.5,7.5
		c1.4-6.7,1.6-10.9,0.3-11.3c-1.3-0.5-3.8,2.9-7.1,8.9c0.2-6.8-0.3-11-1.7-11.2c-1.3-0.2-3.3,3.5-5.4,10c-0.2-1.7-0.5-3.2-0.8-4.5
		c-0.2-0.8-0.3-1.5-0.5-2.2c-0.7-2.6-1.5-4.1-2.3-4.1l0,0l0,0c-1.4,0-2.6,4-3.6,10.7c-2.2-6.5-4.1-10.2-5.4-10s-1.9,4.4-1.7,11.2
		c-3.2-6-5.8-9.3-7.1-8.9c-1.3,0.5-1.1,4.7,0.3,11.3c-4.2-5.3-7.3-8.2-8.5-7.5s-0.2,4.8,2.3,11.1c-5.1-4.5-8.6-6.8-9.7-5.9
		c-1,0.9,0.6,4.7,4.1,10.5c-5.8-3.6-9.7-5.2-10.5-4.1c-0.9,1,1.4,4.6,5.9,9.7c-6.3-2.5-10.4-3.4-11.1-2.3c-0.7,1.1,2.2,4.3,7.5,8.5
		c-6.7-1.4-10.9-1.6-11.3-0.3c-0.5,1.3,2.9,3.8,8.9,7.1c-6.8-0.2-11,0.3-11.2,1.7c-0.2,1.3,3.5,3.3,10,5.4c-6.7,1-10.7,2.2-10.7,3.6
		c0,1.4,4,2.6,10.7,3.6c-6.5,2.2-10.2,4.1-10,5.4c0.2,1.3,4.4,1.9,11.2,1.7c-6,3.2-9.3,5.8-8.9,7.1c0.5,1.3,4.7,1.1,11.3-0.3
		c-5.3,4.2-8.2,7.3-7.5,8.5s4.8,0.2,11.1-2.3c-4.5,5.1-6.8,8.6-5.9,9.7c0.9,1,4.7-0.6,10.5-4.1c-3.6,5.8-5.2,9.7-4.1,10.5
		c1,0.9,4.6-1.4,9.7-5.9c-2.5,6.3-3.4,10.4-2.3,11.1s4.3-2.2,8.5-7.5c-1.4,6.7-1.6,10.9-0.3,11.3c1.3,0.5,3.8-2.9,7.1-8.9
		c-0.2,6.8,0.3,11,1.7,11.2c1.3,0.2,3.3-3.5,5.4-10c1,6.7,2.2,10.7,3.6,10.7l0,0l0,0c0.8,0,1.6-1.5,2.3-4.1c0.2-0.7,0.3-1.4,0.5-2.2
		c0.3-1.3,0.5-2.8,0.8-4.5c2.2,6.5,4.1,10.2,5.4,10s1.9-4.4,1.7-11.2c3.2,6,5.8,9.3,7.1,8.9c1.3-0.5,1.1-4.7-0.3-11.3
		c4.2,5.3,7.3,8.2,8.5,7.5s0.2-4.8-2.3-11.1c5.1,4.5,8.6,6.8,9.7,5.9c1-0.9-0.6-4.7-4.1-10.5c5.8,3.6,9.7,5.2,10.5,4.1
		c0.9-1-1.4-4.6-5.9-9.7c6.3,2.5,10.4,3.4,11.1,2.3c0.7-1.2-2.2-4.3-7.5-8.5c6.7,1.4,10.9,1.6,11.3,0.3c0.5-1.3-2.9-3.8-8.9-7.1
		c6.8,0.2,11-0.3,11.2-1.7c0.2-1.3-3.5-3.3-10-5.4C378.4,149.5,382.4,148.3,382.4,146.9z"/>
	<circle fill="#FFFFFF" cx="330.4" cy="147.1" r="39.8"/>
	<g>
	</g>
</g>
</svg>
