<?xml version="1.0" encoding="utf-8"?>
<!-- Generator: Adobe Illustrator 18.1.1, SVG Export Plug-In . SVG Version: 6.00 Build 0)  -->
<svg version="1.1" id="Layer_1" xmlns="http://www.w3.org/2000/svg" xmlns:xlink="http://www.w3.org/1999/xlink" x="0px" y="0px"
	 viewBox="0 0 500 500" enable-background="new 0 0 500 500" xml:space="preserve">
<path fill="#F6921E" d="M250,475C125.9,475,25,374.1,25,250C25,125.9,125.9,25,250,25c124.1,0,225,100.9,225,225
	C475,374.1,374.1,475,250,475z M250,33.2C130.5,33.2,33.2,130.5,33.2,250c0,119.5,97.3,216.8,216.8,216.8
	c119.5,0,216.8-97.3,216.8-216.8C466.8,130.5,369.5,33.2,250,33.2z"/>
<path fill="#414042" d="M262.1,181.6c4.4,15-10,18.3-5,24.3c6.1,7.7,15,3.3,16,18.8v60.3c-0.6,6.6-0.6,6.6-11,6.6v25h-24.3v-24.9
	c-11,0-11.6,0.6-11.6-5.6v-60.3c0-16,12.2-13.3,15.5-19.3c5-7.7-9.4-7.7-3.9-24.9C240.5,173.9,257.2,171.7,262.1,181.6 M201.3,187.1
	c-6.1,6.1-16.6,20.5-10,32.6c13.9,4.4,12.7-38.8,29.3-38.2c8.3,7.2-2.7,27.7-6.1,36.5c-4.4,11-7.7,34.3-15.5,45.9
	c-6.6,9.4-1.7,38.8-3.9,49.2c-5.6,5-20.5,1.7-27.1,0.6c0-11.6-1.7-21-3.9-39.9c-0.6-3.9-4.4-61.5-1.1-68.6
	c7.2-14.4,47.1-42.1,52.6-47.6c5-4.3,21.6-20.3,28.3-20.3c4.4,2.7,1.7,9.4,0.6,12.2C238.4,164.4,210.6,178.8,201.3,187.1
	 M298.7,187.1c6.1,6.1,16.6,20.5,10,32.6c-13.9,4.4-12.7-38.8-29.3-38.2c-8.3,7.2,2.7,27.7,6.1,36.5c4.4,11,7.7,34.3,15.5,45.9
	c6.6,9.4,1.7,38.8,3.9,49.2c5.6,5,20.5,1.7,27.1,0.6c0-11.6,1.7-21,3.9-39.9c0.6-3.9,4.4-61.5,1.1-68.6
	c-7.2-14.4-47.1-42.1-52.6-47.6c-5.6-3.9-22.2-19.9-28.2-19.9c-4.4,2.7-1.7,9.4-0.6,12.2C261.6,165,289.3,179.4,298.7,187.1"/>
<path fill="#414042" d="M144.8,167.8c-3.3,3.3-11.6,5-16.6,11.6c-2.2-3.9,3.3-12.2,10-17.2c4.4-3.9,13.9-9.4,16.6-10
	C157,156.7,149.8,163.4,144.8,167.8 M134.3,191c-6.1,5-12.2,7.2-20.5,16.6c-3.3-11-2.7-21-1.1-27.7c2.7-8.9,7.7-18.3,16-21.6
	c-1.7,5-4.4,11.6-5,21c-3.3,12.7-5.6,12.7-4.4,15c0.6,0,5.6-6.6,11-11.6c6.6-6.1,15-7.2,20.5-11C149.2,173.9,144.3,181.6,134.3,191
	 M104.9,243.1c-8.3-13.3-8.9-22.7-9.4-33.8c0.6-7.7,4.4-25.5,10.5-28.2c-1.7,16,2.7,17.7,1.1,31c0,0.6-2.2,14.4-2.2,15.5
	c2.2-0.6,0-12.7,28.8-30.5c-6.1,10-3.3,12.7-14.4,26C106.1,234.2,104.4,245.8,104.9,243.1 M116.1,256.4c-6.1,7.7-5,11.6-6.1,15.5
	c-14.4-7.7-30.5-37.6-24.3-52.6c3.9,11.6,8.9,13.9,12.7,23.3c6.6,14.4,5.6,18.3,9.4,21.6c-0.6-7.2,2.2-16,4.4-22.7
	c3.9-5.6,7.2-12.7,10-15C124.8,236.9,122.7,245.2,116.1,256.4 M128.8,281.8c0,11.6-2.2,16.6-3.3,24.9c-24.4-7.2-37.7-33.2-37.7-45.9
	c7.7,15.5,18.8,15.5,33.2,37.6c1.1-8.3-2.2-2.2-2.7-17.7c0.6-16.6,3.9-17.2,4.4-27.1C127.7,257.5,128.8,275.7,128.8,281.8
	 M149.2,314.4c1.7,8.3,2.7,18.3,3.9,26c-13.9-5-17.7-1.1-34.3-10.5c-7.7-3.9-21.6-19.9-20.5-31c16.6,16.6,19.9,15,27.7,21
	c7.7,5.6,13.9,13.9,18.8,12.7c0.6-4.4-12.2-14.4-10.5-42.6C138.1,292.3,147,305.6,149.2,314.4 M177.5,334.9
	c4.4,5.6,3.3,8.3,14.4,19.9c-2.7,1.1-18.8,5-29.3,5c-6.6,0-32.1-6.1-40.4-21.6c14.4,7.2,14.4,5,33.8,8.9c13.9,2.7,23.3,6.6,27.1,6.6
	c-0.6-1.7-11.6-5.6-18.8-13.9c-7.2-8.9-5.6-18.8-12.2-26C157,312.3,174.1,330.6,177.5,334.9"/>
<path fill="#414042" d="M355.2,167.8c3.3,3.3,11.6,5,16.6,11.6c2.2-3.9-3.3-12.2-10-17.2c-4.4-3.9-13.9-9.4-16.6-10
	C343.5,156.7,350.8,163.4,355.2,167.8 M366.2,192.1c6.1,5,12.2,7.2,20.5,16.6c3.3-11,2.7-21,1.1-27.7c-2.7-8.9-7.7-18.3-16-21.6
	c1.7,5,4.4,11.6,5,21c3.3,12.7,5.6,12.7,4.4,15c-0.6,0-5.6-6.6-11-11.6c-6.6-6.1-15-7.2-20.5-11C351.2,175,356.2,182.7,366.2,192.1
	 M395,244.2c8.3-13.3,8.9-22.7,9.4-33.8c-0.6-7.7-4.4-25.5-10.5-28.2c1.7,16-2.7,17.7-1.1,31c0,0.6,2.2,14.4,2.2,15.5
	c-2.2-0.6,0-12.7-28.8-30.5c6.1,10,3.3,12.7,14.4,26C393.9,235.3,396.1,246.9,395,244.2 M383.9,256.4c6.1,7.7,5,11.6,6.1,15.5
	c14.4-7.7,30.5-37.6,24.3-52.6c-3.9,11.6-8.9,13.9-12.7,23.3c-6.6,14.4-5.6,18.3-9.4,21.6c0.6-7.2-2.2-16-4.4-22.7
	c-3.9-5.6-7.2-12.7-10-15C375.1,237.5,377.3,245.8,383.9,256.4 M370.7,282.4c0,11.6,2.2,16.6,3.3,24.9c24.3-7.2,37.6-33.2,37.6-45.9
	c-7.7,15.5-18.3,15.5-32.6,37.1c-1.1-8.3,2.2-2.2,2.7-17.7c-0.6-16.6-3.9-17.2-4.4-27.1C372.3,258.5,370.7,276.3,370.7,282.4
	 M350.2,314.4c-1.7,8.3-2.7,18.3-3.9,26c13.9-5,17.7-1.1,34.3-10.5c7.7-3.9,21.6-19.9,20.5-31c-16.6,16.6-19.9,15-27.7,21
	c-7.7,5.6-13.9,13.9-18.8,12.7c-0.6-4.4,12.2-14.4,10.5-42.6C361.8,292.3,352.9,305.6,350.2,314.4 M323,334.9
	c-4.4,5.6-3.3,8.3-14.4,19.9c2.7,1.1,18.8,5,29.3,5c6.6,0,32.1-6.1,40.4-21.6c-14.4,7.2-14.4,5-33.8,8.9
	c-13.9,2.7-23.3,6.6-27.1,6.6c0.6-1.7,11.6-5.6,18.8-13.9c7.2-8.9,5.6-18.8,12.2-26C343.5,312.8,326.3,331,323,334.9"/>
<path fill="#414042" d="M215.6,388.6l-3.9-2.2c0,0,26-29.3,71.4-27.1s42.1,12.2,66.4,10.5c2.7,0-2.2,3.3-2.2,3.3s-23.3,8.3-52.6-0.6
	C265.5,363.2,246.1,357.6,215.6,388.6"/>
<path fill="#414042" d="M287.1,388.6l3.9-2.2c0,0-26-29.3-71.4-27.1s-42.1,12.2-66.4,10.5c-2.7,0,2.2,3.3,2.2,3.3s23.8,8.3,52.6-0.6
	C237.2,363.2,256.1,357.6,287.1,388.6"/>
</svg>
