<svg xmlns="http://www.w3.org/2000/svg" viewBox="0 0 164.78 164.78"><defs><style>.cls-1,.cls-2,.cls-3,.cls-5{fill:none;}.cls-1{stroke:#f39200;stroke-width:3px;}.cls-1,.cls-2,.cls-3{stroke-miterlimit:10;}.cls-2,.cls-3,.cls-5{stroke:#3c3c3b;}.cls-2{stroke-width:1.83px;}.cls-3,.cls-5{stroke-width:5.48px;}.cls-4,.cls-7{fill:#3c3c3b;}.cls-5{stroke-linecap:round;stroke-linejoin:round;}.cls-6{fill:#fff;}.cls-7{font-size:18px;font-family:HelveticaNeue-Light, Helvetica Neue;}</style></defs><title>Element 1</title><g id="Ebene_2" data-name="Ebene 2"><g id="Layer_1" data-name="Layer 1"><circle class="cls-1" cx="82.39" cy="82.39" r="80.89"/><path class="cls-2" d="M105.88,107.35H44a6,6,0,0,0-6-6V75.17a6,6,0,0,0,6-6h61.91a6,6,0,0,0,6,6v26.19A6,6,0,0,0,105.88,107.35Z"/><rect class="cls-3" x="30.5" y="62.55" width="88.84" height="51.42" rx="3" ry="3"/><circle class="cls-4" cx="74.92" cy="88.77" r="15.02"/><circle class="cls-2" cx="50.93" cy="88.77" r="5.17"/><circle class="cls-2" cx="98.92" cy="88.77" r="5.17"/><polyline class="cls-5" points="47.91 48.23 134.19 48.23 134.19 97.94"/><polyline class="cls-5" points="40.6 55.54 126.88 55.54 126.88 105.25"/><path class="cls-6" d="M79.23,95.89a6.32,6.32,0,0,1-3.49,1A6.15,6.15,0,0,1,71,94.79a7.23,7.23,0,0,1-1.69-4H67.84V89.61h1.34v-.35c0-.38,0-.73,0-1.06H67.84V87h1.55a7.44,7.44,0,0,1,1.92-4A6.18,6.18,0,0,1,76,81.12a6.64,6.64,0,0,1,3.12.75l-.47,1.55A5.39,5.39,0,0,0,76,82.76a4.08,4.08,0,0,0-3.09,1.29,5.54,5.54,0,0,0-1.41,3H78V88.2H71.26c0,.31,0,.66,0,1v.42H78v1.15H71.38a5.63,5.63,0,0,0,1.29,3.07A4.46,4.46,0,0,0,76,95.19a6.07,6.07,0,0,0,2.86-.77Z"/><text class="cls-7" transform="translate(42.21 139.14)">107.999 €</text></g></g></svg>