<svg xmlns="http://www.w3.org/2000/svg" viewBox="0 0 164.78 164.78"><defs><style>.cls-1,.cls-4{fill:none;stroke-miterlimit:10;}.cls-1{stroke:#f39200;stroke-width:3px;}.cls-2,.cls-5{fill:#3c3c3b;}.cls-3{fill:#fff;}.cls-4{stroke:#be1622;stroke-width:0.2px;}.cls-5{font-size:18px;font-family:HelveticaNeue-Light, Helvetica Neue;}</style></defs><title>Element 2</title><g id="Ebene_2" data-name="Ebene 2"><g id="Layer_1" data-name="Layer 1"><text></text><circle class="cls-1" cx="82.39" cy="82.39" r="80.89"/><polygon class="cls-2" points="94.21 52.17 68.82 52.17 36.61 115.55 127.83 115.55 94.21 52.17"/><polygon class="cls-2" points="66.74 52.17 63.8 52.17 22.54 115.55 33.53 115.55 66.74 52.17"/><polygon class="cls-2" points="96.43 52.17 99.37 52.17 142.24 115.55 131.25 115.55 96.43 52.17"/><polygon class="cls-3" points="89.26 95.03 75.18 95.03 71.96 115.55 92.48 115.55 89.26 95.03"/><polygon class="cls-3" points="86.06 77.32 78.43 77.32 75.87 91.74 88.57 91.74 86.06 77.32"/><polygon class="cls-3" points="84.41 65.86 80.03 65.86 78.57 75.07 85.87 75.07 84.41 65.86"/><polygon class="cls-3" points="83.42 58.51 81.02 58.51 80.19 63.92 84.25 63.92 83.42 58.51"/><polygon class="cls-3" points="82.67 53.42 81.77 53.42 81.05 57.35 83.39 57.35 82.67 53.42"/><path class="cls-4" d="M82.22,52.17"/><path class="cls-4" d="M72,115.55"/><path class="cls-4" d="M82.22,52.17"/><path class="cls-4" d="M92.48,115.55"/><text class="cls-5" transform="translate(35.69 139.14)">104.924 km</text></g></g></svg>