<?xml version="1.0" encoding="utf-8"?>
<!-- Generator: Adobe Illustrator 19.0.1, SVG Export Plug-In . SVG Version: 6.00 Build 0)  -->
<svg version="1.1" id="Layer_1" xmlns="http://www.w3.org/2000/svg" xmlns:xlink="http://www.w3.org/1999/xlink" x="0px" y="0px"
	 viewBox="0 0 1000 500" enable-background="new 0 0 1000 500" xml:space="preserve">
<path fill="#F7931D" d="M500,475c-124.1,0-225-100.9-225-225S375.9,25,500,25s225,100.9,225,225S624.1,475,500,475z M500,33.2
	c-119.5,0-216.8,97.3-216.8,216.8S380.5,466.8,500,466.8S716.8,369.5,716.8,250S619.5,33.2,500,33.2z"/>
<circle fill="#414042" cx="426.3" cy="164.4" r="33.4"/>
<path fill="#414042" d="M600.6,209.8h-201c-21.5,0-39,17.5-39,39v90.9c0,1.7,1.4,3.1,3.1,3.1h272.7c1.7,0,3.1-1.4,3.1-3.1v-90.9
	C639.5,227.2,622.1,209.8,600.6,209.8z"/>
<rect x="493.3" y="244.8" fill="#FFFFFF" width="13.6" height="99"/>
<path fill="#FFFFFF" d="M625.5,241.6l22.4-15.7c1.2-0.8,2.8-0.6,3.7,0.6l0,0c0.8,1.2,0.6,2.8-0.6,3.7l-22.4,15.7
	c-1.2,0.8-2.8,0.6-3.7-0.6l0,0C624.1,244,624.4,242.5,625.5,241.6z"/>
<path fill="#FFFFFF" d="M621.3,235.5l22.4-15.7c1.2-0.8,2.8-0.6,3.7,0.6l0,0c0.8,1.2,0.6,2.8-0.6,3.7l-22.4,15.7
	c-1.2,0.8-2.8,0.6-3.7-0.6l0,0C619.7,238,620,236.3,621.3,235.5z"/>
<path fill="#FFFFFF" d="M616.8,229.1l22.4-15.7c1.2-0.8,2.8-0.6,3.7,0.6l0,0c0.8,1.2,0.6,2.8-0.6,3.7l-22.4,15.7
	c-1.2,0.8-2.8,0.6-3.7-0.6l0,0C615.4,231.6,615.7,230,616.8,229.1z"/>
<path fill="#FFFFFF" d="M612.5,223l22.4-15.7c1.2-0.8,2.8-0.6,3.7,0.6l0,0c0.8,1.2,0.6,2.8-0.6,3.7l-22.4,15.7
	c-1.2,0.8-2.8,0.6-3.7-0.6l0,0C611,225.5,611.3,223.9,612.5,223z"/>
<polygon fill="#FFFFFF" points="426.3,232.1 426.3,232.1 406,208.7 446.5,208.7 "/>
<polygon fill="#FFFFFF" points="574.4,232.1 574.4,232.1 554.1,208.7 594.6,208.7 "/>
<circle fill="#414042" cx="574.4" cy="164.4" r="33.4"/>
<g>
	<path fill="#414042" d="M421.9,370.9v2.8c-1.1,1.1-2.3,2.6-3.8,4.4c-1.5,1.8-2.9,4-4.3,6.6s-2.6,5.4-3.6,8.7s-1.7,6.8-1.8,10.7
		h-3.3c0.2-2.8,0.6-5.5,1.2-8.1c0.6-2.5,1.4-5,2.5-7.4c1.1-2.4,2.5-4.8,4.1-7.3c1.6-2.4,3.6-5,6-7.6h-18.6v-2.8H421.9z"/>
	<path fill="#414042" d="M432.3,400.5c1.2,1.2,2.8,1.7,4.8,1.7c2,0,3.6-0.5,4.8-1.5s2.1-2.2,2.8-3.7c0.7-1.5,1.1-3.1,1.3-4.9
		c0.2-1.7,0.3-3.4,0.3-4.9h-0.1c-0.8,1.7-2,3-3.6,4c-1.6,1-3.4,1.5-5.3,1.5c-1.7,0-3.2-0.3-4.6-0.8c-1.4-0.6-2.5-1.3-3.5-2.3
		c-1-1-1.7-2.2-2.2-3.6c-0.5-1.4-0.8-2.9-0.8-4.5s0.3-3.1,0.8-4.5c0.6-1.4,1.3-2.6,2.4-3.6c1-1,2.2-1.8,3.6-2.4
		c1.4-0.6,2.9-0.9,4.6-0.9c2,0,3.8,0.3,5.3,0.9c1.5,0.6,2.7,1.6,3.6,3.1c1,1.4,1.7,3.3,2.1,5.5c0.5,2.3,0.7,5,0.7,8.3
		c0,0.7,0,1.6-0.1,2.6c-0.1,1.1-0.3,2.2-0.6,3.5c-0.3,1.2-0.7,2.5-1.2,3.7c-0.5,1.3-1.2,2.4-2.1,3.4s-2,1.8-3.3,2.5s-2.9,1-4.7,1
		c-3,0-5.4-0.7-7.2-2.1c-1.8-1.4-2.8-3.6-3.2-6.6h3C430.3,397.9,431.1,399.4,432.3,400.5z M440.9,389.6c1-0.5,1.9-1.1,2.6-1.9
		c0.7-0.8,1.3-1.7,1.6-2.8c0.4-1.1,0.6-2.2,0.6-3.5c0-1.2-0.2-2.3-0.5-3.4s-0.8-2-1.5-2.7c-0.7-0.8-1.6-1.4-2.6-1.8
		c-1.1-0.4-2.3-0.7-3.8-0.7c-1.2,0-2.3,0.2-3.3,0.7c-1,0.5-1.8,1.1-2.6,1.9c-0.7,0.8-1.3,1.7-1.7,2.8c-0.4,1.1-0.6,2.2-0.6,3.3
		c0,1.2,0.2,2.4,0.6,3.5c0.4,1.1,0.9,2,1.6,2.8c0.7,0.8,1.5,1.4,2.5,1.9s2.2,0.7,3.4,0.7C438.7,390.2,439.8,390,440.9,389.6z"/>
	<path fill="#414042" d="M491.5,369.8v2.8h-12v31.5h-3.3v-31.5h-11.9v-2.8H491.5z"/>
	<path fill="#414042" d="M491.1,395.9c0.3,1.2,0.8,2.2,1.5,3.1c0.7,0.9,1.5,1.7,2.5,2.3c1,0.6,2.3,0.9,3.7,0.9
		c2.2,0,3.9-0.6,5.2-1.7c1.2-1.2,2.1-2.7,2.6-4.6h3c-0.6,2.8-1.8,5-3.5,6.5c-1.7,1.5-4.1,2.3-7.3,2.3c-2,0-3.6-0.3-5.1-1
		c-1.4-0.7-2.6-1.6-3.5-2.8c-0.9-1.2-1.6-2.6-2-4.2c-0.4-1.6-0.6-3.3-0.6-5c0-1.6,0.2-3.2,0.6-4.8c0.4-1.6,1.1-3,2-4.2
		c0.9-1.2,2.1-2.2,3.5-3c1.4-0.8,3.1-1.1,5.1-1.1c2,0,3.7,0.4,5.1,1.2c1.4,0.8,2.6,1.8,3.4,3.1c0.9,1.3,1.5,2.8,1.9,4.5
		c0.4,1.7,0.5,3.4,0.5,5.1h-19.1C490.6,393.6,490.8,394.7,491.1,395.9z M506.1,386.6c-0.4-1.1-0.9-2-1.6-2.8c-0.7-0.8-1.5-1.5-2.4-2
		c-1-0.5-2-0.7-3.3-0.7c-1.2,0-2.4,0.2-3.3,0.7c-1,0.5-1.8,1.2-2.4,2c-0.7,0.8-1.2,1.8-1.6,2.8c-0.4,1.1-0.7,2.2-0.8,3.3h16
		C506.6,388.8,506.4,387.7,506.1,386.6z"/>
	<path fill="#414042" d="M514.4,383.1c0.5-1.1,1.2-1.9,2.1-2.6c0.9-0.7,1.9-1.2,3.1-1.5c1.2-0.3,2.5-0.5,3.9-0.5
		c1.1,0,2.2,0.1,3.3,0.3s2.1,0.6,2.9,1.2c0.9,0.6,1.6,1.4,2.1,2.4c0.5,1,0.8,2.4,0.8,4.1v13.2c0,1.2,0.6,1.8,1.8,1.8
		c0.4,0,0.7-0.1,1-0.2v2.5c-0.4,0.1-0.7,0.1-0.9,0.1c-0.3,0-0.6,0-1,0c-0.8,0-1.4-0.1-1.8-0.3s-0.8-0.5-1.1-0.9
		c-0.3-0.4-0.4-0.8-0.5-1.4c-0.1-0.5-0.1-1.1-0.1-1.8h-0.1c-0.5,0.8-1.1,1.5-1.7,2.1c-0.6,0.6-1.2,1.1-1.9,1.6
		c-0.7,0.4-1.5,0.7-2.4,1c-0.9,0.2-1.9,0.3-3.1,0.3c-1.2,0-2.2-0.1-3.2-0.4c-1-0.3-1.9-0.7-2.6-1.3c-0.8-0.6-1.3-1.3-1.8-2.3
		c-0.4-0.9-0.6-2-0.6-3.2c0-1.7,0.4-3.1,1.2-4.1c0.8-1,1.8-1.7,3-2.2c1.3-0.5,2.7-0.9,4.3-1.1c1.6-0.2,3.2-0.4,4.8-0.6
		c0.6-0.1,1.2-0.1,1.7-0.2c0.5-0.1,0.9-0.3,1.2-0.5c0.3-0.2,0.6-0.6,0.7-1c0.2-0.4,0.3-1,0.3-1.6c0-1-0.2-1.9-0.5-2.5
		c-0.3-0.7-0.8-1.2-1.4-1.6c-0.6-0.4-1.3-0.6-2.1-0.8c-0.8-0.1-1.6-0.2-2.5-0.2c-1.9,0-3.5,0.5-4.7,1.4c-1.2,0.9-1.9,2.4-1.9,4.4h-3
		C513.6,385.4,513.9,384.2,514.4,383.1z M529.5,390.5c-0.2,0.4-0.6,0.6-1.1,0.8s-1,0.3-1.4,0.3c-1.3,0.2-2.6,0.4-4,0.6
		c-1.4,0.2-2.6,0.4-3.7,0.8c-1.1,0.4-2,0.9-2.8,1.5c-0.7,0.7-1.1,1.6-1.1,2.8c0,0.8,0.2,1.4,0.5,2s0.7,1.1,1.2,1.5
		c0.5,0.4,1.1,0.8,1.8,1c0.7,0.2,1.4,0.3,2.1,0.3c1.2,0,2.3-0.2,3.3-0.5c1.1-0.4,2-0.9,2.8-1.5c0.8-0.7,1.4-1.5,1.9-2.4
		c0.5-1,0.7-2,0.7-3.3L529.5,390.5L529.5,390.5z"/>
	<path fill="#414042" d="M541.5,379.3v4.2h0.1c0.8-1.5,1.8-2.7,3.1-3.6c1.3-0.9,3-1.3,5-1.3c1.6,0,3.1,0.4,4.4,1.2
		c1.3,0.8,2.2,2,2.7,3.6c0.7-1.6,1.8-2.8,3.3-3.6c1.4-0.8,3-1.2,4.6-1.2c5.5,0,8.2,2.9,8.2,8.7v16.8h-3v-16.7c0-2-0.4-3.6-1.3-4.7
		s-2.4-1.6-4.6-1.6c-1.3,0-2.4,0.2-3.3,0.7c-0.9,0.5-1.6,1.2-2.1,2c-0.5,0.8-0.9,1.8-1.1,2.9c-0.2,1.1-0.3,2.2-0.3,3.3v14h-3v-16.8
		c0-0.8-0.1-1.6-0.3-2.4s-0.5-1.4-0.9-2s-0.9-1-1.6-1.3c-0.7-0.3-1.5-0.5-2.4-0.5c-1.3,0-2.4,0.2-3.3,0.7c-0.9,0.5-1.7,1.1-2.3,1.9
		c-0.6,0.8-1,1.8-1.3,2.9c-0.3,1.1-0.4,2.3-0.4,3.6v13.8h-3v-24.8H541.5z"/>
	<path fill="#414042" d="M592.9,384.1c-0.4-0.7-0.8-1.3-1.4-1.7c-0.6-0.4-1.3-0.8-2-1c-0.8-0.2-1.6-0.3-2.4-0.3
		c-0.7,0-1.4,0.1-2,0.2c-0.7,0.1-1.3,0.4-1.9,0.7s-1,0.8-1.4,1.3c-0.4,0.5-0.5,1.2-0.5,2c0,0.7,0.2,1.2,0.5,1.7s0.8,0.9,1.3,1.2
		c0.5,0.3,1.1,0.6,1.7,0.8c0.6,0.2,1.2,0.4,1.7,0.5l4,0.9c0.9,0.1,1.7,0.4,2.6,0.7c0.8,0.3,1.6,0.8,2.3,1.3c0.7,0.5,1.2,1.2,1.6,2
		s0.6,1.7,0.6,2.8c0,1.3-0.3,2.5-0.9,3.4c-0.6,0.9-1.4,1.7-2.3,2.3c-0.9,0.6-2,1-3.2,1.3c-1.2,0.3-2.4,0.4-3.5,0.4
		c-2.9,0-5.3-0.7-7.1-2.1c-1.8-1.4-2.8-3.6-3.1-6.6h3c0.1,2,0.9,3.6,2.2,4.6c1.4,1,3,1.6,5.1,1.6c0.7,0,1.5-0.1,2.3-0.2
		c0.8-0.2,1.5-0.4,2.2-0.8c0.7-0.4,1.2-0.9,1.7-1.5c0.4-0.6,0.6-1.3,0.6-2.2c0-0.7-0.2-1.4-0.5-1.8c-0.3-0.5-0.7-0.9-1.2-1.2
		c-0.5-0.3-1.1-0.6-1.8-0.8s-1.3-0.4-2-0.6l-3.9-0.9c-1-0.3-1.9-0.6-2.7-0.9c-0.8-0.3-1.6-0.8-2.2-1.2s-1.1-1.1-1.5-1.8
		c-0.4-0.7-0.5-1.6-0.5-2.7c0-1.2,0.3-2.3,0.8-3.2c0.6-0.9,1.3-1.6,2.2-2.2c0.9-0.5,1.9-0.9,3-1.2c1.1-0.3,2.2-0.4,3.3-0.4
		c1.2,0,2.4,0.2,3.5,0.5c1.1,0.3,2,0.8,2.8,1.5c0.8,0.7,1.5,1.5,1.9,2.5c0.5,1,0.8,2.2,0.8,3.5h-3
		C593.5,385.6,593.3,384.8,592.9,384.1z"/>
</g>
</svg>
