<?xml version="1.0" encoding="utf-8"?>
<!-- Generator: Adobe Illustrator 18.1.1, SVG Export Plug-In . SVG Version: 6.00 Build 0)  -->
<svg version="1.1" id="Layer_1" xmlns="http://www.w3.org/2000/svg" xmlns:xlink="http://www.w3.org/1999/xlink" x="0px" y="0px"
	 viewBox="0 0 100 100" enable-background="new 0 0 100 100" xml:space="preserve">
<path fill="#F6931D" d="M49.7,93.3c-24.8,0-45-20.2-45-45s20.2-45,45-45s45,20.2,45,45S74.5,93.3,49.7,93.3z M49.7,5
	C25.8,5,6.3,24.4,6.3,48.3s19.5,43.4,43.4,43.4s43.4-19.5,43.4-43.4S73.6,5,49.7,5z"/>
<g>
	<path fill="#FFFFFF" d="M62.5,74.6H35.6c-1.2,0-2.2-0.9-2.2-2.2l7.5-39.7c0-1.2,0.9-2.2,2.2-2.2H70c1.2,0,2.2,0.9,2.2,2.2
		l-7.5,39.7C65,73.6,63.7,74.6,62.5,74.6z"/>
	<path fill="#414142" d="M62.5,75.8H35.6c-1.9,0-3.4-1.6-3.4-3.4l7.5-39.7c0-1.6,1.6-3.1,3.4-3.1H70c1.9,0,3.4,1.6,3.4,3.4
		l-7.5,39.7C65.9,74.3,64.3,75.8,62.5,75.8z M43.1,31.4c-0.6,0-1.2,0.6-1.2,1.2l-7.5,39.7c0,0.3,0.6,0.9,1.2,0.9h26.9
		c0.6,0,1.2-0.6,1.2-1.2l7.5-39.7c0-0.3-0.6-0.9-1.2-0.9L43.1,31.4z"/>
</g>
<g>
	<path fill="#FFFFFF" d="M59.3,70.9H32.4c-1.2,0-2.2-0.9-2.2-2.2l7.5-39.7c0-1.2,0.9-2.2,2.2-2.2h26.9c1.2,0,2.2,0.9,2.2,2.2
		l-7.5,39.7C61.8,70,60.6,70.9,59.3,70.9z"/>
	<path fill="#414142" d="M59.3,72.2H32.4c-1.9,0-3.4-1.6-3.4-3.4l7.5-39.7c0-1.6,1.6-3.1,3.4-3.1h26.9c1.9,0,3.4,1.6,3.4,3.4
		l-7.5,39.7C62.8,70.6,61.2,72.2,59.3,72.2z M39.9,27.8c-0.6,0-1.2,0.6-1.2,1.2l-7.5,39.7c0,0.3,0.6,0.9,1.2,0.9h26.9
		c0.6,0,1.2-0.6,1.2-1.2l7.5-39.7c0-0.3-0.6-0.9-1.2-0.9H39.9z"/>
</g>
<g>
	<path fill="#FFFFFF" d="M55.9,67.5H29c-1.2,0-2.2-0.9-2.2-2.2l7.5-39.7c0-1.2,0.9-2.2,2.2-2.2h26.9c1.2,0,2.2,0.9,2.2,2.2L58.1,65
		C58.1,66.3,57.1,67.5,55.9,67.5z"/>
	<path fill="#414142" d="M55.9,68.4H29c-1.9,0-3.4-1.6-3.4-3.4l7.5-39.7c0-1.6,1.6-3.1,3.4-3.1h26.9c1.9,0,3.4,1.6,3.4,3.4
		l-7.5,39.7C59.3,66.9,57.8,68.4,55.9,68.4z M36.5,24.4c-0.6,0-1.2,0.6-1.2,1.2l-7.5,39.7c0,0.3,0.6,0.9,1.2,0.9h26.9
		c0.6,0,1.2-0.6,1.2-1.2l7.5-39.7c0-0.3-0.6-0.9-1.2-0.9L36.5,24.4z"/>
</g>
<rect x="36.4" y="27" fill="none" width="36.6" height="10.2"/>
<text transform="matrix(1 0 0 1 36.3647 31.9827)" fill="#F7931D" font-family="'HelveticaNeue-LightItalic'" font-size="7">CODE</text>
<g>
	<path fill="#404041" d="M48.6,41.7c0.1-0.6,0-1.1-0.3-1.5c-0.3-0.4-0.7-0.6-1.3-0.6c-0.5,0-0.9,0.1-1.3,0.4
		c-0.4,0.3-0.7,0.7-0.8,1.2c-0.1,0.4,0,0.7,0.1,0.9c0.2,0.3,0.4,0.5,0.7,0.8c0.3,0.2,0.6,0.5,1,0.7c0.4,0.2,0.8,0.4,1.2,0.7
		c0.4,0.2,0.8,0.5,1.2,0.7c0.4,0.3,0.7,0.6,1,0.9c0.3,0.3,0.5,0.7,0.6,1.1c0.1,0.4,0.1,0.9,0,1.4c-0.1,0.4-0.2,0.7-0.4,1
		c-0.2,0.3-0.4,0.6-0.7,0.9c-0.3,0.3-0.6,0.5-0.9,0.7c-0.3,0.2-0.7,0.4-1,0.5c0.3,0.3,0.5,0.7,0.7,1.2c0.1,0.4,0.1,1,0,1.7
		c-0.1,0.6-0.4,1.2-0.7,1.6c-0.3,0.5-0.7,0.9-1.2,1.2c-0.5,0.3-1,0.6-1.5,0.7C44.3,58,43.7,58,43.1,58c-0.7,0-1.3-0.1-1.8-0.3
		c-0.5-0.2-1-0.5-1.3-0.9c-0.3-0.4-0.6-0.8-0.7-1.4c-0.1-0.6-0.1-1.2,0-1.9h2.4c-0.1,0.8,0,1.4,0.2,1.8c0.3,0.5,0.8,0.7,1.5,0.7
		c0.6,0,1-0.1,1.5-0.4c0.4-0.3,0.7-0.7,0.8-1.4c0.1-0.4,0-0.7-0.1-1.1c-0.2-0.3-0.4-0.6-0.7-0.9c-0.3-0.3-0.6-0.5-1-0.7
		c-0.4-0.2-0.8-0.5-1.2-0.7c-0.4-0.2-0.9-0.5-1.3-0.8c-0.4-0.3-0.7-0.6-1-0.9c-0.3-0.3-0.5-0.7-0.6-1.1c-0.1-0.4-0.2-0.9,0-1.4
		c0.2-0.8,0.5-1.5,1.1-2c0.5-0.5,1.2-0.9,2-1.2c-0.3-0.3-0.4-0.7-0.5-1c-0.1-0.3-0.1-0.7,0-1.2c0.1-0.6,0.4-1.1,0.7-1.6
		c0.4-0.5,0.8-0.8,1.2-1.2c0.5-0.3,1-0.6,1.5-0.7c0.6-0.2,1.1-0.3,1.6-0.3c0.6,0,1.2,0.1,1.7,0.3c0.5,0.2,0.9,0.5,1.2,0.8
		c0.3,0.4,0.5,0.8,0.7,1.3c0.1,0.5,0.1,1.1,0,1.7H48.6z M43.9,44.7c-0.4,0.1-0.8,0.3-1.1,0.6c-0.3,0.3-0.5,0.7-0.6,1.1
		c0,0.1,0,0.2,0,0.3c0,0.1,0,0.3,0.1,0.4c0,0.2,0.1,0.3,0.3,0.5c0.1,0.2,0.3,0.3,0.6,0.5l3.5,2.2c0.4-0.2,0.8-0.4,1.1-0.7
		c0.3-0.3,0.5-0.7,0.6-1.1c0.1-0.3,0-0.6-0.1-0.9c-0.1-0.3-0.5-0.6-1-0.9L43.9,44.7z"/>
</g>
<g>
	<g>
		<polygon fill="#414042" points="51.7,61.1 44.6,77.6 47.8,77.1 54.9,60.6 		"/>
		<path fill="#FFFFFF" d="M44.2,78l7.4-17l3.7-0.7l-7.3,17.1L44.2,78z M51.9,61.3l-6.8,16l2.6-0.5l6.9-16L51.9,61.3z"/>
	</g>
	<g>
		<polygon fill="#414042" points="54.6,61.1 56.2,77.6 53.3,77.1 51.7,60.6 		"/>
		<path fill="#FFFFFF" d="M56.5,78l-3.5-0.7l-1.7-17l3.5,0.7L56.5,78z M53.5,76.9l2.4,0.5l-1.5-16L52,60.9L53.5,76.9z"/>
	</g>
	<path fill="#F7931D" d="M59.6,60.9c0-0.2-0.4-0.3-1.2-0.4c0.8-0.3,1.3-0.5,1.3-0.7c0-0.2-0.5-0.2-1.3-0.2c0.8-0.4,1.3-0.7,1.2-0.9
		c0-0.2-0.6-0.1-1.4,0c0.7-0.5,1.2-0.9,1.1-1c-0.1-0.1-0.6,0-1.4,0.3c0.7-0.6,1-1.1,0.9-1.2c-0.1-0.1-0.6,0.1-1.4,0.5
		c0.6-0.7,0.8-1.2,0.7-1.3c-0.1-0.1-0.6,0.2-1.3,0.7c0.4-0.8,0.6-1.3,0.5-1.4c-0.1-0.1-0.6,0.3-1.2,0.9c0.3-0.8,0.4-1.3,0.3-1.4
		c-0.1-0.1-0.5,0.4-1,1.1c0.2-0.8,0.2-1.3,0-1.4c-0.2,0-0.5,0.4-0.9,1.2c0-0.2,0-0.4,0-0.6c0-0.1,0-0.2,0-0.3c0-0.3-0.1-0.5-0.2-0.5
		l0,0l0,0c-0.2,0-0.4,0.5-0.7,1.3c-0.1-0.8-0.3-1.2-0.5-1.2c-0.2,0-0.3,0.5-0.4,1.4c-0.3-0.7-0.5-1.1-0.7-1.1
		c-0.2,0.1-0.2,0.6-0.2,1.4c-0.4-0.6-0.7-1-0.9-0.9S50.9,56,51,56.7c-0.5-0.6-0.9-0.8-1.1-0.7c-0.1,0.1,0,0.6,0.3,1.3
		c-0.6-0.4-1.1-0.6-1.2-0.5c-0.1,0.1,0.1,0.6,0.5,1.2c-0.7-0.3-1.2-0.4-1.3-0.3c-0.1,0.1,0.2,0.5,0.7,1c-0.8-0.2-1.3-0.2-1.4,0
		c-0.1,0.2,0.3,0.5,0.9,0.9c-0.8,0-1.4,0-1.4,0.2c-0.1,0.2,0.4,0.4,1.1,0.7c-0.8,0.1-1.4,0.3-1.4,0.4s0.4,0.3,1.2,0.4
		c-0.8,0.3-1.3,0.5-1.3,0.7c0,0.2,0.5,0.2,1.3,0.2c-0.8,0.4-1.3,0.7-1.2,0.9c0,0.2,0.6,0.1,1.4,0c-0.7,0.5-1.2,0.9-1.1,1
		c0.1,0.1,0.6,0,1.4-0.3c-0.7,0.6-1,1.1-0.9,1.2c0.1,0.1,0.6-0.1,1.4-0.5c-0.6,0.7-0.8,1.2-0.7,1.3c0.1,0.1,0.6-0.2,1.3-0.7
		c-0.4,0.8-0.6,1.3-0.5,1.4c0.1,0.1,0.6-0.3,1.2-0.9c-0.3,0.8-0.4,1.3-0.3,1.4c0.1,0.1,0.5-0.4,1-1.1c-0.2,0.8-0.2,1.3,0,1.4
		c0.2,0,0.5-0.4,0.9-1.2c0,0.8,0.1,1.3,0.2,1.3l0,0l0,0c0.1,0,0.2-0.2,0.4-0.5c0-0.1,0.1-0.2,0.1-0.3c0.1-0.2,0.1-0.3,0.2-0.6
		c0.1,0.8,0.3,1.2,0.5,1.2s0.3-0.5,0.4-1.4c0.3,0.7,0.5,1.1,0.7,1.1c0.2-0.1,0.2-0.6,0.2-1.4c0.4,0.6,0.7,1,0.9,0.9
		c0.2-0.1,0.1-0.6-0.1-1.4c0.5,0.6,0.9,0.8,1.1,0.7c0.1-0.1,0-0.6-0.3-1.3c0.6,0.4,1.1,0.6,1.2,0.5c0.1-0.1-0.1-0.6-0.5-1.2
		c0.7,0.3,1.2,0.4,1.3,0.3c0.1-0.1-0.2-0.5-0.7-1c0.8,0.2,1.3,0.2,1.4,0c0.1-0.2-0.3-0.5-0.9-0.9c0.8,0,1.4,0,1.4-0.2
		c0.1-0.2-0.4-0.4-1.1-0.7C59,61.2,59.6,61,59.6,60.9z"/>
	<path fill="#FFFFFF" d="M54,56c2.7,0,4.5,2.2,4.1,4.9c-0.4,2.7-3,4.9-5.7,4.9c-2.7,0-4.5-2.2-4.1-4.9C48.8,58.2,51.3,56,54,56z"/>
</g>
</svg>
