<?xml version="1.0" encoding="utf-8"?>
<!-- Generator: Adobe Illustrator 18.1.1, SVG Export Plug-In . SVG Version: 6.00 Build 0)  -->
<svg version="1.1" id="Layer_1" xmlns="http://www.w3.org/2000/svg" xmlns:xlink="http://www.w3.org/1999/xlink" x="0px" y="0px"
	 viewBox="0 0 500 500" enable-background="new 0 0 500 500" xml:space="preserve">
<g>
	<g>
		<circle fill="#414042" cx="321.8" cy="321.4" r="78.6"/>
		<path fill="#FFFFFF" d="M321.8,403.3c-45.2,0-82-36.8-82-82s36.8-82,82-82s82,36.8,82,82S367,403.3,321.8,403.3z M321.8,246.2
			c-41.5,0-75.2,33.8-75.2,75.2s33.8,75.2,75.2,75.2s75.2-33.8,75.2-75.2S363.2,246.2,321.8,246.2z"/>
	</g>
	<g>
		<path fill="#FFFFFF" d="M305,345.9c0.9,2.6,2.1,4.8,3.8,6.6c1.7,1.8,3.8,3.2,6.4,4.2c2.5,1,5.4,1.5,8.5,1.5c2.7,0,5.1-0.4,7.6-1.2
			c2.4-0.8,4.6-1.9,6.5-3.4c1.9-1.5,3.4-3.3,4.5-5.5c1.2-2.2,1.7-4.6,1.7-7.4c0-2.9-0.5-5.3-1.4-7.4c-1-2.1-2.3-3.8-4.1-5.2
			c-1.8-1.4-3.8-2.5-6-3.1c-2.3-0.7-4.8-1-7.4-1H319v-6h6c1.8,0,3.7-0.3,5.6-0.9c1.9-0.5,3.6-1.4,5.2-2.6c1.6-1.2,2.8-2.7,3.8-4.4
			c1-1.8,1.4-4,1.4-6.5c0-2.7-0.4-4.9-1.4-6.7c-0.9-1.8-2.1-3.4-3.7-4.6c-1.6-1.2-3.4-2.1-5.5-2.7s-4.3-0.9-6.7-0.9
			c-2.9,0-5.5,0.5-7.8,1.4c-2.3,1-4.2,2.4-5.7,4.2c-1.6,1.8-2.7,3.9-3.4,6.4c-0.8,2.5-1.1,5.1-1,8.1h-7.2c0-3.8,0.5-7.2,1.8-10.4
			c1.2-3.1,2.8-5.9,5-8.2c2.1-2.3,4.8-4.1,7.9-5.4c3.1-1.3,6.6-2,10.4-2c3.1,0,6.1,0.4,9,1.2c2.9,0.8,5.6,2,7.9,3.6
			c2.3,1.6,4.2,3.7,5.5,6.2c1.4,2.5,2.1,5.6,2.1,9.1c0,4.2-1.2,8.1-3.4,11.1c-2.3,3.1-5.6,5.3-9.9,6.4v0.3c5.2,0.8,9.2,3,12,6.5
			s4.2,7.9,4.2,13.1c0,3.9-0.8,7.3-2.2,10.3c-1.4,2.9-3.4,5.5-5.9,7.5c-2.5,2-5.4,3.6-8.7,4.6c-3.3,1-6.8,1.5-10.4,1.5
			c-4.1,0-7.9-0.6-11.2-1.8c-3.4-1.2-6.4-2.9-8.8-5.2c-2.5-2.3-4.2-5-5.5-8.3c-1.2-3.3-1.7-7.2-1.4-11.4h7.2
			C303.8,340.5,304.1,343.4,305,345.9z"/>
	</g>
</g>
<g>
	<g>
		<circle fill="#414042" cx="250" cy="250.5" r="78.6"/>
		<path fill="#FFFFFF" d="M250,332.5c-45.2,0-82-36.8-82-82s36.8-82,82-82s82,36.8,82,82S295.2,332.5,250,332.5z M250,175.2
			c-41.5,0-75.2,33.8-75.2,75.2s33.8,75.2,75.2,75.2s75.2-33.8,75.2-75.2C325.2,209,291.5,175.2,250,175.2z"/>
	</g>
	<g>
		<path fill="#FFFFFF" d="M225.1,290.1c0.1-4,0.8-7.5,2.1-10.6c1.3-3.1,3-5.8,5.2-8.3c2.1-2.5,4.6-4.7,7.2-6.7s5.5-4,8.3-5.9
			c2.8-1.9,5.7-3.8,8.5-5.7c2.8-1.9,5.3-4.1,7.5-6.3c2.3-2.3,3.9-4.5,5-6.8c1.1-2.3,1.7-5.1,1.7-8.3c0-2.7-0.5-5-1.4-7
			c-1-2-2.3-3.8-3.9-5.2s-3.6-2.5-5.7-3.2c-2.2-0.8-4.5-1.1-7-1.1c-3.3,0-6.2,0.6-8.5,1.8c-2.3,1.2-4.2,2.9-5.7,5
			c-1.4,2.1-2.5,4.4-3.2,7.2c-0.6,2.7-1,5.5-0.9,8.5H227c-0.1-4.2,0.4-8,1.4-11.5c1.1-3.5,2.7-6.5,4.8-9s4.9-4.5,8.1-5.9
			c3.3-1.4,7.1-2.1,11.5-2.1c3.5,0,6.8,0.5,9.8,1.4c3,1,5.7,2.4,8,4.2c2.3,1.9,4,4.2,5.3,7.1c1.2,2.8,1.9,6.2,1.9,9.9
			c0,3.4-0.5,6.5-1.7,9.2c-1.2,2.7-2.7,5.3-4.5,7.6c-1.9,2.3-4,4.4-6.5,6.4c-2.5,1.9-5,3.8-7.7,5.5c-1.9,1.3-4.2,2.7-6.8,4.3
			c-2.7,1.6-5.1,3.3-7.5,5.3c-2.5,1.9-4.6,4-6.4,6.3s-3,4.8-3.4,7.4h44.8v6.7h-53.2L225.1,290.1L225.1,290.1z"/>
	</g>
</g>
<g>
	<g>
		<circle fill="#414042" cx="178.2" cy="178.6" r="78.6"/>
		<path fill="#FFFFFF" d="M178.2,260.7c-45.2,0-81.9-36.8-81.9-82s36.8-81.9,81.9-81.9s82,36.8,82,82S223.4,260.7,178.2,260.7z
			 M178.2,103.5c-41.4,0-75.2,33.8-75.2,75.2s33.8,75.2,75.2,75.2s75.2-33.7,75.2-75.2S219.7,103.5,178.2,103.5z"/>
	</g>
	<g>
		<path fill="#FFFFFF" d="M164.4,151.9c2.6-0.3,4.9-1,6.7-1.9c1.9-1,3.5-2.5,4.8-4.6c1.2-2.1,2.2-5,2.7-8.7h5.9v81.4h-7.3v-60.5
			h-21.5v-5.2C159,152.3,161.8,152.1,164.4,151.9z"/>
	</g>
</g>
<path fill="#F6921E" d="M250,475C125.9,475,25,374.1,25,250C25,125.9,125.9,25,250,25c124.1,0,225,100.9,225,225
	C475,374.1,374.1,475,250,475z M250,33.2C130.5,33.2,33.2,130.5,33.2,250c0,119.5,97.3,216.8,216.8,216.8
	c119.5,0,216.8-97.3,216.8-216.8C466.8,130.5,369.5,33.2,250,33.2z"/>
</svg>
