<svg xmlns="http://www.w3.org/2000/svg" viewBox="0 0 200 200"><title>Pressematerialien</title><g id="Pressematerialien"><circle id="Base" cx="100" cy="100" r="98" style="fill:none;stroke:#e6823c;stroke-miterlimit:10;stroke-width:4px"/><path d="M106,82h33L106,49V82M64,40h48l36,36v72a12,12,0,0,1-12,12H64a12,12,0,0,1-12-12V52A12,12,0,0,1,64,40M94,52H64v96h72V94H94Z" style="fill:#34323b"/><path d="M69.52,141.34V127.26q0-.7,1.32-.7h.95a1.62,1.62,0,0,1,1.45.59L79,136.06v-8.8q0-.7,1.32-.7H81q1.32,0,1.32.7v14.08q0,.7-1.32.7h-.84a1.62,1.62,0,0,1-1.45-.59l-5.9-9v8.91q0,.7-1.32.7h-.64Q69.52,142,69.52,141.34Z" style="fill:#e6823c"/><path d="M85.34,141.12V127.48a.78.78,0,0,1,.88-.88h8.05q.66,0,.66,1.1v.68q0,1.1-.66,1.1H88.72v3.19h5q.66,0,.66,1.1v.68q0,1.1-.66,1.1h-5v3.56h5.57q.66,0,.66,1.1v.68q0,1.1-.66,1.1H86.22A.78.78,0,0,1,85.34,141.12Z" style="fill:#e6823c"/><path d="M95.74,127.13q0-.57,1.36-.57h.57q1.32,0,1.47.68l1.65,7.08q0,.15.68,3.17.13-.88.75-3.17L104,127q.11-.46,1.21-.46h.84q1.1,0,1.21.46l1.74,7.3q.37,1.61.75,3.32.15-.64.41-1.79t.34-1.53l1.72-7.08q.15-.68,1.47-.68H114q1.36,0,1.36.57a3,3,0,0,1,0,.33l-3.59,14.12q-.13.46-1.21.46h-1.61q-1.12,0-1.21-.46l-2.16-9.11-2.24,9.11q-.13.46-1.21.46h-1.58q-1.12,0-1.21-.46l-3.48-14.12A1.06,1.06,0,0,1,95.74,127.13Z" style="fill:#e6823c"/><path d="M115.72,140.24a2.3,2.3,0,0,1,.51-1.23q.51-.73.86-.73a1.74,1.74,0,0,1,.57.24,5.4,5.4,0,0,0,2.66.77q2.07,0,2.07-1.61a1.43,1.43,0,0,0-.66-1.19,7,7,0,0,0-1.6-.85,19.3,19.3,0,0,1-1.86-.84,4.21,4.21,0,0,1-1.58-1.46,4.37,4.37,0,0,1-.66-2.47,4.12,4.12,0,0,1,.79-2.54,5.16,5.16,0,0,1,4.42-1.91,7.24,7.24,0,0,1,2.82.48q1.14.48,1.14,1.06a2.52,2.52,0,0,1-.42,1.2q-.42.71-.79.71a1.32,1.32,0,0,1-.4-.15,4.9,4.9,0,0,0-2-.4,2.46,2.46,0,0,0-1.61.4,1.26,1.26,0,0,0-.45,1,1.3,1.3,0,0,0,.66,1.06,7.22,7.22,0,0,0,1.58.81,19.45,19.45,0,0,1,1.86.83,4.21,4.21,0,0,1,2.25,3.83,5.84,5.84,0,0,1-.43,2.35,3.67,3.67,0,0,1-1.18,1.53,5.9,5.9,0,0,1-3.56,1.06,8.7,8.7,0,0,1-3.54-.64Q115.72,140.9,115.72,140.24Z" style="fill:#e6823c"/></g></svg>