<svg xmlns="http://www.w3.org/2000/svg" viewBox="0 0 200 200"><title>Presse</title><g id="Presse"><circle id="Base" cx="100" cy="100" r="98" style="fill:none;stroke:#e6823c;stroke-miterlimit:10;stroke-width:4px"/><path d="M152.8,60.4H100L86.8,47.2H47.2A13.18,13.18,0,0,0,34.07,60.4L34,139.6a13.24,13.24,0,0,0,13.2,13.2H152.8A13.24,13.24,0,0,0,166,139.6v-66A13.24,13.24,0,0,0,152.8,60.4Zm0,79.2H47.2v-66H152.8Z" style="fill:#34323b"/><path d="M54.52,131.34V117.26q0-.7,1.32-.7h.95a1.62,1.62,0,0,1,1.45.59L64,126.06v-8.8q0-.7,1.32-.7H66q1.32,0,1.32.7v14.08q0,.7-1.32.7h-.84a1.62,1.62,0,0,1-1.45-.59l-5.9-9v8.91q0,.7-1.32.7h-.64Q54.52,132,54.52,131.34Z" style="fill:#e6823c"/><path d="M70.34,131.12V117.48a.78.78,0,0,1,.88-.88h8.05q.66,0,.66,1.1v.68q0,1.1-.66,1.1H73.72v3.19h5q.66,0,.66,1.1v.68q0,1.1-.66,1.1h-5v3.56h5.57q.66,0,.66,1.1v.68q0,1.1-.66,1.1H71.22A.78.78,0,0,1,70.34,131.12Z" style="fill:#e6823c"/><path d="M80.74,117.13q0-.57,1.36-.57h.57q1.32,0,1.47.68l1.65,7.08q0,.15.68,3.17.13-.88.75-3.17L89,117q.11-.46,1.21-.46h.84q1.1,0,1.21.46l1.74,7.3q.37,1.61.75,3.32.15-.64.41-1.79t.34-1.53l1.72-7.08q.15-.68,1.47-.68H99q1.36,0,1.36.57a3.15,3.15,0,0,1,0,.33l-3.59,14.12q-.13.46-1.21.46H93.88q-1.12,0-1.21-.46l-2.16-9.11-2.24,9.11q-.13.46-1.21.46H85.47q-1.12,0-1.21-.46l-3.48-14.12A1.06,1.06,0,0,1,80.74,117.13Z" style="fill:#e6823c"/><path d="M100.72,130.24a2.3,2.3,0,0,1,.51-1.23q.51-.73.86-.73a1.71,1.71,0,0,1,.57.24,5.4,5.4,0,0,0,2.66.77q2.07,0,2.07-1.61a1.43,1.43,0,0,0-.66-1.19,7,7,0,0,0-1.59-.85,19.68,19.68,0,0,1-1.86-.84,4.22,4.22,0,0,1-1.58-1.46,4.37,4.37,0,0,1-.66-2.48,4.12,4.12,0,0,1,.79-2.54,5.16,5.16,0,0,1,4.42-1.91,7.23,7.23,0,0,1,2.82.48q1.14.48,1.14,1.06a2.51,2.51,0,0,1-.42,1.2q-.42.71-.79.71a1.29,1.29,0,0,1-.4-.15,4.91,4.91,0,0,0-2-.4,2.47,2.47,0,0,0-1.61.4,1.26,1.26,0,0,0-.45,1,1.3,1.3,0,0,0,.66,1.06,7.23,7.23,0,0,0,1.58.81,19.57,19.57,0,0,1,1.86.83,4.21,4.21,0,0,1,2.25,3.83,5.84,5.84,0,0,1-.43,2.35,3.68,3.68,0,0,1-1.18,1.53,5.9,5.9,0,0,1-3.56,1.06,8.69,8.69,0,0,1-3.54-.64Q100.72,130.9,100.72,130.24Z" style="fill:#e6823c"/></g></svg>