<?xml version="1.0" encoding="utf-8"?>
<!-- Generator: Adobe Illustrator 18.1.1, SVG Export Plug-In . SVG Version: 6.00 Build 0)  -->
<svg version="1.1" id="Layer_1" xmlns="http://www.w3.org/2000/svg" xmlns:xlink="http://www.w3.org/1999/xlink" x="0px" y="0px"
	 viewBox="0 0 500 500" enable-background="new 0 0 500 500" xml:space="preserve">
<path fill="#F7931D" d="M250,475C125.9,475,25,374.1,25,250S125.9,25,250,25s225,100.9,225,225S374.1,475,250,475z M250,33.2
	C130.5,33.2,33.2,130.5,33.2,250S130.5,466.8,250,466.8S466.8,369.5,466.8,250S369.5,33.2,250,33.2z"/>
<path fill="#323133" d="M343.7,195.9H211.1v-3.8c0-11-9-20-20-20h-48.2c-11,0-20,9-20,20v23.8v15.8V328c0,11,9,20,20,20h200.8
	c11,0,20-9,20-20V215.9C363.7,204.9,354.7,195.9,343.7,195.9z"/>
<g>
	<path fill="#323133" d="M147.9,352.9h200.8c11,0,20-9,20-20l20-100.4c0-11-9-20-20-20H167.9c-11,0-20,9-20,20l-20,100.4
		C128,343.9,136.9,352.9,147.9,352.9z"/>
	<path fill="#FFFFFF" d="M368.7,212.6c11,0,20,9,20,20l-20,100.4c0,11-9,20-20,20H147.9c-11,0-20-9-20-20l20-100.4c0-11,9-20,20-20
		H368.7 M368.7,206.6H167.9c-14.1,0-25.6,11.3-26,25.3L122,331.8l-0.1,0.6v0.6c0,14.3,11.6,26,26,26h200.8c14.1,0,25.6-11.3,26-25.3
		l19.9-99.9l0.1-0.6v-0.6C394.7,218.2,383,206.6,368.7,206.6L368.7,206.6z"/>
</g>
<g>
	<path fill="#F7931D" d="M167.9,306.9l10.3,23h0.1l4.8-23h2.4l-5.6,25.7H177l-10.3-23h-0.1l-4.8,23h-2.3l5.5-25.7H167.9z"/>
	<path fill="#F7931D" d="M207.8,306.9l-0.5,2.1h-14.8l-2,9.3h13.8l-0.5,2.1H190l-2.2,10.2h15.1l-0.5,2.1h-17.6l5.5-25.7h17.5V306.9z
		"/>
	<path fill="#F7931D" d="M210.6,306.9l1.3,22.9h0.1l10.9-22.9h3l1.8,22.6h0.1l10.5-22.6h2.6l-12.4,25.7h-2.7l-1.7-23.4H224
		l-11.2,23.4h-2.7l-1.9-25.7H210.6z"/>
	<path fill="#F7931D" d="M257.2,311.5c-0.3-0.8-0.7-1.4-1.3-1.8c-0.6-0.5-1.3-0.8-2.1-1s-1.8-0.3-2.9-0.3c-0.8,0-1.6,0.1-2.4,0.3
		c-0.8,0.2-1.5,0.5-2.1,0.9s-1.1,1-1.5,1.6s-0.6,1.4-0.6,2.3c0,0.7,0.1,1.2,0.4,1.7s0.6,0.9,1,1.2c0.4,0.3,0.9,0.6,1.4,0.8
		c0.5,0.2,1.1,0.4,1.6,0.6l2.7,0.8c0.9,0.3,1.7,0.6,2.6,0.9c0.8,0.3,1.6,0.7,2.2,1.2s1.2,1.1,1.5,1.8c0.4,0.7,0.6,1.6,0.6,2.7
		c0,0.6-0.1,1.4-0.4,2.3s-0.7,1.8-1.5,2.6c-0.7,0.8-1.7,1.5-3,2.1s-3,0.9-5.1,0.9c-1.4,0-2.8-0.2-4-0.5s-2.3-0.9-3.1-1.6
		s-1.5-1.7-2-2.8s-0.6-2.5-0.6-4h2.4c-0.1,1.2,0.1,2.3,0.4,3.2c0.3,0.9,0.8,1.6,1.5,2.1c0.7,0.6,1.5,1,2.4,1.2
		c0.9,0.3,2,0.4,3.1,0.4c0.8,0,1.7-0.1,2.6-0.3c0.9-0.2,1.6-0.5,2.4-1c0.7-0.4,1.3-1,1.7-1.7s0.7-1.5,0.7-2.5c0-0.9-0.2-1.7-0.6-2.2
		c-0.4-0.6-0.9-1-1.5-1.4s-1.3-0.6-2.1-0.9c-0.7-0.2-1.5-0.4-2.2-0.6l-2.5-0.8c-1.5-0.4-2.7-1.1-3.7-2.1c-0.9-0.9-1.4-2.2-1.4-3.9
		c0-1.3,0.3-2.4,0.8-3.3s1.2-1.7,2.1-2.3c0.9-0.6,1.8-1,2.9-1.3c1.1-0.3,2.2-0.4,3.4-0.4c1.3,0,2.5,0.1,3.7,0.4s2.1,0.7,3,1.4
		c0.8,0.6,1.5,1.5,1.9,2.5c0.5,1,0.6,2.3,0.6,3.8h-2.4C257.7,313.2,257.5,312.3,257.2,311.5z"/>
</g>
</svg>
