<?xml version="1.0" encoding="utf-8"?>
<!-- Generator: Adobe Illustrator 18.1.1, SVG Export Plug-In . SVG Version: 6.00 Build 0)  -->
<svg version="1.1" id="Layer_1" xmlns="http://www.w3.org/2000/svg" xmlns:xlink="http://www.w3.org/1999/xlink" x="0px" y="0px"
	 viewBox="0 0 500 500" enable-background="new 0 0 500 500" xml:space="preserve">
<path fill="#F79420" d="M250,475C126.6,475,25,373.4,25,250S126.6,25,250,25s225,101.6,225,225S373.4,475,250,475z M250,32.8
	C131.2,32.8,32.8,131.2,32.8,250S131.2,467.2,250,467.2S467.2,368.8,467.2,250S368.8,32.8,250,32.8z"/>
<g>
	<path fill="#FFFFFF" d="M318.8,391.6H184.4c-6.2,0-10.9-4.7-10.9-10.9l37.5-198.4c0-6.2,4.7-10.9,10.9-10.9h134.4
		c6.2,0,10.9,4.7,10.9,10.9l-37.5,198.4C331.3,386.9,325,391.6,318.8,391.6z"/>
	<path fill="#414142" d="M318.8,397.8H184.4c-9.4,0-17.2-7.8-17.2-17.2l37.5-198.4c0-7.8,7.8-15.6,17.2-15.6h134.4
		c9.4,0,17.2,7.8,17.2,17.2l-37.5,198.4C335.9,390,328.1,397.8,318.8,397.8z M221.9,175.9c-3.1,0-6.2,3.1-6.2,6.2l-37.5,198.4
		c0,1.6,3.1,4.7,6.2,4.7h134.4c3.1,0,6.2-3.1,6.2-6.2l37.5-198.4c0-1.6-3.1-4.7-6.2-4.7H221.9z"/>
</g>
<g>
	<path fill="#FFFFFF" d="M303.1,373.4H168.7c-6.2,0-10.9-4.7-10.9-10.9l37.5-198.4c0-6.2,4.7-10.9,10.9-10.9h134.4
		c6.2,0,10.9,4.7,10.9,10.9l-37.5,198.4C315.6,368.8,309.4,373.4,303.1,373.4z"/>
	<path fill="#414142" d="M303.1,379.7H168.7c-9.4,0-17.2-7.8-17.2-17.2l37.5-198.4c0-7.8,7.8-15.6,17.2-15.6h134.4
		c9.4,0,17.2,7.8,17.2,17.2l-37.5,198.4C320.3,371.9,312.5,379.7,303.1,379.7z M206.2,157.8c-3.1,0-6.2,3.1-6.2,6.2l-37.5,198.4
		c0,1.6,3.1,4.7,6.2,4.7h134.4c3.1,0,6.2-3.1,6.2-6.2l37.5-198.4c0-1.6-3.1-4.7-6.2-4.7H206.2z"/>
</g>
<g>
	<path fill="#FFFFFF" d="M285.9,356.2H151.6c-6.2,0-10.9-4.7-10.9-10.9l37.5-198.4c0-6.2,4.7-10.9,10.9-10.9h134.4
		c6.2,0,10.9,4.7,10.9,10.9l-37.5,196.9C296.9,350,292.2,356.2,285.9,356.2z"/>
	<path fill="#414142" d="M285.9,360.9H151.6c-9.4,0-17.2-7.8-17.2-17.2l37.5-198.4c0-7.8,7.8-15.6,17.2-15.6h134.4
		c9.4,0,17.2,7.8,17.2,17.2l-37.5,198.4C303.1,353.1,295.3,360.9,285.9,360.9z M189.1,140.6c-3.1,0-6.2,3.1-6.2,6.2l-37.5,198.4
		c0,1.6,3.1,4.7,6.2,4.7h134.4c3.1,0,6.2-3.1,6.2-6.2l37.5-198.4c0-1.6-3.1-4.7-6.2-4.7H189.1z"/>
</g>
<path fill="#414142" d="M309.8,202.9h-125c-3.1,0-6.2-3.1-6.2-6.2c0-3.1,3.1-6.2,6.2-6.2h125c3.1,0,6.2,3.1,6.2,6.2
	C316,199.7,312.9,202.9,309.8,202.9z"/>
<path fill="#414142" d="M281.1,220.6h-100c-3.1,0-6.2-3.1-6.2-6.2c0-3.1,3.1-6.2,6.2-6.2h100c3.1,0,6.2,3.1,6.2,6.2
	C287.3,217.4,284.2,220.6,281.1,220.6z"/>
<path fill="#414142" d="M302.9,238h-125c-3.1,0-6.2-3.1-6.2-6.2s3.1-6.2,6.2-6.2h125c3.1,0,6.2,3.1,6.2,6.2S306.1,238,302.9,238z"/>
<path fill="#414142" d="M274.6,255.5h-100c-3.1,0-6.2-3.1-6.2-6.2s3.1-6.2,6.2-6.2h100c3.1,0,6.2,3.1,6.2,6.2
	C280.8,252.3,277.7,255.5,274.6,255.5z"/>
<path fill="#414142" d="M292.1,290.4h-125c-3.1,0-6.2-3.1-6.2-6.2c0-3.1,3.1-6.2,6.2-6.2h125c3.1,0,6.2,3.1,6.2,6.2
	C298.3,287.2,295.2,290.4,292.1,290.4z"/>
<path fill="#414142" d="M263.2,307.8h-100c-3.1,0-6.2-3.1-6.2-6.2c0-3.1,3.1-6.2,6.2-6.2h100c3.1,0,6.2,3.1,6.2,6.2
	C269.4,304.7,266.3,307.8,263.2,307.8z"/>
<path fill="#414142" d="M244.3,272.9h-73.4c-3.1,0-6.2-3.1-6.2-6.2c0-3.1,3.1-6.2,6.2-6.2h73.4c3.1,0,6.2,3.1,6.2,6.2
	C250.6,269.8,247.5,272.9,244.3,272.9z"/>
<g>
	<path fill="#F79420" d="M196.2,152.4l10.3,23h0.1l4.8-23h2.4l-5.6,25.7h-2.9l-10.3-23h-0.1l-4.8,23h-2.3l5.5-25.7H196.2z"/>
	<path fill="#F79420" d="M236.1,152.4l-0.5,2.1h-14.8l-2,9.3h13.8l-0.5,2.1h-13.8l-2.2,10.2h15.1l-0.5,2.1h-17.6l5.5-25.7h17.5
		V152.4z"/>
	<path fill="#F79420" d="M238.9,152.4l1.3,22.9h0.1l10.9-22.9h3L256,175h0.1l10.5-22.6h2.6l-12.4,25.7h-2.7l-1.7-23.4h-0.1
		l-11.2,23.4h-2.7l-1.9-25.7H238.9z"/>
	<path fill="#F79420" d="M285.5,157c-0.3-0.8-0.7-1.4-1.3-1.8c-0.6-0.5-1.3-0.8-2.1-1c-0.8-0.2-1.8-0.3-2.9-0.3
		c-0.8,0-1.6,0.1-2.4,0.3c-0.8,0.2-1.5,0.5-2.1,0.9s-1.1,1-1.5,1.6s-0.6,1.4-0.6,2.3c0,0.7,0.1,1.2,0.4,1.7s0.6,0.9,1,1.2
		c0.4,0.3,0.9,0.6,1.4,0.8c0.5,0.2,1.1,0.4,1.6,0.6l2.7,0.8c0.9,0.3,1.7,0.6,2.6,0.9c0.8,0.3,1.6,0.7,2.2,1.2s1.2,1.1,1.5,1.8
		c0.4,0.7,0.6,1.6,0.6,2.7c0,0.6-0.1,1.4-0.4,2.3s-0.7,1.8-1.5,2.6c-0.7,0.8-1.7,1.5-3,2.1c-1.3,0.6-3,0.9-5.1,0.9
		c-1.4,0-2.8-0.2-4-0.5c-1.2-0.3-2.3-0.9-3.1-1.6c-0.8-0.7-1.5-1.7-2-2.8s-0.6-2.5-0.6-4h2.4c-0.1,1.2,0.1,2.3,0.4,3.2
		c0.3,0.9,0.8,1.6,1.5,2.1c0.7,0.6,1.5,1,2.4,1.2c0.9,0.3,2,0.4,3.1,0.4c0.8,0,1.7-0.1,2.6-0.3c0.9-0.2,1.6-0.5,2.4-1
		c0.7-0.4,1.3-1,1.7-1.7s0.7-1.5,0.7-2.5c0-0.9-0.2-1.7-0.6-2.2c-0.4-0.6-0.9-1-1.5-1.4s-1.3-0.6-2.1-0.9c-0.7-0.2-1.5-0.4-2.2-0.6
		l-2.5-0.8c-1.5-0.4-2.7-1.1-3.7-2.1c-0.9-0.9-1.4-2.2-1.4-3.9c0-1.3,0.3-2.4,0.8-3.3s1.2-1.7,2.1-2.3c0.9-0.6,1.8-1,2.9-1.3
		c1.1-0.3,2.2-0.4,3.4-0.4c1.3,0,2.5,0.1,3.7,0.4c1.2,0.3,2.1,0.7,3,1.4c0.8,0.6,1.5,1.5,1.9,2.5c0.5,1,0.6,2.3,0.6,3.8h-2.4
		C286,158.7,285.8,157.8,285.5,157z"/>
</g>
</svg>
