<?xml version="1.0" encoding="utf-8"?>
<!-- Generator: Adobe Illustrator 18.1.1, SVG Export Plug-In . SVG Version: 6.00 Build 0)  -->
<svg version="1.1" id="Layer_1" xmlns="http://www.w3.org/2000/svg" xmlns:xlink="http://www.w3.org/1999/xlink" x="0px" y="0px"
	 viewBox="0 0 500 500" enable-background="new 0 0 500 500" xml:space="preserve">
<g>
	<path fill="#F7931D" d="M250,475C125.9,475,25,374.1,25,250S125.9,25,250,25s225,100.9,225,225S374.1,475,250,475z M250,33.2
		C130.5,33.2,33.2,130.5,33.2,250S130.5,466.8,250,466.8S466.8,369.5,466.8,250S369.5,33.2,250,33.2z"/>
	<g>
		<polygon fill="#414042" points="282.3,167.5 212.9,167.5 125,340.5 374.1,340.5 		"/>
		<polygon fill="#414042" points="207.3,167.5 199.2,167.5 86.6,340.5 116.6,340.5 		"/>
		<polygon fill="#414042" points="288.3,167.5 296.4,167.5 413.4,340.5 383.4,340.5 		"/>
		<polygon fill="#FFFFFF" points="268.8,286.5 230.3,286.5 221.5,342.5 277.5,342.5 		"/>
		<polygon fill="#FFFFFF" points="260,236.1 239.2,236.1 232.2,275.5 266.9,275.5 		"/>
		<polygon fill="#FFFFFF" points="255.5,204.9 243.5,204.9 239.6,230 259.5,230 		"/>
		<polygon fill="#FFFFFF" points="252.8,184.8 246.2,184.8 244,199.6 255.1,199.6 		"/>
		<polygon fill="#FFFFFF" points="250.8,170.9 248.3,170.9 246.3,181.6 252.7,181.6 		"/>
		<path fill="none" stroke="#BE1E2D" stroke-width="0.5462" stroke-miterlimit="10" d="M249.5,167.5"/>
		<path fill="none" stroke="#BE1E2D" stroke-width="0.5462" stroke-miterlimit="10" d="M221.5,340.5"/>
		<path fill="none" stroke="#BE1E2D" stroke-width="0.5462" stroke-miterlimit="10" d="M249.5,167.5"/>
		<path fill="none" stroke="#BE1E2D" stroke-width="0.5462" stroke-miterlimit="10" d="M277.5,340.5"/>
	</g>
	<g>
		<path fill="#414042" d="M156.2,394c-0.2,5.5,3,9.1,8.6,9.1c4.5,0,8.8-2.7,8.8-7.6s-3.7-7.3-8.3-7.3h-2.6v-2.6h2.6
			c3.2,0.1,7-1.9,7-6.2c0-4.5-3.4-6.5-7.5-6.5c-5.2,0-7.9,3.6-7.8,8.7h-3.1c0-6.5,4.2-11.3,10.9-11.3c5.4,0,10.7,2.7,10.7,8.8
			c0,3.7-2.1,6.7-5.8,7.6v0.1c4.5,0.7,7.1,4,7.1,8.5c0,6.7-5.5,10.5-11.9,10.5c-7.1,0-12.2-4.3-11.8-11.7h3.1V394z"/>
		<path fill="#414042" d="M183.6,405v-5.2h4.1v5.2H183.6z"/>
		<path fill="#414042" d="M216.9,405h-22.7c0.2-10.2,10.7-12.7,16.6-18.6c1.9-1.9,2.9-3.7,2.9-6.5c0-4.5-3.5-7-7.7-7
			c-5.7,0-7.9,4.5-7.8,9.6h-3.1c-0.1-7.1,3.5-12.2,11-12.2c6,0,10.7,3.3,10.7,9.7c0,5.8-4.2,9.3-8.7,12.2c-3.3,2.3-9.5,5.3-10.3,9.9
			h19.1V405z"/>
		<path fill="#414042" d="M225.4,396.7c0.5,3.8,3.2,6.4,7.2,6.4c8,0,9.5-9.1,9.5-15.4H242c-1.6,3.4-5.3,5.7-9.1,5.7
			c-6.9,0-11.4-4.8-11.4-11.5s4.9-11.7,11.7-11.7c8.4,0,12,4.9,12,18.3c0,4.1-1,17.2-12.3,17.2c-6,0-9.8-3-10.6-9H225.4z
			 M241.4,381.7c0-4.9-2.6-8.8-8.6-8.8c-4.9,0-8.3,4.1-8.3,8.8c0,5,3,9.1,8.3,9.1C238.3,390.8,241.4,386.8,241.4,381.7z"/>
		<path fill="#414042" d="M251.9,394c-0.2,5.5,3,9.1,8.6,9.1c4.5,0,8.8-2.7,8.8-7.6s-3.7-7.3-8.3-7.3h-2.6v-2.6h2.6
			c3.2,0.1,7-1.9,7-6.2c0-4.5-3.4-6.5-7.5-6.5c-5.2,0-7.9,3.6-7.8,8.7h-3.1c0.1-6.5,4.2-11.3,10.9-11.3c5.4,0,10.7,2.7,10.7,8.8
			c0,3.7-2.1,6.7-5.8,7.6v0.1c4.5,0.7,7.1,4,7.1,8.5c0,6.7-5.5,10.5-11.8,10.5c-7.1,0-12.2-4.3-11.8-11.7h3L251.9,394L251.9,394z"/>
		<path fill="#414042" d="M291.1,369.9h3.1v22l14.1-12.3h4.1l-10.8,9.4l11.6,16h-3.9l-10-13.8l-5,4.2v9.6h-3.1v-35.1L291.1,369.9
			L291.1,369.9z"/>
		<path fill="#414042" d="M315.7,379.6h2.9v4.3h0.1c1.6-3.1,4.3-5,8.3-5c3.3,0,6.3,1.6,7.3,5c1.5-3.3,4.7-5,8.1-5
			c5.6,0,8.4,2.9,8.4,8.9V405h-3.1v-17.1c0-4.2-1.6-6.4-6-6.4c-5.4,0-6.9,4.4-6.9,9.1V405h-3.1v-17.2c0.1-3.4-1.4-6.3-5.3-6.3
			c-5.4,0-7.5,4-7.6,9.3V405h-3.1L315.7,379.6L315.7,379.6z"/>
	</g>
</g>
<g>
	<g>
		<polygon fill="#414042" points="316.5,155.7 280.9,274.3 305.6,269.8 341.2,151.2 		"/>
		<path fill="#FFFFFF" d="M278.1,276.9L314.9,154l29.1-5.4l-36.9,122.9L278.1,276.9z M318.1,157.5l-34.3,114.3l20.3-3.7l34.3-114.3
			L318.1,157.5z"/>
	</g>
	<g>
		<polygon fill="#414042" points="340,155.7 375.6,274.3 350.9,269.8 315.3,151.2 		"/>
		<path fill="#FFFFFF" d="M378.5,276.9l-29.1-5.4l-36.9-122.9l29.2,5.4L378.5,276.9z M352.5,268l20.3,3.7l-34.3-114.3l-20.3-3.7
			L352.5,268z"/>
	</g>
	<path fill="#F7931D" d="M380.2,153.7c0-1.4-4-2.6-10.7-3.6c6.5-2.2,10.2-4.1,10-5.4c-0.2-1.3-4.4-1.9-11.2-1.7
		c6-3.2,9.3-5.8,8.9-7.1c-0.5-1.3-4.7-1.1-11.3,0.3c5.3-4.2,8.2-7.3,7.5-8.5s-4.8-0.2-11.1,2.3c4.5-5.1,6.8-8.6,5.9-9.7
		s-4.7,0.6-10.5,4.1c3.6-5.8,5.2-9.7,4.1-10.5c-1-0.9-4.6,1.4-9.7,5.9c2.5-6.3,3.4-10.4,2.3-11.1c-1.2-0.7-4.3,2.2-8.5,7.5
		c1.4-6.7,1.6-10.9,0.3-11.3c-1.3-0.5-3.8,2.9-7.1,8.9c0.2-6.8-0.3-11-1.7-11.2c-1.3-0.2-3.3,3.5-5.4,10c-0.2-1.7-0.5-3.2-0.8-4.5
		c-0.2-0.8-0.3-1.5-0.5-2.2c-0.7-2.6-1.5-4.1-2.3-4.1l0,0l0,0c-1.4,0-2.6,4-3.6,10.7c-2.2-6.5-4.1-10.2-5.4-10s-1.9,4.4-1.7,11.2
		c-3.2-6-5.8-9.3-7.1-8.9c-1.3,0.5-1.1,4.7,0.3,11.3c-4.2-5.3-7.3-8.2-8.5-7.5s-0.2,4.8,2.3,11.1c-5.1-4.5-8.6-6.8-9.7-5.9
		c-1,0.9,0.6,4.7,4.1,10.5c-5.8-3.6-9.7-5.2-10.5-4.1c-0.9,1,1.4,4.6,5.9,9.7c-6.3-2.5-10.4-3.4-11.1-2.3c-0.7,1.1,2.2,4.3,7.5,8.5
		c-6.7-1.4-10.9-1.6-11.3-0.3c-0.5,1.3,2.9,3.8,8.9,7.1c-6.8-0.2-11,0.3-11.2,1.7c-0.2,1.3,3.5,3.3,10,5.4c-6.7,1-10.7,2.2-10.7,3.6
		c0,1.4,4,2.6,10.7,3.6c-6.5,2.2-10.2,4.1-10,5.4c0.2,1.3,4.4,1.9,11.2,1.7c-6,3.2-9.3,5.8-8.9,7.1c0.5,1.3,4.7,1.1,11.3-0.3
		c-5.3,4.2-8.2,7.3-7.5,8.5s4.8,0.2,11.1-2.3c-4.5,5.1-6.8,8.6-5.9,9.7c0.9,1,4.7-0.6,10.5-4.1c-3.6,5.8-5.2,9.7-4.1,10.5
		c1,0.9,4.6-1.4,9.7-5.9c-2.5,6.3-3.4,10.4-2.3,11.1s4.3-2.2,8.5-7.5c-1.4,6.7-1.6,10.9-0.3,11.3c1.3,0.5,3.8-2.9,7.1-8.9
		c-0.2,6.8,0.3,11,1.7,11.2c1.3,0.2,3.3-3.5,5.4-10c1,6.7,2.2,10.7,3.6,10.7l0,0l0,0c0.8,0,1.6-1.5,2.3-4.1c0.2-0.7,0.3-1.4,0.5-2.2
		c0.3-1.3,0.5-2.8,0.8-4.5c2.2,6.5,4.1,10.2,5.4,10s1.9-4.4,1.7-11.2c3.2,6,5.8,9.3,7.1,8.9c1.3-0.5,1.1-4.7-0.3-11.3
		c4.2,5.3,7.3,8.2,8.5,7.5s0.2-4.8-2.3-11.1c5.1,4.5,8.6,6.8,9.7,5.9c1-0.9-0.6-4.7-4.1-10.5c5.8,3.6,9.7,5.2,10.5,4.1
		c0.9-1-1.4-4.6-5.9-9.7c6.3,2.5,10.4,3.4,11.1,2.3c0.7-1.2-2.2-4.3-7.5-8.5c6.7,1.4,10.9,1.6,11.3,0.3c0.5-1.3-2.9-3.8-8.9-7.1
		c6.8,0.2,11-0.3,11.2-1.7c0.2-1.3-3.5-3.3-10-5.4C376.2,156.3,380.2,155.1,380.2,153.7z"/>
	<circle fill="#FFFFFF" cx="328.2" cy="153.9" r="39.8"/>
	<g>
		<path fill="#414042" d="M327.4,182.6v-38.5h-13.9V139c1.8,0,3.6-0.1,5.3-0.4c1.7-0.3,3.3-0.8,4.7-1.6c1.4-0.8,2.6-1.8,3.5-3.1
			c1-1.3,1.6-3,2-5h4.9v53.7L327.4,182.6L327.4,182.6z"/>
	</g>
</g>
</svg>
