<svg xmlns="http://www.w3.org/2000/svg" width="24" height="24" viewBox="0 0 24 24">
  <defs>
    <style>
      .cls-1 {
        fill-rule: evenodd;
      }
    </style>
  </defs>
  <g id="ic_sos_24px">
    <path id="ic_sos" class="cls-1" d="M324,438a10,10,0,1,1,10-10A10,10,0,0,1,324,438Zm0-2a7.949,7.949,0,0,0,4.057-1.114l-1.852-1.853a5.439,5.439,0,0,1-4.41,0l-1.853,1.853A7.955,7.955,0,0,0,324,436Zm3.5-8a3.5,3.5,0,1,0-3.5,3.5A3.5,3.5,0,0,0,327.5,428Zm-8.533-2.2-1.853-1.853a7.948,7.948,0,0,0,0,8.116l1.853-1.853A5.439,5.439,0,0,1,318.967,425.8ZM324,420a7.955,7.955,0,0,0-4.058,1.114l1.853,1.853a5.439,5.439,0,0,1,4.41,0l1.853-1.853A7.955,7.955,0,0,0,324,420Zm6.886,3.942-1.853,1.853a5.439,5.439,0,0,1,0,4.41l1.853,1.853A7.948,7.948,0,0,0,330.886,423.942Z" transform="translate(-312 -416)"/>
  </g>
</svg>
