<svg id="Front" xmlns="http://www.w3.org/2000/svg" viewBox="0 0 460.9 577.32"><defs><style>.cls-1{fill:#b2b2b2;}.cls-2{fill:#fff;}.cls-3,.cls-5,.cls-7{fill:#1d1d1b;}.cls-4{fill:#3f8fae;}.cls-5{font-size:11px;font-family:Asap-Regular, Asap;}.cls-6{fill:#e6823c;}.cls-7{font-size:26.6px;font-family:MyriadPro-Regular, Myriad Pro;}.cls-8{letter-spacing:-0.08em;}.cls-9{letter-spacing:0.01em;}</style></defs><title>Erklaerung Draw_desktop</title><g id="Straße"><path class="cls-1" d="M215.87,445.26l-3.39-3.14-2.24-.06a89.71,89.71,0,0,0-28.69,46.48l1.24,1.81a6.06,6.06,0,0,1,4.57.72l1,.28a104.3,104.3,0,0,1,27.14-45.65ZM233.34,173.4l-.14-.08a198.55,198.55,0,0,0-45.68-14.07l-.38.43-1.47,2.2.07,1.21,46.78,15.84.22-.4A6.8,6.8,0,0,1,233.34,173.4Zm68.82,184.92-3.6-5.14-1,.69q-19.95,16.2-40.92,31.11a10.83,10.83,0,0,1,5.24,4.37l.29.39Q282.61,374.61,302.16,358.32Zm19.47-133.53.43-.38a16.87,16.87,0,0,1,3.32-4.41l-.16-.17a101.51,101.51,0,0,0-45-28.56l-.43.22-2.2,2.56,0,.82A104.43,104.43,0,0,1,321.63,224.79Zm38,36a32,32,0,0,1-7.79,1.08l0,1.6a69,69,0,0,1-7.36,49.34l.35.19,4.17,3,1.25-.1a93.18,93.18,0,0,0,9.42-55Zm77.66-7.89c4.62,30.05-3.32,61.7-21,86.46-15.66,22-38,38.07-60,53.7S311.92,424.68,296,446.48s-24.24,50.61-15.2,75.85a996.65,996.65,0,0,1-169.33,54.23l-.34.16c-18.76-40.83-17.68-89.57-.38-131.07,17.45-41.86,50.48-76.35,89.74-99.05,23.28-13.46,49.8-23.88,65.74-45.54,6.43-8.75,10.84-20.23,7.14-30.43-3.28-9-12-14.82-20.36-19.55-45.91-26-97.41-40-148.38-53.71a629.5,629.5,0,0,1,92.82-70.91l114.82,24.12c27.1,5.69,55,11.7,77.9,27.2C415.4,194.81,432.69,222.84,437.3,252.9Z" transform="translate(-12.55 -7.16)"/><path class="cls-2" d="M359.65,260.82a93.18,93.18,0,0,1-9.42,55L349,316l-4.17-3-.35-.19a69,69,0,0,0,7.36-49.34l0-1.6a32,32,0,0,0,7.79-1.08Z" transform="translate(-12.55 -7.16)"/><path class="cls-2" d="M325.22,219.83l.16.17a16.87,16.87,0,0,0-3.32,4.41l-.43.38a104.43,104.43,0,0,0-44-29.92l0-.82,2.2-2.56.43-.22A101.51,101.51,0,0,1,325.22,219.83Z" transform="translate(-12.55 -7.16)"/><path class="cls-2" d="M298.56,353.18l3.6,5.14q-19.55,16.26-40,31.42l-.29-.39a10.83,10.83,0,0,0-5.24-4.37q21-14.89,40.92-31.11Z" transform="translate(-12.55 -7.16)"/><path class="cls-2" d="M233.2,173.32l.14.08a6.8,6.8,0,0,0-.6,5.13l-.22.4-46.78-15.84-.07-1.21,1.47-2.2.38-.43A198.55,198.55,0,0,1,233.2,173.32Z" transform="translate(-12.55 -7.16)"/><path class="cls-2" d="M212.48,442.12l3.39,3.14-.4.44a104.3,104.3,0,0,0-27.14,45.65l-1-.28a6.06,6.06,0,0,0-4.57-.72l-1.24-1.81a89.71,89.71,0,0,1,28.69-46.48Z" transform="translate(-12.55 -7.16)"/><g id="Front-2" data-name="Front"><path class="cls-3" d="M101.42,197.27c39.36,10.54,78.93,21.14,116.4,37.37,10,4.32,19.77,9,29.32,14.21,7.7,4.19,16.1,8.59,21.53,15.7,12.81,16.78-2,37.47-14.9,48.93-13.9,12.32-31,20.24-47.15,29.08A241.43,241.43,0,0,0,165,371c-26.1,22.4-47.27,51-58.8,83.58-14.13,39.87-13.62,84.92,4.22,123.53.31.67,2.65-.13,2.41-.65-16.49-35.68-18.19-76.84-7.13-114.36,10.32-35,31.81-66,59.06-90.09a244.21,244.21,0,0,1,46-31.49c15.08-8.15,30.77-15.76,43.87-27,11.49-9.85,24.62-25.57,20.64-41.9-2-8.16-8.41-14-15.19-18.4a223.71,223.71,0,0,0-24.62-13.38c-41.94-20.42-87.22-32.56-132.11-44.58-.61-.16-2.75.8-2,1Z" transform="translate(-12.55 -7.16)"/><path class="cls-3" d="M196.3,126.94c45.11,9.47,90.56,18,135.41,28.63,20.29,4.81,40.66,11.17,58,23.09a110.17,110.17,0,0,1,36.18,42.25c17.39,35.48,14.33,78.18-6.19,111.72-21.84,35.69-60.36,55.45-92.08,80.9-32,25.67-63,66.13-47.86,109.51.24.68,2.63,0,2.41-.65-14.59-41.66,14-81.23,44.65-106.48,30.85-25.38,68.34-44.38,91.56-78,21.69-31.36,27.74-72.72,13.94-108.49a113,113,0,0,0-30-43.6c-14.78-13.15-33-21.31-51.82-26.9-23.64-7-48.18-11.21-72.29-16.28l-79.94-16.79c-.63-.13-2.75.87-2,1Z" transform="translate(-12.55 -7.16)"/><path class="cls-3" d="M187.11,160.16a204.58,204.58,0,0,1,45.4,14c1.06.47,2.79-1.06,1.38-1.68a207.12,207.12,0,0,0-46-14.15c-1.23-.23-2.43,1.52-.82,1.82Z" transform="translate(-12.55 -7.16)"/><path class="cls-3" d="M185,163.8l46.78,15.84c.84.29,2.83-.94,1.45-1.41l-46.78-15.84c-.84-.29-2.83.94-1.45,1.41Z" transform="translate(-12.55 -7.16)"/><path class="cls-3" d="M233.94,178.21a6.87,6.87,0,0,1,.81-5.42c.21-.34-.86-.18-.95-.16-.4.07-1.19.22-1.43.62a7.19,7.19,0,0,0-.85,5.61c.11.45,2.54-.17,2.41-.65Z" transform="translate(-12.55 -7.16)"/><path class="cls-3" d="M186.82,162l1.46-2.2c.33-.5-.29-.89-.71-.93a1.71,1.71,0,0,0-1.58.72l-1.46,2.2c-.33.5.29.89.71.93a1.71,1.71,0,0,0,1.58-.72Z" transform="translate(-12.55 -7.16)"/><path class="cls-3" d="M279.26,191.76a103.34,103.34,0,0,1,44.82,28.49c.43.47,2.69-.39,2.27-.84a104,104,0,0,0-45.12-28.62c-.57-.18-2.72.74-2,1Z" transform="translate(-12.55 -7.16)"/><path class="cls-3" d="M276.87,195.57a105.72,105.72,0,0,1,43.84,29.94c.59.68,2.91-.21,2.23-1a107.37,107.37,0,0,0-44.62-30.36c-.83-.3-2.82.91-1.46,1.4Z" transform="translate(-12.55 -7.16)"/><path class="cls-3" d="M323.26,224.22a17.47,17.47,0,0,1,3.38-4.43c.41-.39-.36-.51-.6-.5a2.52,2.52,0,0,0-1.61.6,18.57,18.57,0,0,0-3.57,4.71c-.23.43.84.35,1,.33a1.94,1.94,0,0,0,1.4-.71Z" transform="translate(-12.55 -7.16)"/><path class="cls-3" d="M278.6,194.29l2.19-2.56c.32-.38.28-.79-.25-.93a1.94,1.94,0,0,0-1.71.46l-2.19,2.56c-.32.38-.28.79.25.93a1.94,1.94,0,0,0,1.71-.46Z" transform="translate(-12.55 -7.16)"/><path class="cls-3" d="M351.75,262.78a35.15,35.15,0,0,0,8.27-1.17c1.5-.4,1-2.11-.46-1.72A32.25,32.25,0,0,1,352,261c-1.4,0-1.84,1.86-.2,1.83Z" transform="translate(-12.55 -7.16)"/><path class="cls-3" d="M350.61,263.8a70,70,0,0,1-7.47,49.43c-.21.38,2,.23,2.39-.4a70.37,70.37,0,0,0,7.5-49.68c-.12-.58-2.55,0-2.41.65Z" transform="translate(-12.55 -7.16)"/><path class="cls-3" d="M343.88,313.72l4.17,3c.91.64,3-.62,1.85-1.43l-4.17-3c-.91-.64-3,.62-1.85,1.43Z" transform="translate(-12.55 -7.16)"/><path class="cls-3" d="M351.42,315.63a95.21,95.21,0,0,0,9.44-55.14c-.05-.4-2.49.07-2.41.65a94.86,94.86,0,0,1-9.4,54.94c-.13.26,2.08.15,2.38-.45Z" transform="translate(-12.55 -7.16)"/><path class="cls-3" d="M296.46,352.23l4.72,6.75c.44.63,2.65-.3,2.41-.65l-4.72-6.75c-.44-.63-2.65.3-2.41.65Z" transform="translate(-12.55 -7.16)"/><path class="cls-3" d="M257.19,385.71q21.08-15,41.18-31.29c1.27-1-.66-1.86-1.6-1.1q-20.1,16.29-41.18,31.29c-1.33.95.63,1.79,1.6,1.1Z" transform="translate(-12.55 -7.16)"/><path class="cls-3" d="M263,390q20.51-15.24,40.16-31.56c1-.86-1.36-.79-1.92-.32q-19.65,16.32-40.16,31.56c-1.07.79,1.34.75,1.92.32Z" transform="translate(-12.55 -7.16)"/><path class="cls-3" d="M255,385.26a10.79,10.79,0,0,1,5.64,4.42c.41.64,2.66-.26,2.41-.65a11.53,11.53,0,0,0-6.09-4.77,2.41,2.41,0,0,0-1.69.29c-.25.13-.8.53-.27.71Z" transform="translate(-12.55 -7.16)"/><path class="cls-3" d="M211.36,442.58l3.9,3.61c.59.55,2.86-.36,2.25-.93l-3.9-3.61c-.59-.55-2.86.36-2.25.93Z" transform="translate(-12.55 -7.16)"/><path class="cls-3" d="M209.29,441.94a91.91,91.91,0,0,0-28.94,46.78c-.18.71,2.22.35,2.4-.36a90.75,90.75,0,0,1,28.43-46.18c1-.86-1.39-.67-1.89-.24Z" transform="translate(-12.55 -7.16)"/><path class="cls-3" d="M183,491.14a4.72,4.72,0,0,1,3.43.61,1.66,1.66,0,0,0,1.73-.16c.37-.27.67-.88.15-1.18a7.76,7.76,0,0,0-5.72-.83c-.45.1-1.15.55-1,1.1s1,.55,1.42.46Z" transform="translate(-12.55 -7.16)"/><path class="cls-3" d="M214.37,445.79a107,107,0,0,0-27.29,46c-.14.48,2.2.19,2.38-.42a106.36,106.36,0,0,1,27.1-45.72c.5-.5-1.77-.24-2.19.18Z" transform="translate(-12.55 -7.16)"/></g></g><g id="Auto"><g id="Auto-2" data-name="Auto"><path class="cls-4" d="M349.75,338.13q3.84,6.05,7.7,12.08l-.25.51a26.92,26.92,0,0,0-.34,8.67l-.16.09-7.26-13.61-.39-.61a10.41,10.41,0,0,1-.68-6.76Z" transform="translate(-12.55 -7.16)"/><path class="cls-4" d="M294.36,355.92h-.11a201.87,201.87,0,0,1-21,11.69l-.3.13a152.8,152.8,0,0,1,5.95,15.36l1.36-.44,19.94-11.05.38-.49A34,34,0,0,1,294.36,355.92Zm11.19,11.63,1-.45a105.06,105.06,0,0,1,15.28-7.84l-.07-.67L315.6,344l0-.08a129.81,129.81,0,0,0-15.77,8.78l-.58,1.1Zm23.75-11.67a49.8,49.8,0,0,1,17.75-9.13l2-1.48.39.61,7.26,13.61.24.44-.52,1-4.53,3-.65.49a10.89,10.89,0,0,0-1.13-1.09,8.22,8.22,0,0,0-10-.79,9.13,9.13,0,0,0-4.3,5.63,7,7,0,0,0,1.45,6.1l-.07.06a6.28,6.28,0,0,0,.51,1.54l-1.39.66-2.17,1.5-.45.16q-21.2,15.81-43.11,30.65l-1.17.7a9.81,9.81,0,0,0-1.21-.77,10.41,10.41,0,0,0-14.3,13.69l-.49,1.26a242.32,242.32,0,0,0-19.54,14.38l-.25.16q-7.42-12-14.83-23.92l.67-.54a397.66,397.66,0,0,1,32.86-24.08,4.09,4.09,0,0,0,1.41-1.53c.79-1.5-.67-3.71-1.21-5.11l-.84-2.16c-.48-1.24-.93-2.48-1.39-3.73q-2.05-5.63-3.84-11.38l.47-.15a431.45,431.45,0,0,1,51.34-28.55l1.33-.4a203,203,0,0,0,7,19.73L328,356c0-.1,0-.21.05-.31Z" transform="translate(-12.55 -7.16)"/><path class="cls-4" d="M348.51,337.59l.08.16a7.39,7.39,0,0,0-.21.75,10.41,10.41,0,0,0,.68,6.76l-2,1.48a49.8,49.8,0,0,0-17.75,9.13l-1.28-.23q.85-4.66,1.7-9.3l1.09.19a13.17,13.17,0,0,1,3.59-2.21Z" transform="translate(-12.55 -7.16)"/><path d="M337.28,374.34a7,7,0,0,1-1.45-6.1,9.13,9.13,0,0,1,4.3-5.63,8.22,8.22,0,0,1,10,.79,10.89,10.89,0,0,1,1.13,1.09,10.46,10.46,0,0,1,2.47,9.19,9.25,9.25,0,0,1-8.09,7,8.36,8.36,0,0,1-7.9-4.75,6.28,6.28,0,0,1-.51-1.54Zm10-2.54a3.21,3.21,0,0,0-2.06-3.28,3.26,3.26,0,0,0-2.36.41,3.48,3.48,0,0,0-1.12.86,1.73,1.73,0,0,0-.42,1.32c.11.77.84,1.29,1.5,1.72a4.45,4.45,0,0,0,1.42.66,1.51,1.51,0,0,0,1.33-.33h0A1.61,1.61,0,0,0,347.28,371.8Z" transform="translate(-12.55 -7.16)"/><path class="cls-4" d="M329.64,345.68l.14.36c0,.1,0,.2-.06.3q-.84,4.65-1.7,9.3c0,.1,0,.21-.05.31l-1.34.55a203,203,0,0,1-7-19.73l0-.07.56-.17c.22-2.55.44-5.09.67-7.65,0-.47.07-.93.12-1.4Z" transform="translate(-12.55 -7.16)"/><path class="cls-4" d="M319.58,336.71l0,.07-1.33.4a431.45,431.45,0,0,0-51.34,28.55l-.47.15c-.06-.18-.12-.36-.17-.54l-.45-.63q1.58-5.32,3.18-10.65l1.56-.34,48.16-25,2.08.18c-.22,2.55-.44,5.09-.67,7.65Z" transform="translate(-12.55 -7.16)"/><path class="cls-1" d="M315.6,344l6.15,14.6.07.67a105.06,105.06,0,0,0-15.28,7.84l-1,.45-6.34-13.77.58-1.1a129.81,129.81,0,0,1,15.77-8.78Z" transform="translate(-12.55 -7.16)"/><path class="cls-1" d="M300.62,371.13l-.38.49L280.3,382.67l-1.36.44A152.8,152.8,0,0,0,273,367.76l.3-.13a201.87,201.87,0,0,0,21-11.69h.11A34,34,0,0,0,300.62,371.13Z" transform="translate(-12.55 -7.16)"/><path d="M284,418.22l-.13-.33a4.64,4.64,0,0,0,1.16-.58,1.52,1.52,0,0,0,.62-1.09,1.41,1.41,0,0,0-.53-1.1,3,3,0,0,0-1.14-.56,4.4,4.4,0,0,0-2.35-.08,2.8,2.8,0,0,0-1.82,1.44,2.07,2.07,0,0,0,.29,2.23,2.39,2.39,0,0,0,2,.64A6.77,6.77,0,0,0,284,418.22Zm8-5.3a8.44,8.44,0,0,1,0,5.6,10.87,10.87,0,0,1-7.67,7.24,9.91,9.91,0,0,1-9.88-3.39l-.61.14a10.41,10.41,0,0,1,14.3-13.69,9.81,9.81,0,0,1,1.21.77A7.72,7.72,0,0,1,292,412.93Z" transform="translate(-12.55 -7.16)"/><path class="cls-4" d="M272.53,383.14c.54,1.39,2,3.61,1.21,5.11a4.09,4.09,0,0,1-1.41,1.53,397.66,397.66,0,0,0-32.86,24.08l0,0q.59-6.41,1.18-12.82l.3,0q14.93-10.32,30.37-19.85l.38-.15Z" transform="translate(-12.55 -7.16)"/><g id="Front-3" data-name="Front"><path class="cls-3" d="M237.53,414.62l15.57,25.11c.44.7,2.72-.16,2.41-.65L239.94,414c-.44-.7-2.72.16-2.41.65Z" transform="translate(-12.55 -7.16)"/><path class="cls-3" d="M240.68,413.76l1.18-12.83c.12-1.3-2.35-1-2.45.16l-1.18,12.83c-.12,1.3,2.35,1,2.45-.16Z" transform="translate(-12.55 -7.16)"/><path class="cls-3" d="M239.08,415.3c10.47-8.54,21.41-16.31,32.5-24,3.86-2.67,4-4,2.15-8.47-2.4-5.8-4.36-11.82-6.25-17.8-.32-1-2.73-.37-2.41.65,1.57,5,3.26,10,5.12,14.87,1,2.59,3.41,6.08,1.36,8.76-1.36,1.77-5,3.36-6.86,4.61q-14,9.63-27.17,20.41c-1.27,1,.69,1.7,1.57,1Z" transform="translate(-12.55 -7.16)"/><path class="cls-3" d="M254.69,438.71q9.43-7.65,19.53-14.38c1.36-.91-.62-1.76-1.6-1.1q-10.1,6.73-19.53,14.38c-1.27,1,.66,1.87,1.6,1.1Z" transform="translate(-12.55 -7.16)"/><path class="cls-3" d="M241.75,401.57q14.81-10.21,30.1-19.69c1.38-.86.11-2.25-1.09-1.51q-15.56,9.64-30.63,20c-1.34.93.61,1.88,1.62,1.18Z" transform="translate(-12.55 -7.16)"/><path class="cls-3" d="M267,364.53l3.18-10.65c.2-.66-2.19-.34-2.4.37l-3.18,10.65c-.2.66,2.19.34,2.4-.37Z" transform="translate(-12.55 -7.16)"/><path class="cls-3" d="M267.74,366.32a442.87,442.87,0,0,1,51.08-28.38c1.49-.7.17-2.13-1.1-1.53a447.59,447.59,0,0,0-51.61,28.72c-1.37.88.59,1.87,1.63,1.2Z" transform="translate(-12.55 -7.16)"/><path class="cls-3" d="M271.3,354l48.17-25c1.43-.74-.74-1-1.46-.59l-48.17,25c-1.43.74.74,1,1.46.59Z" transform="translate(-12.55 -7.16)"/><path class="cls-3" d="M322.43,327.76l-.29-.68c-.39-.93-2.34-.57-2.43.42l-.79,9.14c-.1,1.21,2.35.86,2.44-.2l.79-9.14-2.43.42.29.68c.44,1,2.83.35,2.41-.65Z" transform="translate(-12.55 -7.16)"/><path class="cls-3" d="M318.12,336.22a220.74,220.74,0,0,0,7.5,21.08c.31.75,2.68,0,2.41-.65a220.74,220.74,0,0,1-7.5-21.08c-.22-.74-2.63-.08-2.41.65Z" transform="translate(-12.55 -7.16)"/><path class="cls-3" d="M329.19,355.86l1.82-9.91c.22-1.19-2.25-.88-2.44.19l-1.82,9.91c-.22,1.19,2.25.88,2.44-.19Z" transform="translate(-12.55 -7.16)"/><path class="cls-3" d="M319.67,327.72,328.43,346c.3.63,2.63-.19,2.41-.65l-8.76-18.28c-.3-.63-2.63.19-2.41.65Z" transform="translate(-12.55 -7.16)"/><path class="cls-3" d="M329.3,357a49.82,49.82,0,0,1,18.88-9.77c1.46-.4,1.1-1.78-.37-1.38a54,54,0,0,0-20.48,10.63c-1.09.9,1.29,1.08,2,.52Z" transform="translate(-12.55 -7.16)"/><path class="cls-3" d="M350.26,344.94a10.37,10.37,0,0,1-.46-7.32c.28-1-2.16-.64-2.43.26a11,11,0,0,0,.47,7.7c.4.92,2.79.2,2.41-.65Z" transform="translate(-12.55 -7.16)"/><path class="cls-3" d="M331.91,346.47c2.59-2.13,6.17-3.35,9.19-4.79l8.38-4c1.44-.69-.79-.7-1.41-.41l-10.78,5.14c-2.62,1.25-5.33,2.33-7.58,4.19-.55.46,1.72.27,2.2-.13Z" transform="translate(-12.55 -7.16)"/><path class="cls-3" d="M348.24,346.21l7.5,14c.39.73,2.71-.09,2.41-.65l-7.5-14c-.39-.73-2.71.09-2.41.65Z" transform="translate(-12.55 -7.16)"/><path class="cls-3" d="M348.64,338.63l7.7,12.09c.51.8,2.84,0,2.23-1l-7.7-12.09c-.51-.8-2.84,0-2.23,1Z" transform="translate(-12.55 -7.16)"/><path class="cls-3" d="M358.07,359.08a28.26,28.26,0,0,1,.33-8.52c.16-.83-2.26-.43-2.41.33a29.31,29.31,0,0,0-.33,8.84c.08.72,2.51.2,2.41-.65Z" transform="translate(-12.55 -7.16)"/><path class="cls-3" d="M352.84,364.13l4.53-3c.43-.29.23-.63-.19-.72a2.46,2.46,0,0,0-1.71.46l-4.53,3c-.43.29-.23.63.19.72a2.46,2.46,0,0,0,1.71-.46Z" transform="translate(-12.55 -7.16)"/><path class="cls-3" d="M291.35,409.29q21.89-14.86,43.11-30.65c1.31-1-.73-1.36-1.51-.78q-21.22,15.79-43.11,30.65c-1.35.92.71,1.32,1.51.78Z" transform="translate(-12.55 -7.16)"/><path class="cls-3" d="M271.71,367.9a165.32,165.32,0,0,1,6.39,16.65c.35,1.07,2.76.41,2.41-.65a165.32,165.32,0,0,0-6.39-16.65c-.46-1-2.86-.34-2.41.65Z" transform="translate(-12.55 -7.16)"/><path class="cls-3" d="M274,367.89A212.8,212.8,0,0,0,295,356.2c1.37-.87-.77-1-1.45-.54a212.8,212.8,0,0,1-20.95,11.69c-1.44.7.75.88,1.45.54Z" transform="translate(-12.55 -7.16)"/><path class="cls-3" d="M293.1,355.92a36.19,36.19,0,0,0,6.41,15.75c.66.92,3,0,2.21-1.08a35,35,0,0,1-6.21-15.32c-.18-1.16-2.6-.55-2.41.65Z" transform="translate(-12.55 -7.16)"/><path class="cls-3" d="M281,382.88,301,371.83c1.4-.78-.79-.77-1.42-.43l-19.94,11.05c-1.4.78.79.77,1.42.43Z" transform="translate(-12.55 -7.16)"/><path class="cls-3" d="M298,354.1l6.6,14.33c.26.56,2.59-.26,2.41-.65l-6.6-14.33c-.26-.56-2.59.26-2.41.65Z" transform="translate(-12.55 -7.16)"/><path class="cls-3" d="M300.61,353.26a136.34,136.34,0,0,1,15.79-8.75c1.49-.7.17-2.08-1.09-1.49A141.09,141.09,0,0,0,299,352.1c-1.37.88.6,1.82,1.62,1.16Z" transform="translate(-12.55 -7.16)"/><path class="cls-3" d="M314.4,344.31l6.14,14.6c.38.9,2.76.18,2.41-.65l-6.14-14.6c-.38-.9-2.76-.18-2.41.65Z" transform="translate(-12.55 -7.16)"/><path class="cls-3" d="M307.33,367.63a109.83,109.83,0,0,1,15-7.68c1.53-.64.17-1.91-1.06-1.39a113.84,113.84,0,0,0-15.55,8c-1.39.85.61,1.67,1.59,1.07Z" transform="translate(-12.55 -7.16)"/><path class="cls-3" d="M275.12,422.2c-1.6-3.93-1.28-8.36,2-11.41,4.14-3.89,12.11-2.77,13.91,3,1.12,3.59-.82,7.71-3.77,9.83-3.83,2.76-8.65,1.6-11.6-1.76-.66-.75-3,.18-2.22,1a11.39,11.39,0,0,0,13.39,2.86c4.83-2.24,8.69-8.41,6.19-13.65s-9.37-6.38-14.25-4.31a11.39,11.39,0,0,0-6,15.06c.4,1,2.8.29,2.41-.65Z" transform="translate(-12.55 -7.16)"/><path class="cls-3" d="M335.09,378.17l2.17-1.51c.38-.26.3-.56-.16-.6a2.82,2.82,0,0,0-1.71.46L333.22,378c-.38.26-.3.56.16.6a2.82,2.82,0,0,0,1.71-.46Z" transform="translate(-12.55 -7.16)"/><path class="cls-3" d="M338.95,374.45a7.19,7.19,0,0,1-.12-9.92c1.16-1.2,5-2.7,6.58-2.55a7,7,0,0,1,2.72,1.21,10.4,10.4,0,0,1,3.79,4.66c1.31,3.13,1.15,7.52-1.51,10-4.55,4.18-10.49,1.66-12-3.74-.17-.59-2.58.06-2.41.65,3.61,12.9,24,4.26,18.12-8.05-6.24-13-26.45-.77-17.43,8.62.45.47,2.69-.4,2.27-.84Z" transform="translate(-12.55 -7.16)"/><path class="cls-3" d="M344.59,373.16q1.28-.05.05-.33-.35-.18-.68-.4a5.5,5.5,0,0,1-.84-.61,1.63,1.63,0,0,1,.34-2.71c1.11-.54,2.13.8,2.47,1.67a2.49,2.49,0,0,1,.19,1,1.57,1.57,0,0,1-.24.81q-.78.73.49.12a3,3,0,0,0-1.71.46c-.32.25-.4.43.12.45,1.78.06,4.22-1,3.68-3.15-.66-2.62-3.31-2.77-5.43-2-1.79.65-4.17,2.47-2,4.26,1.61,1.36,4.13,1.8,5.79.2.38-.37-.34-.33-.55-.32a2.92,2.92,0,0,0-1.62.56Z" transform="translate(-12.55 -7.16)"/><path class="cls-3" d="M283.67,417.77c-1,.4-2.21.71-2.72-.5a1.76,1.76,0,0,1,.58-2.09c1.51-.95,4.3,1.37,1.88,2.31-.33.13-.94.44-.67.85s1.3.07,1.58,0c1.34-.52,3.57-1.91,2-3.51-1.33-1.4-4.06-1.2-5.67-.53s-3.07,2.42-1.93,4.08c1.28,1.86,4.16.93,5.81.24.33-.14.94-.43.67-.85s-1.3-.07-1.58,0Z" transform="translate(-12.55 -7.16)"/></g></g><g id="Blase"><path class="cls-2" d="M421.63,314.39c-1,1.5-4.54,2.49-5.82,2.49-3.05,0-5.43-2.43-6.18-5.21-2.8.26-4.68.86-5.8-2.41-.47-1.39-.57-4.35.72-5.68.91,1.16,2.14,2.11,2.95.74s-1.36-1.51-2-1.32a2.14,2.14,0,0,0-1,.58,8.43,8.43,0,0,1-1.13-1.92c-.8-2.38-1-5.55,1.09-7.32a8.85,8.85,0,0,1,2.14-1c.63,1.09,1.55,1.76,1.74.65s-.75-1-1.74-.65a3.58,3.58,0,0,1-.53-2.38c.84-3.39,4.64-2.94,7.25-2h1.09c-3.14-2.08-4.57-6.64-1.27-9.34a7,7,0,0,1,10.24,2.15c.52-2.09,1.74-5.4,4.55-5.39,2.36,0,4,2.67,4.52,4.72.69-2.85,1.38-7.21,5.34-6.83,2.23.21,3.82,2.52,4.13,4.74a2.71,2.71,0,0,0,0,1.52,5.18,5.18,0,0,0,0-1.52,5,5,0,0,1,3.91-3.55c2.48-.13,2.77,2.33,3.27,4.11,1.57-1.33,4-3.74,6.32-2.93,2.06.73,2.29,3.42,2.6,5.28,2.23-.92,5.09-1.36,7.13.4,1.58,1.36,2.3,3.86.79,5.49,1.89-.31,4.15-.85,5.16,1.13,1.23,2.43-1.05,4.74-2.33,6.47,6.28.64,2.77,8.27-1.09,9.89,2.32,3.22-2.69,7.7-5.75,7.82,1.26,5.48-7.67,5.32-10.72,3.7.77,2.39-3.83,3.66-5.47,3.66-2.51,0-3.95-2-5.23-3.91-.67,2.52-2.25,4.25-5.11,4.39-3.13.15-3.84-1.89-5.69-3.77-2.32,1.24-4,2.89-6.32.54A7.11,7.11,0,0,1,421.63,314.39Zm0,0a1.35,1.35,0,0,0,.14-1.37A2.33,2.33,0,0,0,421.63,314.38Z" transform="translate(-12.55 -7.16)"/><path class="cls-2" d="M391.83,317.49l0,.08c-2,.86-5.15,2.13-6.83.23s-.78-6,.79-7.68C390.93,304.68,398.44,314.81,391.83,317.49Z" transform="translate(-12.55 -7.16)"/><path class="cls-2" d="M375.23,322.16c5.39-1.48,6.71,5.66,1.61,6.61h-.18C372.23,329,370.74,323.4,375.23,322.16Z" transform="translate(-12.55 -7.16)"/><path class="cls-2" d="M366.06,334.79a5,5,0,0,0-.59.55,1.29,1.29,0,0,0-.18.68v0c-2.19-.31-1.15-4.21.84-4.47C368.75,331.24,368.6,334.35,366.06,334.79Z" transform="translate(-12.55 -7.16)"/><g id="Front-4" data-name="Front"><path class="cls-3" d="M415.59,288.49c-2-1.56-4-4.3-2.61-6.9,1-1.84,5-2.66,6.93-1.75a5.64,5.64,0,0,1,2.4,2.39c.39.61,2.16,0,2.33-.62.57-2,.4-1.92,2.91-2.58,2.78-.73,2.93-.16,3.75,2.39.25.78,2.26.15,2.41-.49a12.65,12.65,0,0,1,1.22-4c2.77-4.18,5.94.87,5.86,3.77l2.41-.49q3.79-4.6,4.36-1.72.21.7.38,1.41c.2.75,1.82.14,2.17-.16,1.51-1.31,3.84-3.89,6.11-.56.51.75.51,2.22.64,3.06.09.6,1.41.22,1.67.13,3.46-1.23,9,1,6.34,5.43-.37.61.55.69.94.63q3.57-1.15,3.62,4.65-.82,1.2-1.73,2.33c-.25.33.06.57.37.63,5.6,1.07,2.08,7.29-1.08,8.94-.16.08-.59.4-.47.64,1.5,3-1.31,6.4-4.37,6.87-.41.06-1.46.34-1.38.95.52,4.1-5.82,4-8.55,2.81-.57-.25-2.23.06-2.17.89q-2.83,4.66-6.69,1.17a16.74,16.74,0,0,1-1.67-2.2c-.43-.62-2.13,0-2.33.62-.95,2.74-3.25,4.24-6.49,2.24a13.19,13.19,0,0,1-2-2.25c-.4-.45-1.47-.09-1.86.14-3.27,1.87-6.59-.06-6-4l-2.41.49c.48,2.93-5,3-6.21,2.45-1.81-.79-2.88-2.68-3.51-4.43-.13-.37-.73-.33-1-.3-2.77.29-4.89-1.32-5.08-4l.19-2q2.19-1,.7-2c0,.28-1.33-3-1.33-2.94a7.86,7.86,0,0,1,0-3.76q.51-2.54,2.63-1.8l1.87-.62c-3.83-.82.39-5.39,3.57-4.4.69.22,2.87-.83,1.93-1.12-2.46-.77-5.88-1.41-8.05.53-1.95,1.74-1.81,5.63,1.05,6.24a2.08,2.08,0,0,0,1.87-.62c1.06-1.91-.7-2.12-2.23-1.89a6.09,6.09,0,0,0-5.28,5.28c-.3,2.36.88,6.91,3.69,7.61a2.73,2.73,0,0,0,3.46-2.21.29.29,0,0,0-.08-.3,4.07,4.07,0,0,0-5.88,1.36,6.94,6.94,0,0,0,.36,6.5c1.06,1.49,2.14,1.29,3.74,1.63,1.91.4,1.2,0,2.47,1.72a8.51,8.51,0,0,0,1.77,1.93,7,7,0,0,0,5.09,1.27c2.39-.26,7.18-1.69,6.67-4.76-.13-.77-2.32-.16-2.41.49-.33,2.36,1,5.29,3.45,6.13s4.57-.72,6.48-1.81l-1.86.14c2.4,2.67,4.14,4.6,8,3.74a6.9,6.9,0,0,0,5.16-5l-2.33.62c2.14,3.07,4.39,4.67,8.16,3.77,2.24-.54,5-1.66,4.87-4.31l-2.17.89c4,1.8,13.72,1.92,12.9-4.58l-1.38.95c3-.47,6.82-2.57,7.59-5.81.16-.67-.14-1.47,0-2.06.28-1.09.47-1,1.49-2a8.84,8.84,0,0,0,2.38-4.05,4,4,0,0,0-.65-3.76A12.65,12.65,0,0,0,470.7,295c-.32-1,1.37-2.31,1.65-3.24,1.4-4.64-2.72-5.15-6.18-4.58l.94.63a4.55,4.55,0,0,0-2-6.76c-2.36-1.17-5.17-.41-7.48.41l1.67.13c-1.19-7.54-6.34-6.29-11.08-2.19l2.17-.16c-.68-2.59-1.51-4.8-4.62-4.35a5.66,5.66,0,0,0-4.95,5.95c.06.72,2.39.19,2.41-.49.1-3.75-2.24-7.32-6.38-6.68-3.82.6-4.75,4.33-5.52,7.57l2.41-.49c-2.44-7.66-9.65-5.35-11.48,1.16l2.33-.62c-5.79-9-20.69.56-11.21,8.11.63.5,2.86-.44,2.25-.92Z" transform="translate(-12.55 -7.16)"/><path class="cls-3" d="M391.69,316.87a9.88,9.88,0,0,1-3.88,1.17c-1.74-.05-2.44-1.71-2.47-3.23,0-2,1.06-5.66,3.63-5.51,3.74.21,6.12,6.26,2,7.76-.41.15-.92.62-.62,1.06s1.22.22,1.61.08c2.17-.79,3.92-2.5,3.66-5a6.46,6.46,0,0,0-3.64-4.9,6.18,6.18,0,0,0-6.64,1c-2.09,1.81-3.25,5.59-1.91,8.15,1.83,3.49,6.56,1.62,9.26.48,1.54-.65.15-1.62-1-1.14Z" transform="translate(-12.55 -7.16)"/><path class="cls-3" d="M377.45,328.29a3.55,3.55,0,0,1-3.64-2.61c-.37-1.54.64-3.44,2.41-3.22a3,3,0,0,1,2.56,2.52c.22,1.19-.34,3.08-1.71,3.37-.26.06-1.4.27-1.42.64s.73.25,1,.2c2.19-.47,4.64-1.65,4.64-4.24,0-2.25-2-3.51-4-3.46s-5.47,1.06-5.86,3.6,2.2,4.18,4.52,4.15a2.92,2.92,0,0,0,1.71-.46c.28-.25.42-.5-.13-.49Z" transform="translate(-12.55 -7.16)"/><path class="cls-3" d="M365.74,335.14c-1-.16-.27-2.29.35-2.59a.51.51,0,0,1,.72.35c.12.61-.52.9-1,1s-1.11.63-1,1.21.95.67,1.45.57c1.44-.3,3-1.43,2.95-3.06s-2.09-2.25-3.52-1.89c-2.74.68-4.45,5.68-.8,6.28,1.26.21,2.42-1.6.81-1.86Z" transform="translate(-12.55 -7.16)"/></g><text class="cls-5" transform="translate(413.44 288.63)">weit,<tspan x="-13.57" y="11">weit weg...</tspan></text></g></g><g id="Sieger"><g id="Podest"><path class="cls-4" d="M394.42,578.41c0,.1,0,.21,0,.31H394a573,573,0,0,0-99.95,5.08l-.15-1.15a51.84,51.84,0,0,1,2.53-16.16l.47-1.16.49,0c8.36-.35,16.71-1,25-2.14l1.4-.53c0-1.91,0-3.83,0-5.74q.1-6,.68-11.91l.61-.41,49.46.39.56.16a187,187,0,0,0-5,24l0,.47,1.31.1q10.71.82,21.45.71l1.23-1.07,2.4-4.5.93.5v6.38l.41.52a26,26,0,0,0-2.48,6.18Zm-41.18-19.57a7,7,0,0,0-2.13-5.55,7.76,7.76,0,0,0-4.79-2.41,6.47,6.47,0,1,0,2.87,11.92h0A4.47,4.47,0,0,0,353.24,558.84Z" transform="translate(-12.55 -7.16)"/><path class="cls-4" d="M396.61,564.5l-.18.34-2.4,4.5-1.23,1.07q-10.74.12-21.45-.71l0-.25a38.19,38.19,0,0,1,4.14-6.59l.82.14,19.27.86Z" transform="translate(-12.55 -7.16)"/><path class="cls-4" d="M379.12,537.31l.68.36a101.76,101.76,0,0,0-4.27,24l0,1.14a38.19,38.19,0,0,0-4.14,6.59l0,.25-1.31-.1,0-.47a187,187,0,0,1,5-24l-.56-.16.34-1a48.42,48.42,0,0,1,4.13-6.55Z" transform="translate(-12.55 -7.16)"/><path class="cls-4" d="M378.19,536.86l.83.59a48.42,48.42,0,0,0-4.13,6.55l-.34,1-49.46-.39v-1.21c1.14-2.27,2.37-4.49,3.71-6.65l.13.08Q353.55,535.86,378.19,536.86Z" transform="translate(-12.55 -7.16)"/><path class="cls-2" d="M351.11,553.29a7,7,0,0,1,2.13,5.55,4.47,4.47,0,0,1-4,4h0a6.47,6.47,0,1,1-2.87-11.92A7.76,7.76,0,0,1,351.11,553.29Z" transform="translate(-12.55 -7.16)"/><path class="cls-4" d="M323.8,556.9c0,1.91,0,3.83,0,5.74l-1.4.53c-8.3,1.14-16.65,1.79-25,2.14l0-.61c1.47-2,2.93-4,4.39-5.92h.57l19.89-1.9Z" transform="translate(-12.55 -7.16)"/><g id="Front-5" data-name="Front"><path class="cls-3" d="M295.11,582.33a54.6,54.6,0,0,1,2.53-16c.24-.78-2.17-.45-2.41.32A55.54,55.54,0,0,0,292.69,583c0,.68,2.41.25,2.41-.65Z" transform="translate(-12.55 -7.16)"/><path class="cls-3" d="M296.77,566.13c8.53-.37,17-1,25.5-2.17,1.27-.17,1.92-1.81.26-1.59-8.47,1.13-17,1.8-25.5,2.17-1.3.06-1.92,1.67-.26,1.59Z" transform="translate(-12.55 -7.16)"/><path class="cls-3" d="M325,562.31a163.32,163.32,0,0,1,.68-17.65c0-.42-2.34-.14-2.41.65A163.32,163.32,0,0,0,322.6,563c0,.49,2.43.11,2.41-.65Z" transform="translate(-12.55 -7.16)"/><path class="cls-3" d="M325,545.47l49.47.39c1.38,0,1.85-1.75.21-1.77l-49.47-.39c-1.38,0-1.85,1.75-.21,1.77Z" transform="translate(-12.55 -7.16)"/><path class="cls-3" d="M373.92,545.34a200.77,200.77,0,0,0-5,24c-.08.58,2.3.16,2.38-.42a200.77,200.77,0,0,1,5-24c.14-.5-2.21-.19-2.38.42Z" transform="translate(-12.55 -7.16)"/><path class="cls-3" d="M369.57,570.34q11.37.89,22.77.81c1,0,2.54-1.48.91-1.47q-11.41.09-22.77-.81c-1-.08-2.54,1.34-.91,1.47Z" transform="translate(-12.55 -7.16)"/><path class="cls-3" d="M393.28,571.1l-.08,8.45c0,.59,2.41.19,2.41-.65l.08-8.45c0-.59-2.41-.19-2.41.65Z" transform="translate(-12.55 -7.16)"/><path class="cls-3" d="M293.09,584.45A582.8,582.8,0,0,1,393.5,579.3c.78,0,2.61-1.1,1-1.16a586.34,586.34,0,0,0-101,5.21c-1.06.15-2.08,1.34-.39,1.1Z" transform="translate(-12.55 -7.16)"/><path class="cls-3" d="M348.66,562.13c-5.48,3-10.86-4.39-6.67-8.81,2.35-2.48,5.84-1.69,8,.5,1.9,1.92,3.66,7.61-.67,8.13-1.31.16-1.88,1.89-.23,1.69a5.88,5.88,0,0,0,4.69-8.61,8.62,8.62,0,0,0-10.89-4.38A7.33,7.33,0,0,0,339,560.87c2.09,3.89,7.08,4.59,10.74,2.61,1.45-.78.14-2-1.05-1.35Z" transform="translate(-12.55 -7.16)"/><path class="cls-3" d="M344.63,557.19l3-1.9c.41-.27.62-.83.16-1.15a1.69,1.69,0,0,0-1.72.17l-3,1.9c-.41.27-.62.83-.16,1.15a1.69,1.69,0,0,0,1.72-.17Z" transform="translate(-12.55 -7.16)"/><path class="cls-3" d="M346.35,554.92a21.94,21.94,0,0,1-.45,5.13c-.21,1,2.24.67,2.43-.25a21.94,21.94,0,0,0,.45-5.13c0-1.12-2.45-.65-2.43.25Z" transform="translate(-12.55 -7.16)"/><path class="cls-3" d="M298.38,565.07l4.39-5.93c.91-1.23-1.36-1.64-2-.73l-4.39,5.93c-.91,1.23,1.36,1.64,2,.73Z" transform="translate(-12.55 -7.16)"/><path class="cls-3" d="M302.23,559.69l19.88-1.91c1.37-.13,1.84-2,.2-1.82l-19.88,1.91c-1.37.13-1.84,2-.2,1.82Z" transform="translate(-12.55 -7.16)"/><path class="cls-3" d="M326.29,543.21q1.73-3.44,3.76-6.72c.56-.9-1.85-.64-2.24,0q-2.12,3.44-3.93,7.05c-.31.62,2,.4,2.41-.33Z" transform="translate(-12.55 -7.16)"/><path class="cls-3" d="M328.8,537.62q24.48-.9,49,.07c1.1,0,2.5-1.57.87-1.64q-24.78-1-49.58-.06c-1.32,0-1.9,1.7-.25,1.64Z" transform="translate(-12.55 -7.16)"/><path class="cls-3" d="M376,544.17a51.37,51.37,0,0,1,4.09-6.47c.92-1.24-1.34-1.73-2-.79a55.07,55.07,0,0,0-4.37,6.92c-.66,1.23,1.79,1.33,2.32.33Z" transform="translate(-12.55 -7.16)"/><path class="cls-3" d="M372.53,569.6a37.69,37.69,0,0,1,4-6.37c.94-1.21-1.34-1.61-2-.72a40.41,40.41,0,0,0-4.28,6.81c-.61,1.23,1.83,1.25,2.31.29Z" transform="translate(-12.55 -7.16)"/><path class="cls-3" d="M376.73,561.55A109.1,109.1,0,0,1,381,537.5c.22-.75-2.18-.42-2.41.34a109.1,109.1,0,0,0-4.28,24.05c-.06.88,2.36.39,2.41-.34Z" transform="translate(-12.55 -7.16)"/><path class="cls-3" d="M395.19,569.5l2.59-4.84c.29-.55-.27-1-.75-1.08a1.54,1.54,0,0,0-1.57.76l-2.59,4.84c-.29.55.27,1,.75,1.08a1.54,1.54,0,0,0,1.57-.76Z" transform="translate(-12.55 -7.16)"/><path class="cls-3" d="M375.91,563.88l19.27.87c1.17.05,2.47-1.68.84-1.75l-19.27-.87c-1.17-.05-2.47,1.68-.84,1.75Z" transform="translate(-12.55 -7.16)"/><path class="cls-3" d="M396.14,565.46v6.39c0,1.12,2.43.67,2.43-.25v-6.39c0-1.12-2.43-.67-2.43.25Z" transform="translate(-12.55 -7.16)"/><path class="cls-3" d="M396.51,578.31a26.74,26.74,0,0,1,2.4-6c.61-1.11-1.83-1-2.28-.17a28.64,28.64,0,0,0-2.55,6.39c-.27,1,2.18.71,2.43-.24Z" transform="translate(-12.55 -7.16)"/></g></g><g id="Menschen"><path class="cls-2" d="M363.2,536.57a3.84,3.84,0,0,1-.76,3.12,2.24,2.24,0,0,1-3,.35q-.66-4.34-1.3-8.67a6,6,0,0,0-.66-2.25,1.78,1.78,0,0,0-3.4.62,5.84,5.84,0,0,0,.17,2.31c.25,1.14.49,2.28.73,3.42a6.46,6.46,0,0,1,.07,3.59c-.44,1.13-1.84,2-2.89,1.38-.89-.51-1.08-1.69-1.17-2.71l-1.2-13.81v-.17h.06a81.61,81.61,0,0,1,9.38-.33l1,0a29.28,29.28,0,0,0,1.93,10A14.94,14.94,0,0,1,363.2,536.57Z" transform="translate(-12.55 -7.16)"/><path class="cls-6" d="M361,511.36a43.45,43.45,0,0,1,.25,11.56h-1c0,.16,0,.33,0,.49l-1,0a81.61,81.61,0,0,0-9.38.33l0-.58c-.1-2.75-.69-5.46-.75-8.21s.53-5.66,2.41-7.66,5.33-2.66,7.4-.85C360.25,507.64,360.72,509.56,361,511.36Z" transform="translate(-12.55 -7.16)"/><path class="cls-2" d="M355.33,504.53a2,2,0,0,1-2.28-.1,3.51,3.51,0,0,1-1.18-2.43,5.74,5.74,0,0,1,1.34-4.43,4.9,4.9,0,0,1,4.27-1.61,4.44,4.44,0,1,1-2.15,8.57Z" transform="translate(-12.55 -7.16)"/><path class="cls-2" d="M348.43,536.41a5.57,5.57,0,0,1,.3,2.7,1.73,1.73,0,0,1-2,1.37c-.84-.3-1.09-1.34-1.21-2.22-.29-2.06-.57-4.12-.86-6.18l2.8-.43A36.53,36.53,0,0,0,348.43,536.41Z" transform="translate(-12.55 -7.16)"/><path class="cls-6" d="M347.53,512.36a29.41,29.41,0,0,1,.76,12.31l-1.15.13-.94-.46-7.84.13,0-1.11a25.1,25.1,0,0,1-.44-7.62,8.52,8.52,0,0,1,3.87-6.31,3.92,3.92,0,0,1,3.87-.2A5.11,5.11,0,0,1,347.53,512.36Z" transform="translate(-12.55 -7.16)"/><path class="cls-2" d="M347.45,531.65l-2.8.43a4.29,4.29,0,0,0-.47-1.66,1.29,1.29,0,0,0-2.47.28,4.38,4.38,0,0,0-.09,1.53l.27,4.07a6,6,0,0,1-.26,2.81,2.07,2.07,0,0,1-2.26,1.32,2,2,0,0,1-1.3-1.37,6.06,6.06,0,0,1-.21-1.95l.06-12.05v-.58h.44l7.84-.13.94.46A37.35,37.35,0,0,0,347.45,531.65Z" transform="translate(-12.55 -7.16)"/><path class="cls-2" d="M345.72,500a4.41,4.41,0,0,1,1.12,4.22,5.51,5.51,0,0,1-2.85,3.4v0a3.81,3.81,0,0,1-3.43-1.2,4.88,4.88,0,0,1-.94-4.39,4.22,4.22,0,0,1,1.86-2.64A3.68,3.68,0,0,1,345.72,500Z" transform="translate(-12.55 -7.16)"/><g id="Front-6" data-name="Front"><path class="cls-3" d="M336.72,525.38c0,4-.28,8.07-.06,12.05.11,2,.58,3.72,2.87,3.48a4.15,4.15,0,0,0,3.1-1.72c1.41-2.27-1.35-8.12,1-9.52l-1.92.44c4.24.78-.17,13.25,6.32,10.54,1.91-.8,2.12-2.19,1.69-4.12a47.74,47.74,0,0,1-1.4-12.06c0-.32-2.39,0-2.41.65a39.63,39.63,0,0,0,.74,9.33c.22,1.08.93,2.52.85,3.63-.11,1.56-.54,1.12-.81-.15-.54-2.57.32-9.68-4.08-8.63-3.76.9-1.75,5.58-1.91,8.27-.11,1.81-.52,2.75-1.45,1.16-.61-1-.2-3.22-.19-4.36l0-9.64c0-.34-2.41,0-2.41.65Z" transform="translate(-12.55 -7.16)"/><path class="cls-3" d="M337.14,525l8.28-.14c.47,0,1.37-.07,1.71-.46s.46-.54-.14-.53l-8.28.14c-.47,0-1.37.07-1.71.46s-.46.54.14.53Z" transform="translate(-12.55 -7.16)"/><path class="cls-3" d="M339.54,523a23.14,23.14,0,0,1-.37-7.9c.38-2,2.72-7.76,5.9-5,1.43,1.23,1.7,4.17,2,5.86a30.5,30.5,0,0,1,0,8.85c-.1.79,2.31.34,2.4-.36.59-4.42,1.45-17.39-6-16.18s-7.26,9.72-6.37,15.38c.1.66,2.54.12,2.41-.65Z" transform="translate(-12.55 -7.16)"/><path class="cls-3" d="M344.29,506.68c-3.8,1.51-5.14-6.76-1.33-6.84,1.67,0,2.7,1.72,2.78,3.19a4.24,4.24,0,0,1-2.27,3.87c-1.43.8-.13,2,1.05,1.37,2.39-1.33,4.27-3.81,3.52-6.68a4.86,4.86,0,0,0-6.51-3.14,5.5,5.5,0,0,0-3,6.89c1,2.87,4.12,3.77,6.79,2.71,1.54-.61.17-1.86-1.05-1.37Z" transform="translate(-12.55 -7.16)"/><path class="cls-3" d="M348.6,524.24c.38,4.37.72,8.75,1.14,13.12.18,1.87.53,3.93,2.81,4a4.08,4.08,0,0,0,3.72-2.45c.56-1.36.08-3-.19-4.34-.19-.95-.47-1.9-.61-2.85l-.17-2.12q1.52.25,1.53,1.5c.69,1.51.61,3.92.85,5.54.17,1.13,0,3.17.81,4,1.07,1.11,3.33.44,4.36-.3,1.72-1.24,1.77-3.28,1.29-5.18-1.09-4.29-2.61-7.84-2.7-12.39,0-1.08-2.44-.59-2.42.27a32.13,32.13,0,0,0,1.18,8.43c.17.58,3.38,8.84.27,7-.49-.29-.65-4.3-.74-5-.22-1.44-.18-3.48-1-4.73a3,3,0,0,0-2.72-1.44c-4.06.16-3,4.67-2.44,7.3q.26,1.17.47,2.35l-1.52,2c-.61-.36-.47-3.76-.52-4.31l-1-11.05c-.08-.87-2.5-.34-2.41.65Z" transform="translate(-12.55 -7.16)"/><path class="cls-3" d="M348.69,524.3a91.9,91.9,0,0,1,9.77-.38c.53,0,2.74-1,1.56-1a96.82,96.82,0,0,0-10.29.39c-.66.06-2.62,1.15-1,1Z" transform="translate(-12.55 -7.16)"/><path class="cls-3" d="M351,522.84c-.15-2.54-.64-5.07-.72-7.61a14.15,14.15,0,0,1,.45-4.53c.69-2.3,3.24-7,7-3.78S360.44,519,360,523.07c-.09.93,2.33.48,2.41-.31.56-5.69,1.65-19.58-7.63-17.88-8.95,1.64-6.6,12.23-6.21,18.61,0,.74,2.47.26,2.41-.65Z" transform="translate(-12.55 -7.16)"/><path class="cls-3" d="M354.76,503.77c-1.12.94-1.68-2-1.7-2.39a5.35,5.35,0,0,1,.26-1.85,3.48,3.48,0,0,1,4.09-2.58c4,1.13,3,8-1.41,6.75-1-.3-2.85,1.22-1.39,1.64,3.2.93,6.87-.55,7.71-4a5.25,5.25,0,0,0-5.25-6.32,6.51,6.51,0,0,0-6.44,6c-.1,1.61.35,3.52,1.9,4.33a3.48,3.48,0,0,0,3.85-.48c1.25-1.05-.67-1.9-1.61-1.12Z" transform="translate(-12.55 -7.16)"/></g></g></g><g id="Challange"><g id="Menschen-2" data-name="Menschen"><path class="cls-2" d="M152.23,368a2.07,2.07,0,0,1-1.46,2.4c-1.24.18-2.13-1.12-2.7-2.24a32.14,32.14,0,0,0-5.73-8.63l-.53-.06c-.16-.17-.32-.33-.47-.51l-.22-.06a7.88,7.88,0,0,0,.25-1.15c.14-.9.27-1.8.38-2.7l.6.08c.19.17.41.31.62.47l.15-.11q3.83,4.89,7.66,9.79A6,6,0,0,1,152.23,368Z" transform="translate(-12.55 -7.16)"/><path class="cls-2" d="M144,321.47q.12,9.9.25,19.81l-2.8,0-7.28.52h-1.44l-.15-.17-2-15.49a6.89,6.89,0,0,1,.21-3.72,2.4,2.4,0,0,1,3.06-1.39q1.14,7,2.29,13.92c.18,1.09.65,2.45,1.75,2.48a1.64,1.64,0,0,0,1.47-1.15,4.66,4.66,0,0,0,.14-2c-.12-2.05-.25-4.09-.38-6.14a9.54,9.54,0,0,1,.59-5C140.52,321.64,142.52,320.61,144,321.47Z" transform="translate(-12.55 -7.16)"/><path class="cls-6" d="M141.45,341.31l1.28.88a119.83,119.83,0,0,1-1,12.82c-.11.9-.24,1.8-.38,2.7a7.88,7.88,0,0,1-.25,1.15,2.68,2.68,0,0,1-1.27,1.82l-.2.09h-.07a3.39,3.39,0,0,0-1.19.07,3.55,3.55,0,0,1-1-.31,7.35,7.35,0,0,1-3.42-3.68,16.61,16.61,0,0,1-1.22-5,44.94,44.94,0,0,1,0-10h1.44Z" transform="translate(-12.55 -7.16)"/><path class="cls-2" d="M139.65,360.77a3.44,3.44,0,1,1-1.64,6.65l-.21-.09a3.59,3.59,0,0,1-2.14-3.1,3.66,3.66,0,0,1,2.73-3.4A2.34,2.34,0,0,0,139.65,360.77Z" transform="translate(-12.55 -7.16)"/><path class="cls-2" d="M116.7,370.72c.57.81,1.14,1.93.53,2.7a1.58,1.58,0,0,1-2,.21,4.51,4.51,0,0,1-1.44-1.62l-6-9.38-.24-.13a7.59,7.59,0,0,0,.77-3.26h.28Q112.66,365,116.7,370.72Z" transform="translate(-12.55 -7.16)"/><path class="cls-6" d="M107.23,342.56A102,102,0,0,1,108.34,358q0,.63,0,1.26a7.59,7.59,0,0,1-.77,3.26,4.76,4.76,0,0,1-.47.7c-1.41,1.72-4,2-6.14,1.36a8.57,8.57,0,0,1-2.73-1.46,10.27,10.27,0,0,1-2.27-2.42,13.8,13.8,0,0,1-2.15-5c-.84-3.88-.31-7.91.22-11.84l.9-.41A57.78,57.78,0,0,0,107.12,342Z" transform="translate(-12.55 -7.16)"/><path class="cls-2" d="M107.31,341.81l0,.18a1,1,0,0,1-.23.05,57.78,57.78,0,0,1-12.22,1.43l-.26-.43q-1.56-7.36-3.14-14.73a8.53,8.53,0,0,1-.24-3.58,2.92,2.92,0,0,1,2.37-2.42,2.86,2.86,0,0,1,2.51,1.4,7.58,7.58,0,0,1,1,2.84,42.3,42.3,0,0,1,.65,8.26c0,1,.11,2.25,1,2.53a1.54,1.54,0,0,0,1.69-.87,4.54,4.54,0,0,0,.34-2l.15-9.06a8.17,8.17,0,0,1,.5-3.26,2.82,2.82,0,0,1,2.57-1.77,2.88,2.88,0,0,1,2.31,2.36,10.37,10.37,0,0,1-.09,3.51C105.64,331.42,106.48,336.65,107.31,341.81Z" transform="translate(-12.55 -7.16)"/><path class="cls-2" d="M103.37,365.23a3.11,3.11,0,0,1,2.72,1.39,5.51,5.51,0,0,1,.5,4.11c-.25,1.19-.86,2.49-2,2.8a3.93,3.93,0,0,1-2.47-.44,4.74,4.74,0,0,1-2.13-1.4c-.9-1.25-.37-3,.18-4.42a4.66,4.66,0,0,1,1.19-2A1.6,1.6,0,0,1,103.37,365.23Z" transform="translate(-12.55 -7.16)"/><path class="cls-2" d="M98.2,363.1h0a113.28,113.28,0,0,1-3.38,12.15,3.46,3.46,0,0,1-1.05,1.8,3.62,3.62,0,0,1-2.6.3,1.3,1.3,0,0,1-1.24-2.1q2.82-7.16,5.63-14.3l.38-.28A10.27,10.27,0,0,0,98.2,363.1Z" transform="translate(-12.55 -7.16)"/><g id="Front-7" data-name="Front"><path class="cls-3" d="M92.81,344.07c-1,7.44-1.16,21.6,9.84,21.36,2.56-.05,5.18-1.17,6.31-3.59,1-2.21.62-5.31.55-7.63a110.94,110.94,0,0,0-1.06-12c-.08-.58-2.51-.06-2.41.65a110.16,110.16,0,0,1,1.06,12c.05,1.73.35,4.46-.15,6.07-1.08,3.53-4.87,3.71-7.47,1.84-6-4.33-5.13-12.75-4.28-19.09.09-.7-2.31-.26-2.39.39Z" transform="translate(-12.55 -7.16)"/><path class="cls-3" d="M94.4,344A65.88,65.88,0,0,0,108,342.37c1.44-.33,1.18-1.29-.26-1a59.82,59.82,0,0,1-12.3,1.48c-.77,0-2.6,1.19-1,1.16Z" transform="translate(-12.55 -7.16)"/><path class="cls-3" d="M95.85,342.72l-2.44-11.46c-.22-1-1.8-5.77-.94-6.67l3.08.81a24,24,0,0,1,.59,3.12c.3,2.1-1.07,11.22,3.8,9.36s.63-10.38,2.28-13.71q-.33-1.79,1.53-1.1,2.46-.7,1.44,2.15c-.07,2.14-.4,4.21-.33,6.37a83.42,83.42,0,0,0,1.24,10.56c.14.89,2.57.31,2.41-.65a100.17,100.17,0,0,1-.86-17.14c0-2.14-.64-4.46-3.16-4.7a4.49,4.49,0,0,0-4.23,2.64c-1.08,2.3.56,12.74-1,13.29.64-.23-1.21-11.26-2-12.35A3.77,3.77,0,0,0,92.59,322c-2.35,1-2.77,3.15-2.52,5.48.56,5.3,2.26,10.71,3.37,15.93.19.9,2.61.29,2.41-.65Z" transform="translate(-12.55 -7.16)"/><path class="cls-3" d="M94.39,360.79c-1.72,4.37-3.52,8.71-5.16,13.11-.91,2.42-1.09,4.13,2,4.44a4.07,4.07,0,0,0,4.64-2.57c1.7-4,2.61-8.52,3.56-12.74.28-1.25-2.2-1-2.46.15-.63,2.79-1.33,5.56-2.16,8.3a16.42,16.42,0,0,1-1.15,3.61c-.64.95-2,2.12-2.57.34-.21-.65,1.18-3,1.41-3.57l1.41-3.57,2.82-7.15c.52-1.33-1.9-1.42-2.33-.34Z" transform="translate(-12.55 -7.16)"/><path class="cls-3" d="M106.68,363.16c2.08,3.25,4,7,6.41,10,1.15,1.4,3,2.23,4.65,1,2-1.53.23-3.74-.86-5.28l-7.17-10.15c-.62-.87-2.92,0-2.21,1.05,2.68,3.79,5.73,7.5,8.11,11.48,1.36,2.27-.18.81-.7.24a20.57,20.57,0,0,1-1.8-2.81l-4.2-6.57c-.57-.89-2.88,0-2.21,1.05Z" transform="translate(-12.55 -7.16)"/><path class="cls-3" d="M104.55,364.79a3.09,3.09,0,0,0-3.39-.3,5,5,0,0,0-2.32,3.15c-.52,1.42-1,3.21,0,4.54a6.84,6.84,0,0,0,4.27,2.14c3.26.4,4.94-2.63,4.87-5.52-.09-3.23-3-5.31-6.05-3.85-1.49.73-.14,1.72,1,1.16,1.55-.76,2.52,1.76,2.61,2.8.13,1.48-.15,4.07-2.13,3.67a3,3,0,0,1-2.68-3.17c0-.39,1.1-4.05,1.6-3.64.72.6,3-.37,2.23-1Z" transform="translate(-12.55 -7.16)"/><path class="cls-3" d="M131.51,341.94c-.47,5.21-1.42,19.44,6.85,19.73,2.41.08,3.65-1.49,4.15-3.65,1.17-5.14,1.29-10.71,1.44-16,0-1.16-2.41-.74-2.43.23-.08,2.83-.23,5.66-.49,8.49q-.2,2.12-.47,4.22c-.26,2,.14,3.4-1.81,4-5.8,1.83-5.05-14.42-4.79-17.31.1-1.14-2.34-.75-2.43.23Z" transform="translate(-12.55 -7.16)"/><path class="cls-3" d="M134,342.62l7.27-.52c1.29-.09,1.93-1.69.27-1.58l-7.27.52c-1.29.09-1.93,1.69-.27,1.58Z" transform="translate(-12.55 -7.16)"/><path class="cls-3" d="M133.79,341.34l-1.58-12.4c-.13-1-.94-4.63-.5-5.43,1.42-2.63,1.89,3.51,2,4.06.4,2.45.11,10.94,4.25,10.58,4.6-.39,2.52-7.66,2.42-10.28a11.1,11.1,0,0,1,.16-3.66q3-2.68,2.32.44c.45,1.17,0,3.36.06,4.57l.16,12.19c0,1.07,2.43.58,2.42-.27l-.25-19.81c0-.34-.17-.46-.48-.56-4.36-1.4-6.84,2.43-6.86,6.36,0,1.74.2,3.49.31,5.23.1,1.58-.37,4.6-.94,1.52-.81-4.36-1.44-8.77-2.16-13.15,0-.2-.31-.33-.48-.37a4.18,4.18,0,0,0-5.32,3.41c-.43,2.33.42,5.06.71,7.36L131.37,342c.11.88,2.54.32,2.41-.65Z" transform="translate(-12.55 -7.16)"/><path class="cls-3" d="M139.82,367c-1.44.12-2.76-1.41-2.92-2.74s1-3.37,2.54-2.71a3.36,3.36,0,0,1,1.91,2.88c0,1.49-1.16,2.9-2.69,2.3-.68-.27-2.88.75-1.93,1.12a5.58,5.58,0,0,0,6.57-2.08,3.9,3.9,0,0,0-2.79-5.6c-2.41-.45-5.54,1.1-6,3.68-.51,2.93,2.41,4.63,5,4.42,1.15-.09,2-1.39.35-1.25Z" transform="translate(-12.55 -7.16)"/><path class="cls-3" d="M132.57,357.89a120.32,120.32,0,0,1-4.16,11.81c-.54,1.29-2.38,4.2.12,4.55,1.88.26,2.71-1.53,3.28-2.9,1.7-4,3.26-8.15,4.89-12.22.24-.6-2.12-.34-2.4.36l-2.89,7.22c-.55,1.38-1.63,6-3,6.69l1.7-.27c-1.42-.74,1.73-6.45,2.13-7.52,1-2.67,1.89-5.37,2.7-8.1.2-.67-2.19-.35-2.4.36Z" transform="translate(-12.55 -7.16)"/><path class="cls-3" d="M141.23,360c2.8,2.9,4,6.5,6.34,9.64a3.27,3.27,0,0,0,4.67.9c1.87-1.38,1.23-3.56.14-5.17-2.53-3.73-5.61-7.19-8.39-10.74-.6-.77-2.92.13-2.22,1l4.68,6c.93,1.19,4.3,4.27,4.4,5.93q-.44,2.23-1,1.08a7.83,7.83,0,0,1-1-1.75c-.36-.68-.71-1.36-1.08-2a28.23,28.23,0,0,0-4.27-5.86c-.68-.7-3,.23-2.22,1Z" transform="translate(-12.55 -7.16)"/></g></g><g id="Blase-2" data-name="Blase"><path class="cls-2" d="M91.25,396.33h0a1.41,1.41,0,0,1-1.88-.11,2.17,2.17,0,0,1-.43-2.07,5.41,5.41,0,0,1,1.09-1.9,6,6,0,0,1,1.64-1.54,2.52,2.52,0,0,1,2.18-.24A2.33,2.33,0,0,1,95.09,393a3.78,3.78,0,0,1-1.73,2.41A7.93,7.93,0,0,1,91.25,396.33Z" transform="translate(-12.55 -7.16)"/><path class="cls-2" d="M23.62,422.43A3.55,3.55,0,0,1,30,419.54c1-3.94,5-4,7.23-.78,1.18-1.41,1.42-4.64,3.87-4.92,2.12-.25,3.55,2,4.52,3.46,1.4-6.09,8.62-4.82,10.36.35,1.26-1.4,1.7-3.48,4-4s3.37,1.41,3.74,3.58c2-.75,2-3.67,4.81-3.59,2.17.06,3.59,2.47,3.49,4.51,1.47-.53,3.25-1.81,4.9-1s1.87,2.75,2.08,4.32c1.65-.11,3.86-.74,5,.87s-.19,3.65-1,5.11c1.85,1,4.28.35,5.13,3,.48,1.53-.39,3.53-1.46,4.69,2-.24,3,2.13,2.65,3.74-.52,2.29-3.1,3.91-5.17,4.63,4.93,2-.57,8.13-3,7.5a2,2,0,0,0-1-1.13,1.35,1.35,0,0,0,1,1.13c.64,2.3-5.74,4.84-8.3,2.06-1.62,1.37-1.89,2.8-4.69,2.46a6.28,6.28,0,0,1-2.78-1.05c.36-1.1.34-2.19-.92-2a2,2,0,0,0,.92,2,5.08,5.08,0,0,1-1.1,2c-2,1.77-4.6,1.1-6.72.13-1.15,2.53-7.08,4.13-9.07,2.28a1.35,1.35,0,0,0,.31-.62c.18-.88-.1-1.48-.94-1.46a2.22,2.22,0,0,0,.63,2.08,5.19,5.19,0,0,1-3.67,1.34,6.22,6.22,0,0,1-4-2.15c1-1,1.06-2.1-1.08-2.42A4.12,4.12,0,0,0,40.73,458a5.64,5.64,0,0,1-3.63,1.65c-1.16,0-4-1.09-4.9-2.4l.14-.08a2.7,2.7,0,0,0-.4-1.11,1.32,1.32,0,0,0,.26,1.19c-2.62,1.61-11,1-7.74-3.53-4.16,1.38-9.55-6.07-4.87-6.05-1.81-.74-5-1.82-4.53-4.25a2.53,2.53,0,0,1,2-1.89,2.62,2.62,0,0,0,.55-.05,1.71,1.71,0,0,0-.55.05c-3.9-.06-5.24-8.94,1-8.74a2.81,2.81,0,0,0,1.34.15,8.45,8.45,0,0,0-1.34-.15c-2.79-1.06-3.27-6.58.27-7.18a1.86,1.86,0,0,0,1.09,1.58c2,.67,1.81-1.71-.55-1.64a3.08,3.08,0,0,0-.54.06c-.35-2,.94-4.91,3.25-3Z" transform="translate(-12.55 -7.16)"/><path class="cls-2" d="M85.41,406.1a1.88,1.88,0,0,1-2.17,1,2.35,2.35,0,0,1-1.61-1.92,3.23,3.23,0,0,1,.75-2.46,3.69,3.69,0,0,1,3.56-1.27,3.26,3.26,0,0,1,2.49,2.77,2.94,2.94,0,0,1-1.62,2.86h-.54c-.15-.14-.29-.31-.43-.46A2.74,2.74,0,0,0,85.41,406.1Z" transform="translate(-12.55 -7.16)"/><g id="Front-8" data-name="Front"><path class="cls-3" d="M90.37,396.16l.49-.12-.38-.25a2.58,2.58,0,0,1-.4-.85,2.63,2.63,0,0,1,.31-1.64c.4-.79,1.68-2.75,2.67-2.16a2.24,2.24,0,0,1,.57,2.85c-.63,1.26-2,1.72-3.22,2.07-.28.08-1.2.36-1.08.8s1.09.22,1.34.15c2.15-.6,5.18-1.63,5.63-4.19s-2.17-3.43-4.21-2.83-4.24,2.74-4.42,4.85c-.22,2.67,3,2.91,4.61,1.53,1-.85-1.4-.64-1.89-.22Z" transform="translate(-12.55 -7.16)"/><path class="cls-3" d="M84.32,406c-.68,1.29-1.57-1.33-1.47-1.92.2-1.23,1.25-2.44,2.58-2,1.83.64,2.7,3.84.48,4.6-.35.12-.94.51-.65.93s1.25.12,1.59,0c2.11-.73,3.61-3,2.32-5.16s-4-2.19-6-1.27-3.8,3.54-2.1,5.55c1.39,1.65,4.53,1.09,5.51-.75.52-1-1.88-.69-2.24,0Z" transform="translate(-12.55 -7.16)"/><path class="cls-3" d="M25.2,423.14q-1.69-3.06,3.7-3.11c.63.65,2,.14,2.33-.62q3-3.52,4.9-.16c.53.63,1.87.15,2.25-.43.5-.76.82-2.3,1.47-2.87,2.1-1.86,3.62.27,4.67,1.85.5.75,2.11.06,2.33-.62,1.55-4.91,6.45-2.72,7.94.8.39.91,1.92.31,2.34-.25,1.44-1.92,4.56-3.73,5.4-.18.19.79,1.56.36,2,.11s1.12-1.06,1.6-1.32q.31-.38.58-.8,4.4-.24,4.14,2.93c.06.68,1.4.39,1.71.26,3.48-1.5,4.74-.32,5.28,3,.07.42.76.46,1.06.43,2.1-.22,3.9,3.46,2.92,5.16a.48.48,0,0,0,.19.7c3.43,1.36,6.7,2.66,3.49,7-.37.5.33.78.69.83,5.67.75-1.37,6.54-2.57,7-.4.16-1.13.86-.45,1.21,1.71.88,1.89,1.77,1.34,3.46-.19.56-2.46,3.79-3.18,2l-2.32.82c2.14,1.74-1.87,4.85-5.09,2.19a1.69,1.69,0,0,0-2.1.24c-1.42,1.37-5.87,3.44-6.2-.68l-1.66,1.08q.76,4.6-5.5,2.71a1.78,1.78,0,0,0-2.09.56c-1.17,1.91-7.43,4.18-7.35.14l-2.16.76q-2.58,2.87-4.31.65a3.48,3.48,0,0,1-1.65-2.75l-1.93,1c-1.08-.31-5.61,3.87-5.78-.55l-2.41.65c.39.78-7.95,2.24-5.13-2.59.37-.64-.53-.91-1-.82a5.18,5.18,0,0,1-4.47-1.91c-.17-.24-1.88-2.5-.68-2.64.4,0,2.12-1,1.09-1.38q-.9-.35-1.78-.74-2.54-.79-1-4.13c1.18-.23,1.37-1.55,0-1.44-3.49.25-4.3-7.78,1.24-7l.9-1.52c-2.12,0-3.1-2.27-2.75-4-.09.48,3.29-5.09,3.53-5,.76.46,3-.62,1.9-1.26a3.48,3.48,0,0,0-5.46,3.19c.07,2.5,4.43,4.46,4.87,1.56.47-3.08-5.22-1.7-6.36-.33A4.51,4.51,0,0,0,19,433.69c1,0,2.57-1.29.9-1.52-3.33-.46-7,.69-7.33,4.52-.29,3.09,1.75,5.76,4.9,5.53l0-1.44c-1.83.36-3.91,1.49-3.59,3.72s3.05,3.08,4.8,3.79l1.09-1.38c-6.94.84-.19,8.44,4.59,7.56l-1-.82c-3.42,5.87,6.59,5.7,9.79,3.94a.77.77,0,0,0,.44-.76,2.66,2.66,0,0,0-.41-1.1c-.46-.91-2.45-.35-2.41.65.14,3.55,5.86,4.56,8.51,3.48s4.95-3.93,1.13-5c-.57-.16-2.13.19-1.93,1,1.2,5.23,11.91,7.34,11.38.9a.51.51,0,0,0-.26-.3l-.85-.4c-.53-.25-2.15-.09-2.16.76-.13,6.24,10,3.1,12-.26l-2.09.56c2.94,1.18,6.71,1.9,9-.94,1.4-1.71,1.84-4.22-.73-4.55-.62-.08-1.72.33-1.66,1.08.21,2.53,2.85,3.53,5.16,3.52,2.52,0,3.68-1.28,5.42-3l-2.1.24c3.37,2.78,14.08-.48,9.55-4.18-.51-.41-2.72-.17-2.32.82,2,5.05,13.1-3.75,6.16-7.33l-.45,1.21c2.31-.94,5.38-2.59,5.88-5.34.46-2.5-1.12-4.07-3.41-4.37l.69.83c2.2-3,2.13-5.52-.92-7.5-.61-.39-1.25-.08-1.64-.85-.51-1,.19-.87.22-2,0-1.61.36-2.71-1.18-3.78-1-.67-1.82-.16-2.77-.55-1.42-.58-.67.15-1.42-.59.49.48-1.36-2.85-1-2.49-2.12-2.34-5.11-.85-7.47.16l1.71.26c-.24-2.58-1.66-5-4.56-4.95-3.08,0-3.4,2.53-5.72,3.91l2,.11c-.62-2.61-1.89-4.48-4.81-4-2.72.45-3.78,2.68-5.28,4.69l2.34-.25c-2.59-6.1-10.69-6.52-12.78.11l2.33-.62c-1.49-2.24-3.34-4.39-6.28-3.52-2.61.78-3,3.34-4.35,5.39l2.25-.43c-3.11-3.73-7.83-3.17-9.56,1.41l2.33-.62c-3.79-3.89-10.21-.75-8.34,4.75.32.94,2.72.27,2.41-.65Z" transform="translate(-12.55 -7.16)"/></g><text class="cls-5" transform="translate(16.42 426.89)">Challenge<tspan x="0.69" y="11">geschafft!</tspan></text></g></g><g id="Anhalter"><path class="cls-2" d="M143.33,167.18a2.38,2.38,0,0,1-1.08,2.2c-.85.42-1.85,0-2.75-.29-3.59-1.16-7.49-.28-11.15.61l-.27-.11h-1.7a45.46,45.46,0,0,0-.52-5.45H126l1.86,0,9.39.36a1.33,1.33,0,0,0,.86-.16c.44-.31.35-1,.41-1.51a2.29,2.29,0,0,1,4.48-.43,8.42,8.42,0,0,1,.09,2.19C143.07,165.47,143.32,166.31,143.33,167.18Z" transform="translate(-12.55 -7.16)"/><path class="cls-2" d="M122.85,158.41v.12a3.6,3.6,0,0,1-4.42-1.15,4.27,4.27,0,0,1,0-4.7,5.25,5.25,0,0,1,4.22-2.26,4.58,4.58,0,0,1,3.12,1,4,4,0,0,1,1,4.59A4.36,4.36,0,0,1,122.85,158.41Z" transform="translate(-12.55 -7.16)"/><path class="cls-6" d="M126.38,169.6a45,45,0,0,1-.12,5.19l-1,0-.12.8-1.12-.17a16.51,16.51,0,0,0-8.93-.89h-1.24v-.75l-1.56-.88,1.51,0,.7-.06c-.32-2.44,0-4.94-.28-7.39a11.5,11.5,0,0,0-.47-2.29l1-.37c.79-2.16,3.16-3.35,5.44-3.64a5.18,5.18,0,0,1,3.36.52c1.47.92,2,2.8,2.23,4.51,0,0,0,0,0,.06A45.46,45.46,0,0,1,126.38,169.6Z" transform="translate(-12.55 -7.16)"/><path class="cls-2" d="M124.05,175.38l1.12.17a59.43,59.43,0,0,0-.55,12.14,3.61,3.61,0,0,1-.64,2.86,2.29,2.29,0,0,1-3.23-.54,5.3,5.3,0,0,1-.76-3.53,13.75,13.75,0,0,0,0-3.68c-.13-.65-.68-1.4-1.29-1.14-.45.2-.51.79-.51,1.28,0,1.28,0,2.56,0,3.84a4.47,4.47,0,0,1-.54,2.66,1.57,1.57,0,0,1-2.36.35l-2.09-.15c.06-.12.12-.24.17-.37a9.06,9.06,0,0,0,.41-3.2c0-3.86,0-7.73,0-11.59h1.24A16.51,16.51,0,0,1,124.05,175.38Z" transform="translate(-12.55 -7.16)"/><path class="cls-6" d="M114.53,172.75l-.7.06-1.51,0a85.36,85.36,0,0,1-12-.63l-.38,0c0-.19,0-.39.07-.58l.74-.14q-.41-4.37-.57-8.76a4.61,4.61,0,0,1,.53-2.89c.74-1,2.16-1.26,3.42-1.41,2.28-.28,4.75-.51,6.73.66a6.85,6.85,0,0,1,2.88,4,11.5,11.5,0,0,1,.47,2.29C114.5,167.81,114.21,170.31,114.53,172.75Z" transform="translate(-12.55 -7.16)"/><path class="cls-2" d="M113.88,173.73v.75c0,3.86,0,7.73,0,11.59a9.06,9.06,0,0,1-.41,3.2c0,.13-.11.25-.17.37a2.9,2.9,0,0,1-2.18,1.62,3,3,0,0,1-2.81-2,8.85,8.85,0,0,1-.41-3.63l.09-3.48a4.51,4.51,0,0,0-.27-2.1,1.57,1.57,0,0,0-1.72-.95c-.89.26-1.11,1.39-1.18,2.31l-.39,5.7a7.86,7.86,0,0,1-.61,3,2.35,2.35,0,0,1-4.52-.27,7.88,7.88,0,0,1-.25-2.91c.19-4.93.38-9.87,1-14.76l.38,0a85.36,85.36,0,0,0,12,.63Z" transform="translate(-12.55 -7.16)"/><path class="cls-2" d="M106,156.8a3.42,3.42,0,0,1-3.57-1.51,4.41,4.41,0,0,1,.19-4.61,6.56,6.56,0,0,1,4-2.62,6.19,6.19,0,0,1,3.17,0,3.82,3.82,0,0,1,2.4,2c.76,1.66-.09,3.71-1.49,4.89a12,12,0,0,1-4.62,2.06Z" transform="translate(-12.55 -7.16)"/><g id="Front-9" data-name="Front"><path class="cls-3" d="M98.84,171.76c-.58,4.84-.88,9.71-1,14.58-.07,2.31-.16,5.49,2.75,6a4.45,4.45,0,0,0,4-1.78,6.85,6.85,0,0,0,1-3.59c.08-.78-.18-6.22.53-6.65.49-.3.53,5.07.53,5.58,0,1.53-.09,3.22.88,4.52a3.64,3.64,0,0,0,4.2,1.25c2.23-.64,3.09-2.46,3.29-4.65.41-4.45.06-9.11.07-13.58,0-.67-2.41-.24-2.41.65,0,3.6,0,7.2,0,10.8,0,.9.07,7.51-3.15,4.09-.71-.75-.4-4-.39-4.64.05-2.33.45-6.76-3.29-5.76-4.06,1.08-1.46,7.08-2.71,9.76l-.18,1q-3,1.47-2.72-1.23c-.38-1.08.13-4.54.2-5.93.17-3.59.43-7.17.86-10.73.11-.88-2.32-.43-2.41.33Z" transform="translate(-12.55 -7.16)"/><path class="cls-3" d="M99.93,173.08a95.52,95.52,0,0,0,13.78.59c1.35,0,1.88-1.76.23-1.72a91.19,91.19,0,0,1-13.16-.58c-1.16-.13-2.48,1.52-.85,1.71Z" transform="translate(-12.55 -7.16)"/><path class="cls-3" d="M102,171.14c-.25-2.85-1.13-6.5-.57-9.3s4.07-3.2,6.65-2.73c6.36,1.16,4.8,9.38,5.24,14,.1,1.05,2.53.48,2.41-.65-.37-3.81.46-8.07-1.55-11.55-1.66-2.88-4.58-3.67-7.73-3.53-2.37.11-5.76.27-7,2.67-.76,1.46-.42,3.41-.34,5,.12,2.27.29,4.53.48,6.79.09,1.05,2.51.48,2.41-.65Z" transform="translate(-12.55 -7.16)"/><path class="cls-3" d="M106.24,156.12c-2.12.93-3.35-2.39-3.06-3.92a4.65,4.65,0,0,1,5.69-3.55,3.21,3.21,0,0,1,2.08,4.44c-.92,2.23-3.28,2.9-5.4,3.48-1.43.39-1.16,1.45.28,1.06,3.09-.85,7.29-2.2,7.8-5.93.54-3.9-3.9-4.87-6.83-4.24s-6,2.61-6.11,5.84c-.12,3.59,3.57,4.93,6.46,3.66,1.55-.68.12-1.3-.92-.85Z" transform="translate(-12.55 -7.16)"/><path class="cls-3" d="M116,162.5c1.58-3.3,6.35-4.07,8-.63a13,13,0,0,1,.84,3.73,46.3,46.3,0,0,1,.13,10.6c-.07.71,2.33.24,2.39-.39a47.41,47.41,0,0,0-.11-10.86c-.33-2.43-.79-5.28-3.41-6.23-3.55-1.28-8.61.86-10.2,4.17-.22.47,2.07.27,2.39-.39Z" transform="translate(-12.55 -7.16)"/><path class="cls-3" d="M115,175.32a16.21,16.21,0,0,1,8.35.83c1,.36,2.83-1,1.42-1.55a18.73,18.73,0,0,0-9.52-.94c-1.28.2-1.89,1.92-.24,1.66Z" transform="translate(-12.55 -7.16)"/><path class="cls-3" d="M124.08,174.89a68.25,68.25,0,0,0-.72,12c0,1.15.64,2.37-.73,2.61-1.62.28-1.44-2-1.42-3.09,0-1.33.47-2.92-.09-4.19a2.1,2.1,0,0,0-3.14-.92,2.33,2.33,0,0,0-1,1.84c-.06.41,0,6.54-.72,6.1s-2.94.58-1.9,1.25a3.25,3.25,0,0,0,4-.49c2.24-2.22-.32-6,1.44-8.2l-1.59.69c.83.05.37,6.9,1.34,8.09a3.76,3.76,0,0,0,4.23,1c1.67-.67,2-2.1,2-3.73a90.34,90.34,0,0,1,.66-13.13c.16-1-2.29-.65-2.43.26Z" transform="translate(-12.55 -7.16)"/><path class="cls-3" d="M127.72,165.11c3.1.12,6.48.65,9.55.33a2.87,2.87,0,0,0,1.71-.57c.75-.7.87-3.67,2.83-.18.69,1.23-.24,3.36-1.63,3.55-1,.13-2.57-.57-3.58-.62a30.39,30.39,0,0,0-8.49,1.2c-1.52.36-1,2.14.48,1.78,3.41-.81,6.76-1.56,10.23-.64,1.35.36,2.61.87,4,.2a3.27,3.27,0,0,0,1.65-2.18,13.79,13.79,0,0,0-.29-5.87,3.52,3.52,0,0,0-5.19-1.7c-1.38.83-1.34,2.73-2.85,3.13a16,16,0,0,1-3.52-.13l-4.69-.18c-1.43-.05-1.81,1.83-.18,1.89Z" transform="translate(-12.55 -7.16)"/><path class="cls-3" d="M122.4,158.11c-3.61,1.54-5.31-7.36.11-7a3.48,3.48,0,0,1,3.27,2.81c.36,1.75-.66,3.91-2.65,3.91-.83,0-2.59,1.25-1,1.24,2.74,0,5.94-1.61,6.12-4.67.2-3.45-3.22-4.94-6.18-4.46s-5.93,2.68-5.54,6,4.07,4.24,6.77,3.09c1.55-.66.12-1.29-.92-.85Z" transform="translate(-12.55 -7.16)"/><path class="cls-3" d="M125.82,164.92l1.74-.09c.49,0,1.27-.35,1.35-.9s-.68-.68-1.08-.66l-1.74.09c-.49,0-1.27.35-1.35.9s.68.68,1.08.66Z" transform="translate(-12.55 -7.16)"/><path class="cls-3" d="M126.3,170.32h1.32a1.88,1.88,0,0,0,1.59-.67c.29-.48-.25-.77-.67-.77h-1.32a1.88,1.88,0,0,0-1.59.67c-.29.48.25.77.67.77Z" transform="translate(-12.55 -7.16)"/></g></g><g id="vor_Start" data-name="vor Start"><g id="Menschen-3" data-name="Menschen"><g id="Teilnehmer"><path class="cls-2" d="M257.21,67l-.45.09a2.62,2.62,0,0,1-2.29-.39,2.44,2.44,0,0,1-.57-2,6.93,6.93,0,0,1,3-4.91A10.66,10.66,0,0,1,262.44,58a4.12,4.12,0,0,1,3,.7,3.64,3.64,0,0,1,.68,3.89A7,7,0,0,1,257.21,67Z" transform="translate(-12.55 -7.16)"/><path class="cls-6" d="M262.89,73.76q.36,5.94.21,11.9h-.29a51.5,51.5,0,0,0-11.3-.62l-1-.18c.3-2.24.59-4.48.89-6.72q.1-.85.24-1.71a17.68,17.68,0,0,1,1-3.88,9.67,9.67,0,0,1,.55-1.12,7,7,0,0,1,3.19-3,4.6,4.6,0,0,1,5.26,1A7.34,7.34,0,0,1,262.89,73.76Z" transform="translate(-12.55 -7.16)"/><path class="cls-2" d="M263.1,85.66c0,.42,0,.84,0,1.26h-.64q-.66,8.13-1.33,16.25a7.57,7.57,0,0,1-2.45.35,2.66,2.66,0,0,1-2.09-1.15,3.9,3.9,0,0,1-.35-2.12c0-1.84.09-3.69.13-5.54,0-.55-.11-1.28-.66-1.36s-.84.46-1,.93a13.54,13.54,0,0,0-.88,5.49,5.86,5.86,0,0,1-.27,3,3.2,3.2,0,0,1-2.75,1.51,9.62,9.62,0,0,1-3.21-.65q1.53-9.07,3.05-18.15l-.07-.6,1,.18a51.5,51.5,0,0,1,11.3.62Z" transform="translate(-12.55 -7.16)"/><path class="cls-2" d="M253.05,71.34l.15.08a9.67,9.67,0,0,0-.55,1.12,17.68,17.68,0,0,0-1,3.88l-.21,0a1.59,1.59,0,0,1-1.37.27l-.2-.1-6.3,3.11a.77.77,0,0,1-.41.11c-.47-.06-.4-.78-.54-1.25l.79,0-.77-.64a41.78,41.78,0,0,0,9.52-6.79l.17.19A.84.84,0,0,0,253.05,71.34Z" transform="translate(-12.55 -7.16)"/><path class="cls-2" d="M232.88,73.42l-.22.28-1.46-.86-.54,0c-.06-1.31-.16-2.62-.31-3.93l.37,0,1.89.71,10,8.33-.38.2a.48.48,0,0,1,.36.39,13.49,13.49,0,0,1-5.19-1.82A34,34,0,0,1,232.88,73.42Z" transform="translate(-12.55 -7.16)"/><path class="cls-2" d="M224.83,62.47A4.29,4.29,0,0,1,220,60.78,5.53,5.53,0,0,1,220,55a8.15,8.15,0,0,1,4.76-3.51c2-.6,4.39-.5,5.84,1A5,5,0,0,1,231.73,57a6.93,6.93,0,0,1-3.82,4.91A6.81,6.81,0,0,1,224.83,62.47Z" transform="translate(-12.55 -7.16)"/><path class="cls-2" d="M230.12,84.42l.77.11q.18,8.09.37,16.17a1.77,1.77,0,0,1-1.94,2.27l-5.35.5q.16-4.45.35-8.9c0-1.21-.13-2.76-1.29-3.09s-2.18,1-2.62,2.13a16,16,0,0,0-1,5c-.06,1.37,0,2.86-.8,4a3.84,3.84,0,0,1-3.23,1.32,11.29,11.29,0,0,1-3.5-.9A156.3,156.3,0,0,0,215,85.14l.37-.75c0-.18,0-.36,0-.54,4.72.24,9.44.31,14.17.24l.65.1Z" transform="translate(-12.55 -7.16)"/><path class="cls-6" d="M230.66,72.87a61.18,61.18,0,0,1-.51,11.32l-.65-.1c-4.73.07-9.45,0-14.17-.24a32.82,32.82,0,0,1,.87-10.65,14.8,14.8,0,0,1,6.43-8.91c1.71-1,4-1.46,5.58-.34s1.92,3.06,2.13,4.88c0,0,0,.07,0,.11C230.5,70.25,230.6,71.56,230.66,72.87Z" transform="translate(-12.55 -7.16)"/><g id="Front-10" data-name="Front"><path class="cls-3" d="M213.77,85.46a167.82,167.82,0,0,1-3.12,17.74.13.13,0,0,0,.05.19c2.84,1,7.48,1.83,9.29-1.49a7.2,7.2,0,0,0,.58-3.1c.08-1.19.12-5.84,1.46-6.27,1.68-.55.78,10.07.74,11.27,0,.21.6.15.68.15,2.31-.21,7.22.3,8.77-2.09,1-1.52.17-5.62.13-7.35l-.24-10.29c0-.37-2.43,0-2.41.65L230,96.61c0,1.82.61,3.85-.67,5.21s-3.17,1.54-4-.16c-1.21-2.32,2.94-11.8-2.83-10.58-3.95.84-3.93,5.69-4.28,8.88q.35,3-3,3.3l-1.77-2c-.37-1.28,1-4.55,1.22-5.92.65-3.5,1.17-7,1.6-10.56,0-.26-2.33-.07-2.41.65Z" transform="translate(-12.55 -7.16)"/><path class="cls-3" d="M214.32,84.43q7.34.35,14.69.25c.79,0,2.6-1.22,1-1.2q-7.35.1-14.69-.25c-.81,0-2.6,1.12-1,1.2Z" transform="translate(-12.55 -7.16)"/><path class="cls-3" d="M216.56,84.06c-.26-5.88-.06-16.76,6.81-19.47,8.84-3.49,5.9,17.43,5.45,20.65-.12.85,2.3.41,2.41-.34.77-5.48,3.78-24.31-6.5-22-9.61,2.14-10.94,13.8-10.58,21.82,0,.67,2.45.21,2.41-.65Z" transform="translate(-12.55 -7.16)"/><path class="cls-3" d="M224.83,61.84c-2.72,1.18-4.55-2.29-4.39-4.48a6.14,6.14,0,0,1,6.46-5.49c6.87.72,3.16,12.89-4.24,9.18-.64-.32-2.87.64-1.94,1.11a8.82,8.82,0,0,0,11.17-2.81c2.66-4.07.35-8.87-4.58-8.78-4,.07-9,2.79-9.31,7.21s4,6.56,7.76,4.94c1.55-.67.12-1.33-.92-.87Z" transform="translate(-12.55 -7.16)"/><path class="cls-3" d="M259.62,66.25c-.76,0-1.49.19-2.21.15-2.66-.13-2.51-1.67-2-3.26a7,7,0,0,1,6.11-4.44c2.86-.32,4.2,1.45,3.39,4.07a5.53,5.53,0,0,1-7,3.64c-.72-.2-2.82.88-1.5,1.25a9.08,9.08,0,0,0,10.07-3.49c2-3.13,1.08-6.71-2.92-6.82-3.62-.1-7.84,1.47-9.83,4.63-.85,1.35-1.76,3.91-.38,5.23s3.72.24,5.31.34c.87.06,2.58-1.19,1-1.29Z" transform="translate(-12.55 -7.16)"/><path class="cls-3" d="M251.75,84.73c.35-2.62.64-5.25,1-7.86a23.67,23.67,0,0,1,.55-2.82c.86-3.08,1-3.06,4.28-3.66s3.49-.49,4,2.51a42.76,42.76,0,0,1,.27,5.36c.08,2.93.06,5.85,0,8.78,0,1.13,2.41.7,2.43-.24.13-4.84.87-11-.47-15.7a5.14,5.14,0,0,0-5.9-3.86c-8,.92-7.82,11.85-8.6,17.73-.15,1.1,2.3.71,2.43-.24Z" transform="translate(-12.55 -7.16)"/><path class="cls-3" d="M251,85.68a54.76,54.76,0,0,1,11,.6c.72.11,2.83-1,1.49-1.26A57.46,57.46,0,0,0,252,84.38c-.85,0-2.57,1.38-1,1.3Z" transform="translate(-12.55 -7.16)"/><path class="cls-3" d="M249.39,85.61l-3,18.15a.36.36,0,0,0,.24.41c2.25.7,4.89,1.25,7-.29a3.75,3.75,0,0,0,1.45-2.25c.44-1.78-.92-7,1.15-7.83h-1.59c1.25,1.17.36,5.19.45,6.69.07,1.15.05,2.14,1,2.94,1.42,1.23,3.65.67,5.27.32.29-.06,1-.35,1.05-.73l1.33-16.25c.08-.93-2.35-.46-2.41.32l-1.33,16.25,1.05-.73-3.5-1.57V98.7c0-1.15.11-2.31.08-3.46s.09-1.6-.72-2.37c-.39-.36-1.18-.18-1.59,0a2.73,2.73,0,0,0-1.76,1.56,9.69,9.69,0,0,0-.88,4.1c-.14,2.34,1.12,3.4-1.79,3.48q-2.66,1-1.57-1.35l.35-2.09.7-4.19,1.52-9.08c.15-.89-2.28-.48-2.41.32Z" transform="translate(-12.55 -7.16)"/><path class="cls-3" d="M231,69.76l11.46,9.51,1.35-1.56c-4.21-.3-7.43-2.86-10.58-5.42-.82-.67-2.94.51-1.86,1.39,3.45,2.81,7,5.45,11.6,5.78.73.05,2.34-.74,1.35-1.56l-11.46-9.51c-.81-.68-2.93.5-1.86,1.39Z" transform="translate(-12.55 -7.16)"/><path class="cls-3" d="M251.35,70.91a42.52,42.52,0,0,1-9.81,7c-.14.07-.74.51-.4.71.61.37.25,1.25.9,1.64a1.9,1.9,0,0,0,1.47,0c2.44-.65,4.84-2.28,7.1-3.39,1.44-.71-.76-.88-1.45-.54-1.93,1-4,2.42-6.12,3l1.26.05c-.62-.35-.25-1.25-.9-1.64l-.4.71a45.9,45.9,0,0,0,10.58-7.56c.44-.42-.39-.54-.62-.57a2.24,2.24,0,0,0-1.6.62Z" transform="translate(-12.55 -7.16)"/><path class="cls-3" d="M229.58,69.3l1.88.71a2.46,2.46,0,0,0,1.55-.17c.09,0,1.08-.5.74-.63l-1.88-.71a2.46,2.46,0,0,0-1.55.17c-.09,0-1.08.5-.74.63Z" transform="translate(-12.55 -7.16)"/><path class="cls-3" d="M230.07,73.28l1.45.86a1.91,1.91,0,0,0,1.57-.07c.14-.06,1.11-.56.69-.81l-1.45-.86a1.91,1.91,0,0,0-1.57.07c-.14.06-1.11.56-.69.81Z" transform="translate(-12.55 -7.16)"/><path class="cls-3" d="M251.39,71.93a3,3,0,0,0,2.14-.09c.34-.12,1-.55.64-1s-1.22-.16-1.6,0l.73-.09a2,2,0,0,0-1.71.23c-.28.17-.77.74-.21.94Z" transform="translate(-12.55 -7.16)"/><path class="cls-3" d="M249.34,77.3a3.79,3.79,0,0,0,2.86-.58c.31-.22.73-.63.22-.9a2,2,0,0,0-1.71.24c-.13.09-.17.06,0,0s.4,0,.11-.07a2.15,2.15,0,0,0-1.71.46c-.38.34-.27.7.22.81Z" transform="translate(-12.55 -7.16)"/></g></g><g id="Sponsoren"><path class="cls-2" d="M371.8,106.1a4.45,4.45,0,0,0-2.35.24,2.29,2.29,0,0,1-2.25-.36,2.61,2.61,0,0,1-.48-1.54l-.78-8.69a1.62,1.62,0,0,0-2.26.56,4.65,4.65,0,0,0-.5,2.56v7.63a4.2,4.2,0,0,0-2.64-.56c-.91,0-2-.28-2.32-1.14a2.63,2.63,0,0,1-.06-1.25l1.62-13.92.13-.16,9.49,0V90A136.48,136.48,0,0,0,371.8,106.1Z" transform="translate(-12.55 -7.16)"/><path class="cls-4" d="M370.4,80.64a37.89,37.89,0,0,1,1.06,8.87H369.4l-9.49,0-.54-.31A11.88,11.88,0,0,1,361.9,78.3a7.17,7.17,0,0,1,2.65-2,5.58,5.58,0,0,1,.58-.18,4.14,4.14,0,0,1,1.05-.13,3.5,3.5,0,0,1,1.62.37C369.33,77.16,370,79,370.4,80.64Z" transform="translate(-12.55 -7.16)"/><path class="cls-2" d="M366.17,75.8V76a4.14,4.14,0,0,0-1.05.13l-.14-.57a4,4,0,0,1-3.8-1.47,4,4,0,0,1-.09-4.61,5.21,5.21,0,0,1,2.61-1.82,6.17,6.17,0,0,1,4.79.17,4.33,4.33,0,0,1,2.43,4,4.18,4.18,0,0,1-1.77,3.06A5.28,5.28,0,0,1,366.17,75.8Z" transform="translate(-12.55 -7.16)"/><path class="cls-4" d="M346.94,80.93a17.48,17.48,0,0,1,1.42,9.85l-1-.18a66.15,66.15,0,0,0-12.65.81l-.13,0-.1-.62a21.87,21.87,0,0,1-1.66-4.89,7.79,7.79,0,0,1,.62-5,8.28,8.28,0,0,1,4.14-3.45,9.56,9.56,0,0,1,3.14-.8,9.15,9.15,0,0,1,1.05,0,5.34,5.34,0,0,1,2,.59A7.77,7.77,0,0,1,346.94,80.93Z" transform="translate(-12.55 -7.16)"/><path class="cls-2" d="M348.36,90.78c0,.28-.08.56-.14.83l-.09.17a70.69,70.69,0,0,0-.31,14.83c-1,.59-2.38,1.17-3.29.41a2.94,2.94,0,0,1-.79-1.68c-.62-2.72-1.24-5.45-1.85-8.17-.14-.58-.44-1.29-1-1.26s-.74.53-.91,1a33.89,33.89,0,0,0-1.54,5.12,9.25,9.25,0,0,1-1.51,4.12c-.94,1.14-2.88,1.61-3.88.52-.8-.87-.64-2.22-.42-3.39q1.06-5.86,2.15-11.74l0-.1a66.15,66.15,0,0,1,12.65-.81Z" transform="translate(-12.55 -7.16)"/><path class="cls-2" d="M341.84,75.74l-.05.9a9.15,9.15,0,0,0-1.05,0l0-.64a5.6,5.6,0,0,1-3.11-10.31,7.92,7.92,0,0,1,4-1.11,5.43,5.43,0,0,1,3.62.92,5.16,5.16,0,0,1,1.59,3.67,7.11,7.11,0,0,1-1.12,4.71A4.39,4.39,0,0,1,341.84,75.74Z" transform="translate(-12.55 -7.16)"/><g id="Front-11" data-name="Front"><path class="cls-3" d="M335.71,90.49c-1-2.41-2.21-5.11-1.69-7.8.75-3.86,5.93-6.88,9.42-4.41,3.86,2.73,4.28,9.29,3.57,13.47-.17,1,2.27.64,2.42-.26,1-5.89-.67-16.12-8.54-15.57a11.3,11.3,0,0,0-8,4c-2.55,3.44-1.12,7.63.39,11.18.39.91,2.77.19,2.41-.65Z" transform="translate(-12.55 -7.16)"/><path class="cls-3" d="M334.11,92.21a69.49,69.49,0,0,1,12.82-.88c1,0,2.54-1.42.91-1.46a72.86,72.86,0,0,0-13.43.9c-1.19.19-2,1.71-.3,1.44Z" transform="translate(-12.55 -7.16)"/><path class="cls-3" d="M333.54,91.66c-.74,4-1.74,8.12-2.22,12.2-.23,2,.2,3.86,2.48,4.08a5.18,5.18,0,0,0,4.23-1.78,8.9,8.9,0,0,0,1.5-3.86c.32-1.4.78-5.25,2.09-6l-1.71.22c1.39.51,1.69,5,2,6.25s.38,3.76,1.54,4.75c1.49,1.27,3.71.22,5.16-.53a.75.75,0,0,0,.46-.69,74.76,74.76,0,0,1,.32-14.65c.12-1-2.32-.53-2.42.3a75.54,75.54,0,0,0-.56,8.55c0,1,0,2,0,3q0,1.14.12,2.28-1.92-.18-1.84-1.94c-.83-2.1-.31-8.93-3.66-8.61-3.16.29-3.43,5.49-4,7.79-.49,1.95-3.26,5.48-3.35,1a17.22,17.22,0,0,1,.57-3.25l1.72-9.4c.17-.93-2.26-.53-2.42.3Z" transform="translate(-12.55 -7.16)"/><path class="cls-3" d="M341.13,75.07c-5.68-.28-6.6-8.36-.81-9.43,2.61-.48,4.8.35,5.26,3.16.4,2.42-.51,6.41-3.72,6-1.24-.18-2.43,1.6-.81,1.83,3.8.55,6.74-2.4,7-6.09.34-4.06-1.91-6.88-6-6.86-3.7,0-7.43,1.93-8.14,5.85s2.56,7.22,6.38,7.41c1.22.06,2.44-1.75.81-1.83Z" transform="translate(-12.55 -7.16)"/><path class="cls-3" d="M360.58,88.84a12,12,0,0,1-.08-5.56,11.18,11.18,0,0,1,2-4.29,2.34,2.34,0,0,1,3.13-1.15c2.39-.1,2.57,0,3.26,2a21.35,21.35,0,0,1,.63,2.55,38.83,38.83,0,0,1,.73,7.3c0,1.07,2.43.59,2.42-.27,0-4.62-.12-15.44-7.32-14.07-6.08,1.16-8.43,8.79-7.19,14.09.21.9,2.63.28,2.41-.65Z" transform="translate(-12.55 -7.16)"/><path class="cls-3" d="M359.48,90.29l11.63,0c1.08,0,2.49-1.63.87-1.64l-11.63,0c-1.08,0-2.49,1.63-.87,1.64Z" transform="translate(-12.55 -7.16)"/><path class="cls-3" d="M365.5,75c-4.27,1.18-5.56-6.71-.5-7.18a4.46,4.46,0,0,1,4.46,2.74,3.37,3.37,0,0,1-3,4.72,2.53,2.53,0,0,0-1.71.46c-.24.28-.44.57.16.58,2.92.06,7-1.2,7.22-4.69.28-3.66-3.69-5.18-6.71-4.77-2.63.35-5.87,1.77-6.17,4.75-.38,3.78,3.46,5.06,6.48,4.22,1.4-.39,1.21-1.22-.22-.83Z" transform="translate(-12.55 -7.16)"/><path class="cls-3" d="M358.59,89.83l-.88,7.59c-.23,2-.9,4.41-.74,6.39.28,3.45,2.62,1.87,5.08,3.12.5.25,2.34,0,2.34-.75,0-2.53-.55-6,.08-8.45.53-2.1.55,1.45.61,2.07.11,1.24.21,2.48.33,3.72.44,4.45,2.21,3,5.63,3.11.38,0,2.11-.2,2-.86a147.66,147.66,0,0,1-2.4-16.1c0-.54-2.48-.07-2.41.65a147.66,147.66,0,0,0,2.4,16.1l2-.86c-.48,0-1.2,0-1.73,0-2.37-.2-2.76-.12-3-2.06-.29-2.68-.48-5.38-.72-8.06a.29.29,0,0,0-.22-.17c-6.55-2.34-5,8.33-5,11.57l2.34-.75a8.4,8.4,0,0,0-2.53-.66c-3.06-.65-2.44-1.92-2.13-4.6.43-3.8.88-7.59,1.33-11.38.08-.69-2.32-.23-2.39.39Z" transform="translate(-12.55 -7.16)"/></g></g></g><g id="Sprechblasen"><g id="links"><path class="cls-2" d="M331.16,53l-.5.88a81.76,81.76,0,0,0-9.2-4.41L320.25,49l-35.65,2c-7,.4-14.13.78-20.79-1.3s-12.87-7.15-14.21-14c-1.18-6.07,1.69-12.42,6.2-16.65s10.43-6.63,16.4-8.25A81.22,81.22,0,0,1,295.68,8a50.62,50.62,0,0,1,19.69,4c6.14,2.8,11.57,7.47,14.44,13.58s2.88,13.69-.75,19.38l0,1.25A23.78,23.78,0,0,0,331.16,53Z" transform="translate(-12.55 -7.16)"/><g id="Front-12" data-name="Front"><path class="cls-3" d="M320.76,50.24a86.19,86.19,0,0,1,9,4.3c.87.48,3-.72,1.87-1.35a90.65,90.65,0,0,0-9.43-4.52c-1-.39-2.81,1-1.41,1.56Z" transform="translate(-12.55 -7.16)"/><path class="cls-3" d="M332.37,52.67a24.91,24.91,0,0,1-2.06-6.7c-.16-1-2.59-.43-2.41.65a24.91,24.91,0,0,0,2.06,6.7c.46,1,2.84.27,2.41-.65Z" transform="translate(-12.55 -7.16)"/><path class="cls-3" d="M320.42,48.34l-25.75,1.47c-8.25.47-16.81,1.63-25,.42-7.16-1.05-14.6-4.64-17.75-11.55-3.36-7.37.25-15.63,6.15-20.51,6.75-5.57,16.27-7.71,24.74-8.82s17.31-1.09,25.53,1.12c14.61,3.93,28.53,19.06,19.64,34.53-.56,1,1.85.74,2.25,0,6.61-11.5.82-24.64-9.74-31.33-11.81-7.49-27.63-7.49-41-5.15-11.28,2-24.84,6.15-29.82,17.59-5.27,12.12,4.5,22.35,15.92,24.89,7.78,1.73,15.92.82,23.8.37l30.7-1.76c1.19-.07,2-1.43.33-1.33Z" transform="translate(-12.55 -7.16)"/></g><text class="cls-5" transform="translate(246.89 22.43)">für jeden km<tspan x="-4.6" y="11">spende ich 1€!</tspan></text></g><g id="rechts"><path class="cls-2" d="M456.75,15c4.17,3.63,5,10.06,3.18,15.26-2.06,5.75-6.93,10.14-12.41,12.85S436,47,430,48c-18.26,3-36.87,4.34-55.32,2.85l-.67.25a35.83,35.83,0,0,1-6.64,6.61l-1.44.38a45,45,0,0,1-1.47-8.62L363.12,49c-4.17-2.1-8.38-4.31-11.68-7.61s-5.6-7.91-5.07-12.54,3.69-8.42,7.53-10.86,8.33-3.66,12.77-4.68A200.24,200.24,0,0,1,446.2,11C450,11.67,453.88,12.53,456.75,15Z" transform="translate(-12.55 -7.16)"/><g id="Front-13" data-name="Front"><path class="cls-3" d="M363.2,49.82a48.72,48.72,0,0,0,1.49,8.69c.2.74,2.62.1,2.41-.65a48.72,48.72,0,0,1-1.49-8.69c-.05-.68-2.48-.19-2.41.65Z" transform="translate(-12.55 -7.16)"/><path class="cls-3" d="M368.09,58.18a38.81,38.81,0,0,0,7-7c.37-.48-.32-.8-.69-.84a1.81,1.81,0,0,0-1.58.69,35,35,0,0,1-6.28,6.25c-1.3,1,.71,1.53,1.54.88Z" transform="translate(-12.55 -7.16)"/><path class="cls-3" d="M363.81,48.18c-8.34-4.22-20.63-12.29-14.94-23.42,4.75-9.3,18.19-10.8,27.37-12.47a198.53,198.53,0,0,1,62-1.53c9.6,1.29,22.34,3,21.32,15.55-.93,11.47-12.84,17.2-22.65,19.47C417,50.42,395.42,51.49,375,50c-1.24-.09-2.44,1.73-.81,1.85a228.42,228.42,0,0,0,59.58-3.52c12.69-2.41,32.62-11.23,27.69-27.87-2.27-7.67-9.73-9.48-16.77-10.66A195.55,195.55,0,0,0,415,7.17a202.72,202.72,0,0,0-31.37,2.07c-8.8,1.27-18.27,2.55-26.5,6.06-6.76,2.89-13,9-11.92,17,1.23,9,9.91,13.91,17.22,17.61,1.06.53,2.76-1,1.37-1.7Z" transform="translate(-12.55 -7.16)"/></g><text class="cls-5" transform="translate(342.77 19.93)">für einen Handstand<tspan x="11.34" y="11">spende ich 20€!</tspan></text></g></g></g><g id="Start"><path class="cls-2" d="M170.26,25.65l-1.17,37.18-95,55.59-.65,0q.73-20,1-40Q123,53.66,169.76,25.63Z" transform="translate(-12.55 -7.16)"/><text class="cls-7" transform="matrix(0.99, -0.56, -0.18, 0.98, 73.14, 92.84)">S<tspan class="cls-8" x="13.11" y="0">T</tspan><tspan x="24.34" y="0">A</tspan><tspan class="cls-9" x="40.62" y="0">R</tspan><tspan x="55.16" y="0">T</tspan></text><g id="Front-14" data-name="Front"><path class="cls-3" d="M73.24,78q-.62,51.37-4.48,102.63c-.08,1.06,2.36.63,2.42-.27Q75,129.11,75.66,77.72c0-1.08-2.41-.62-2.42.27Z" transform="translate(-12.55 -7.16)"/><path class="cls-3" d="M73.91,79.64q49.21-25.12,96.65-53.5c1.4-.84-.63-1.58-1.58-1q-47.15,28.2-96.11,53.19c-1.47.75-.15,1.93,1,1.32Z" transform="translate(-12.55 -7.16)"/><path class="cls-3" d="M74.87,118.8l95.19-55.72c1.4-.82-.7-1.22-1.51-.75L73.36,118c-1.4.82.7,1.22,1.51.75Z" transform="translate(-12.55 -7.16)"/><path class="cls-3" d="M169.1,24.57,166,122.94c0,.42,2.39.09,2.41-.65l3.09-98.36c0-.42-2.39-.09-2.41.65Z" transform="translate(-12.55 -7.16)"/></g></g></svg>