<svg xmlns="http://www.w3.org/2000/svg" width="382" height="148" viewBox="0 0 382 148"><title>BreakOut-Logo</title><path d="M28.39,43.65H48.31a56.37,56.37,0,0,1,6.36.42A11.21,11.21,0,0,1,59.54,46a7.48,7.48,0,0,1,3.18,3.6,12.41,12.41,0,0,1,1.06,5.93A13.65,13.65,0,0,1,60.17,65a14.46,14.46,0,0,1-9.53,4.45V69.7c6.78,1.06,10.17,5.08,10.17,11.86a18.16,18.16,0,0,1-1.06,5.72,15.29,15.29,0,0,1-9.53,9.11,23.9,23.9,0,0,1-9.32,1.48H16.74ZM20.76,95.13H41.1a24.19,24.19,0,0,0,7-1.06,14.44,14.44,0,0,0,5.08-2.75,10.82,10.82,0,0,0,3.18-4.45,15.91,15.91,0,0,0,1.06-5.51c0-3.81-1.06-6.36-3.18-7.84s-5.51-2.33-10.38-2.33H25.64Zm5.72-26.91H44.7c4.87,0,8.69-1.06,11.65-3.18a11.07,11.07,0,0,0,4.24-9.11,11.58,11.58,0,0,0-.85-5.08,6.44,6.44,0,0,0-2.54-2.75,11.25,11.25,0,0,0-4-1.27,37.55,37.55,0,0,0-5.08-.21H31.36Z" style="fill:#414042"/><path d="M72.25,58.9h3l-2.12,9.32h0.21a22.41,22.41,0,0,1,5.93-7.42,13.3,13.3,0,0,1,8.9-3h1.27a2.69,2.69,0,0,1,1.27.21l-0.85,3a8.69,8.69,0,0,0-2.33-.21,11.6,11.6,0,0,0-7.2,2.12,20.26,20.26,0,0,0-4.87,5.51,35.13,35.13,0,0,0-3.18,7C71.4,78,71,80.09,70.34,82.21L66.74,98.1h-3Z" style="fill:#414042"/><path d="M90.26,78.82c0,0.64-.21,1.48-0.21,2.12s-0.21,1.48-.21,2.12a14.24,14.24,0,0,0,.85,5.08A13.64,13.64,0,0,0,93,92.37a13.19,13.19,0,0,0,3.81,3,10.8,10.8,0,0,0,5.3,1.06,14.63,14.63,0,0,0,5.3-.85A15.24,15.24,0,0,0,111.87,93a16.88,16.88,0,0,0,3.18-3.6A14.13,14.13,0,0,0,117,85h3a16.4,16.4,0,0,1-2.54,5.51,19.27,19.27,0,0,1-3.81,4.45,18.15,18.15,0,0,1-5.3,3,20,20,0,0,1-6.36,1.06,15.79,15.79,0,0,1-6.57-1.27,12.63,12.63,0,0,1-4.66-3.39,16,16,0,0,1-2.75-4.87,18.38,18.38,0,0,1-1.06-5.93,31.93,31.93,0,0,1,1.48-10.17,28.64,28.64,0,0,1,4-8.05A17.75,17.75,0,0,1,98.94,60a19.38,19.38,0,0,1,8.69-1.91,18.66,18.66,0,0,1,6.14,1.06,17,17,0,0,1,4.45,3.18A12.21,12.21,0,0,1,121,67.16,18.38,18.38,0,0,1,122,73.09a14,14,0,0,1-.21,3,16.62,16.62,0,0,1-.42,3H90.26V78.82Zm28.6-2.54c0-.64.21-1.27,0.21-1.69s0.21-1.06.21-1.48a19.24,19.24,0,0,0-.64-4.87,14.65,14.65,0,0,0-2.12-4,10.42,10.42,0,0,0-3.81-2.75,14.64,14.64,0,0,0-11.44.21,16.18,16.18,0,0,0-4.87,3.6A16.44,16.44,0,0,0,93,70.34a28.21,28.21,0,0,0-2.12,5.93h28Z" style="fill:#414042"/><path d="M129.88,70.13c1.06-4.45,3-7.42,5.93-9.32s6.57-2.75,11-2.75a27,27,0,0,1,3.6.42,12.78,12.78,0,0,1,4,1.27,10,10,0,0,1,3.18,2.75,8.06,8.06,0,0,1,1.27,4.66,29,29,0,0,1-.42,3.39c-0.21,1.48-.64,2.75-0.85,4.24s-0.64,2.54-.85,3.81c-0.21,1.06-.42,1.91-0.42,2.12-0.21,1.06-.64,2.12-0.85,3.39s-0.64,2.33-.85,3.6S154.24,90,154,90.89a9.5,9.5,0,0,0-.21,2.33,2.41,2.41,0,0,0,.64,1.69,2.09,2.09,0,0,0,1.69.64,2.69,2.69,0,0,0,1.27-.21c0.42,0,.85-0.21,1.27-0.21l-0.42,2.54a4.67,4.67,0,0,1-1.69.21h-1.69a3.56,3.56,0,0,1-3-1.27,4.66,4.66,0,0,1-.85-2.75,4.14,4.14,0,0,1,.21-1.48c0.21-.64.21-1.27,0.42-1.69h-0.21a12.28,12.28,0,0,1-3,3.6,15,15,0,0,1-3.81,2.54,30.89,30.89,0,0,1-4,1.48,29,29,0,0,1-4,.42A16.52,16.52,0,0,1,132,98.1a10.75,10.75,0,0,1-3.81-1.91A9.38,9.38,0,0,1,125.64,93a12.65,12.65,0,0,1,.42-11,12.32,12.32,0,0,1,3.81-3.6,15.25,15.25,0,0,1,5.51-1.69c2.12-.42,4.24-0.42,6.36-0.64a29.41,29.41,0,0,0,6.78-.64A11.13,11.13,0,0,0,153,74.15a5,5,0,0,0,2.33-2.33,9.13,9.13,0,0,0,.64-3.6,8,8,0,0,0-2.33-5.93c-1.48-1.48-4-2.12-7.63-2.12a15.56,15.56,0,0,0-8.69,2.33c-2.33,1.48-3.81,4-4.66,7.42h-2.75v0.21Zm24.58,5.72h0a4.83,4.83,0,0,1-2.54,1.27,17.65,17.65,0,0,1-3.18.85,20.87,20.87,0,0,1-3.6.42c-1.27,0-2.12.21-3,.21a48.21,48.21,0,0,0-5.51.42A15,15,0,0,0,132,80.3a8.84,8.84,0,0,0-3.39,2.75,9,9,0,0,0-1.27,5.08,7.26,7.26,0,0,0,.85,3.81,8.48,8.48,0,0,0,2.12,2.54,7.17,7.17,0,0,0,3.18,1.27,23.35,23.35,0,0,0,3.81.42,13.39,13.39,0,0,0,10.59-4.66,19.34,19.34,0,0,0,3.18-4.87c0.85-1.91,1.48-3.81,2.12-5.72Z" style="fill:#414042"/><path d="M174.58,43.65h3l-7.84,36,0.21,0.21,26.27-21h4.45L180.72,74.58l14,23.52h-3.6L178.39,76.27l-9.32,7.2-3,14.41h-3Z" style="fill:#414042"/><path d="M299.37,98.1h-3V89.62h-0.21a14.65,14.65,0,0,1-2.12,4,21.09,21.09,0,0,1-3.18,3,14.05,14.05,0,0,1-4,1.91,16.13,16.13,0,0,1-4.45.64,16.71,16.71,0,0,1-5.93-.85,14.27,14.27,0,0,1-4-2.12A6.93,6.93,0,0,1,270.13,93a11.08,11.08,0,0,1-1.27-3.39,21.12,21.12,0,0,1-.42-3.39V58.9h3V83.69a21.79,21.79,0,0,0,.21,3.6,16.14,16.14,0,0,0,1.27,4.24,8.67,8.67,0,0,0,3.39,3.39c1.48,1.06,3.6,1.48,6.36,1.48a13.53,13.53,0,0,0,5.93-1.27A13.82,13.82,0,0,0,293,91.74a14.8,14.8,0,0,0,2.75-5.08,21.45,21.45,0,0,0,.85-6.57V58.9h3V98.1h-0.21Z" style="fill:#414042"/><path d="M322.25,61.44h-8.47V88.77a10.26,10.26,0,0,0,.64,3.81,4.23,4.23,0,0,0,1.69,2.12,5.3,5.3,0,0,0,2.75.85,20.41,20.41,0,0,0,3.6,0V98.1h-4.24a9,9,0,0,1-3.6-1.06,6,6,0,0,1-2.54-3,12,12,0,0,1-.85-5.3V61.44H304V58.9h7.2V46.61h3V58.9h8.47v2.54h-0.42Z" style="fill:#414042"/><polygon points="12.92 29.03 0 18.64 10.38 5.72 13.35 7.84 5.08 18.01 15.04 26.27 12.92 29.03" style="fill:#414042"/><polygon points="373.1 117.16 370.13 115.26 376.92 104.24 365.9 97.46 367.81 94.28 382 103.18 373.1 117.16" style="fill:#414042"/><rect x="278.14" y="114.24" width="102.75" height="3.6" transform="translate(-18.3 83.37) rotate(-14.03)" style="fill:#414042"/><rect x="189.37" y="2.88" width="3.6" height="56.36" transform="translate(36.97 148.24) rotate(-46.46)" style="fill:#414042"/><rect x="2.37" y="11.25" width="158.26" height="3.6" transform="translate(-0.67 5.27) rotate(-3.69)" style="fill:#414042"/><rect x="168.34" y="111.38" width="57.21" height="3.6" transform="translate(-14.23 196.86) rotate(-51.5)" style="fill:#414042"/><rect x="257.64" y="89.74" width="3.6" height="38.99" transform="translate(-15.85 168.03) rotate(-34.89)" style="fill:#414042"/><path d="M166.32,15.25a7.63,7.63,0,1,1,7.63-7.63A7.6,7.6,0,0,1,166.32,15.25Zm0-11.86a4,4,0,0,0-4,4,4.17,4.17,0,0,0,4,4A4,4,0,1,0,166.32,3.39Z" style="fill:#414042"/><path d="M175.43,147.88a7.63,7.63,0,1,1,7.84-7.84A8,8,0,0,1,175.43,147.88Zm0-11.86a4,4,0,0,0-4,4,4.17,4.17,0,0,0,4,4A4,4,0,0,0,175.43,136Z" style="fill:#414042"/><path d="M273.95,137.71a7.63,7.63,0,1,1,7.63-7.63A7.47,7.47,0,0,1,273.95,137.71Zm0-11.86a4,4,0,0,0-4,4,4.17,4.17,0,0,0,4,4A4,4,0,0,0,273.95,125.85Z" style="fill:#414042"/><path d="M262.93,69.28c0,16.1-13.56,29.45-29.87,29.45s-29.87-13.35-29.87-29.45,13.56-29.45,29.87-29.45S262.93,53.18,262.93,69.28Zm-55.93,0a26.06,26.06,0,1,0,26.06-26.06A26.32,26.32,0,0,0,207,69.28Z" style="fill:#f7941e"/></svg>