<svg xmlns="http://www.w3.org/2000/svg" viewBox="0 0 429.59 111.5"><title>Logo Quer</title><g id="Ebene_2" data-name="Ebene 2"><g id="Colored"><g id="Logo_non-destructive_" data-name="Logo (non-destructive)"><path d="M131.62,80.22q0,4.34-2.81,10.37a29.76,29.76,0,0,1-4,6.27,18.4,18.4,0,0,1-5.57,4.4,16.87,16.87,0,0,1-7.85,1.88h-.47q-5.62,0-5.63-3,0-3.81.29-14.77t.29-14.77q0-9.2-.42-24.37t-.42-24.38v-.7q0-1.76.12-3a16.66,16.66,0,0,1,.53-2.75A4.45,4.45,0,0,1,107.05,13a3.67,3.67,0,0,1,2.52-.88,18.38,18.38,0,0,1,9.73,2.49,16.26,16.26,0,0,1,6.27,6.94,23.16,23.16,0,0,1,2.17,10.25,23.81,23.81,0,0,1-1.32,7.53,30.42,30.42,0,0,1-3.54,7.29A19.68,19.68,0,0,1,118,51.81,28.22,28.22,0,0,1,128.3,63.94,39.64,39.64,0,0,1,131.62,80.22ZM113.26,18.88q-1.7,0-1.7,3.75,0,5.86.24,14.06T112,50.11a6.15,6.15,0,0,0,2.9-1.7,12.54,12.54,0,0,0,2.43-3.52,60.31,60.31,0,0,0,3.34-8.2q.76-2.34,1.17-3.28V29.13a10.34,10.34,0,0,0-1.23-4.75,11.7,11.7,0,0,0-3.22-4A6.69,6.69,0,0,0,113.26,18.88Zm12.14,61.64a52.34,52.34,0,0,0-.91-10.11,23.15,23.15,0,0,0-2.32-7,29.33,29.33,0,0,0-2.7-3.81,9.55,9.55,0,0,0-2.29-2.11l-.94-.41H112q.59,15.82.59,39.79A14.19,14.19,0,0,0,119.4,94a15,15,0,0,0,4.45-5.77A18.74,18.74,0,0,0,125.41,80.52Z" style="fill:#34323b"/><path d="M167.53,104.18q-2.52,0-4.81-5.8A70.81,70.81,0,0,1,159,85.61l-.82-4q-3.34-17-4.4-19.63h-1.46q0,3.52-.06,6.39t-.06,6.62q0,15.88,2.29,25l-1.35,3.22h-3.34l-1.58-1.76.12-8q0-10.14-1-32.75-1.06-22-1.06-32.81,0-5.68,4-5.69a18.54,18.54,0,0,1,7.59,1.49,12.26,12.26,0,0,1,5.3,4.33,11.84,11.84,0,0,1,1.94,6.83v8.44a15,15,0,0,1-.64,4,32.42,32.42,0,0,1-1.35,3.93l-2.28,4.34L158.9,59l2.29,11.42q1.64,9,3.23,14.79a67,67,0,0,0,3.81,10.63l.76,1.52a15.91,15.91,0,0,1,.94,2.08,5.14,5.14,0,0,1,.29,1.67,3.2,3.2,0,0,1-.76,2.17A2.45,2.45,0,0,1,167.53,104.18ZM159.08,37.8A34.11,34.11,0,0,0,158.9,34a21.91,21.91,0,0,0-.7-3.43,5.56,5.56,0,0,0-2-2.9,6,6,0,0,0-3.49-1.08l-.18.7a3.19,3.19,0,0,0-.23,1q0,6,.24,14.18T152.81,56q1.76-.94,3.19-4.1a33.9,33.9,0,0,0,2.25-7.12A34.94,34.94,0,0,0,159.08,37.8Z" style="fill:#34323b"/><path d="M204.3,28.24a3,3,0,0,1-1,2.2A7.37,7.37,0,0,1,200.78,32a52.06,52.06,0,0,0-9.08-2.28q.18,2.52.18,5.16,0,3.52-.23,8.61-.29,6.33-.29,8.61L191.7,54l1.93-.12q1-.06,2.34-.06,5.8,0,5.8,3.28a2.94,2.94,0,0,1-1.08,2.26,4,4,0,0,1-2.72,1,24,24,0,0,1-3.4-.23h-3q.35,4.57.35,9.08,0,4.34-.23,10.84-.29,8.09-.29,10.9,0,6.74.24,6.74l3.93-.18,4.92-.12q4.57,0,4.57,2.93a2.82,2.82,0,0,1-1.49,2.58,7.11,7.11,0,0,1-3.66.88H189.72a4.32,4.32,0,0,1-2.9-1.08A3.51,3.51,0,0,1,185.5,100V96.85q0-1.29-.06-2.4l-.12-2.52q0-1.93-.29-7.68t-.29-7.68q0-6.62.41-17.52t.41-17.52q0-1.29-.29-5.1-.35-3.34-.35-5,0-8.5,5-8.5a29.13,29.13,0,0,1,5.77.73,27.49,27.49,0,0,1,6,1.93Q204.3,26.77,204.3,28.24Z" style="fill:#34323b"/><path d="M242.32,87l-.47-2.58L230,82.67a83.1,83.1,0,0,0-2,11.13q-.76,5.92-2.28,7.79a3.11,3.11,0,0,1-2.46,1.17,4.11,4.11,0,0,1-2.64-.94,2.83,2.83,0,0,1-1.17-2.29,1.78,1.78,0,0,1,.18-.59l.12-.47a514.36,514.36,0,0,0,12-60.82q.23-2.58.41-4.86a69,69,0,0,1,.76-7.12,10.23,10.23,0,0,1,1.41-4h4a5.12,5.12,0,0,1,2.93.79,2.56,2.56,0,0,1,1.17,2.26q0,9.14,2.47,27.13,2.41,18.22,2.41,25.9a19.28,19.28,0,0,0,.65,3.69,19.43,19.43,0,0,1,.65,3.69,56.19,56.19,0,0,0,1.17,7.15,47.78,47.78,0,0,1,1.12,7.44v.12q0,2.64-2,3.4a7.33,7.33,0,0,1-4-.88,3.45,3.45,0,0,1-1.32-3.11A91.8,91.8,0,0,0,242.32,87Zm-1.23-6.86a23.32,23.32,0,0,1-.35-4.45q0-5.68-.47-11.92T238.8,48.09Q238,41,237.51,35.67q-5.44,30.18-7,42.54Q232.48,79.5,241.09,80.14Z" style="fill:#34323b"/><path d="M295.21,26.58q0,.18-2.87,4.81-9.08,15-10,16.88l-.12,3.57-.12,3.57q0,3.28,2,11.28t4.63,15.88a63.09,63.09,0,0,0,4.43,10.81l1.58,2.17a16.72,16.72,0,0,1,1.76,2.9A6.27,6.27,0,0,1,297,101a2.93,2.93,0,0,1-1,2.26,3.45,3.45,0,0,1-2.4.91q-2.76,0-5.86-6a79,79,0,0,1-5-13.36q-2.35-8-4.16-16.29-1.35-5.86-2.17-10.49Q272,66.72,272,78.91v22.21q0,2.81-2.46,2.81a4.05,4.05,0,0,1-2.9-1,3.65,3.65,0,0,1-1.08-2.78V63.67q0-6.21,1.17-19.45,1.11-12.6,1.11-19.34a3.65,3.65,0,0,1,3.57-2.29,3.7,3.7,0,0,1,3.69,3.69v.35q-1.58,2.7-1.58,21.86v4.28L277.93,44q4.22-8.55,7.73-14.59t4.92-6a6.07,6.07,0,0,1,3.25.85A2.65,2.65,0,0,1,295.21,26.58Z" style="fill:#34323b"/><path d="M325.08,9.23a12.52,12.52,0,0,1,5.68,1.29,12.22,12.22,0,0,1,4.39,3.75,33,33,0,0,1,3.28,5.68,33.81,33.81,0,0,1,2.17,6.86q.94,4.63,1.47,8.2a75.62,75.62,0,0,1,.7,8q.41,8.85.41,16v6.91q0,2.64-.53,7.68t-.53,7.5v.53a34.94,34.94,0,0,0-.76,7.91A18.84,18.84,0,0,1,340,96.41a18,18,0,0,1-4,6.21,8.19,8.19,0,0,1-6,2.81,9.28,9.28,0,0,1-5.89-2.17,16.92,16.92,0,0,1-4.54-5.8,44.65,44.65,0,0,1-3-8.14,84.27,84.27,0,0,1-2.11-9.61q-.7-4.22-1.14-9.23t-.62-8.88q-.12-4.45-.12-6.33,0-3.28-.06-6.45l-.12-7.56a124.51,124.51,0,0,1,.58-12.77,43.4,43.4,0,0,1,2.46-11.31A16.9,16.9,0,0,1,317.58,13a10.15,10.15,0,0,1,3.22-2.72A9.43,9.43,0,0,1,325.08,9.23Zm.59,6.33q-2.81,0-4.45,4.69A47.48,47.48,0,0,0,318.87,31q-.76,7.21-.88,12.13l-.06,2.23q-.12,5.63-.12,6.27v.53a152.89,152.89,0,0,0,1.59,19.75q1,7.68,2.32,13.3a38,38,0,0,0,3.43,9.49q2.23,4.16,5,4.16,2.4,0,4.1-4.51a44.17,44.17,0,0,0,2.17-9.87q.7-5.89,1.11-12.69.23-4.16.23-8,0-5.39-.18-11.07-.29-6.39-1.41-16.17a61,61,0,0,0-3.58-14.65,12.68,12.68,0,0,0-3-4.75A5.65,5.65,0,0,0,325.67,15.56Z" style="fill:#34323b"/><path d="M374.89,103.91a10.31,10.31,0,0,1-5.16-1.29A10,10,0,0,1,366,99a27.66,27.66,0,0,1-2.4-5.18,32.35,32.35,0,0,1-1.41-6.18,98.68,98.68,0,0,1-.82-13.24q-.3-14.36-.3-31.64,0-4.16-.29-11.66l-.24-5.51Q361.69,23,363.16,23t2.52,2.17a10.14,10.14,0,0,1,1.11,4.69V62.54q0,4.28.88,12.71Q368.5,84,368.5,88q0,8.79,7.62,8.79,8.55,0,8.54-64.51V24.45a6.68,6.68,0,0,1-.06-.94,2.85,2.85,0,0,1,.7-2.14,3.75,3.75,0,0,1,2.58-.67,3.39,3.39,0,0,1,2.46.91,3.6,3.6,0,0,1,1.11,2.08q.12,1.41.12,2.81a58.7,58.7,0,0,1-.41,6.09,57.86,57.86,0,0,0-.41,6q0,2-.23,5-.29,3.69-.29,5a7,7,0,0,0,.06,1,8.76,8.76,0,0,1,.06,1.05Q390.36,103.9,374.89,103.91Z" style="fill:#34323b"/><path d="M417.3,90.95l.17-4.1q-.47-1.41-1.88-26.51T414,28.55q-6.91-.17-9-1.52a2.41,2.41,0,0,1-1.23-2A2.16,2.16,0,0,1,405,23.16a4.83,4.83,0,0,1,2.58-.76q2.7,0,8.14.53a77.37,77.37,0,0,0,8.14.58,6.54,6.54,0,0,0,.94-.06h1q3.75,0,3.75,2.87a2.86,2.86,0,0,1-1.2,2.34,4.4,4.4,0,0,1-2.78.94,15.07,15.07,0,0,1-3.11-.41l-2.4-.41-.12.53-.12.7q0,11.72,2,34t2,34.1a3.22,3.22,0,0,1-1.26,2.49,4.24,4.24,0,0,1-2.84,1.08l-2.23-1.58-.12-4.63Z" style="fill:#34323b"/><path id="Outline" d="M70,36.49c0,26.3-33.5,72-33.5,72S3,62.79,3,36.51a33.5,33.5,0,0,1,67,0Z" style="fill:#3f8fae"/><path d="M45.18,13.53c2,2.5,2.74,2.71-.61,4.78-4.3,2.66-4.72,6.43-2.89,7.22,2.17.94,5.39-3.67,8.58-2.71,1.53.46,2.86,1.45,4.41,1.91,2.42.72,3.11.2,4.36,2,2,2.87,3,6.93,5.94,9.32,1.28,1,3.11,1.19,5,1.14,0-.24,0-.49,0-.73A33.48,33.48,0,0,0,52.62,7.13C48.9,8.92,43.79,11.8,45.18,13.53Z" style="fill:#eae79e"/><path d="M45.18,13.53c2,2.5,2.74,2.71-.61,4.78-4.3,2.66-4.72,6.43-2.89,7.22,2.17.94,5.39-3.67,8.58-2.71,1.53.46,2.86,1.45,4.41,1.91,2.42.72,3.11.2,4.36,2,2,2.87,3,6.93,5.94,9.32,1.28,1,3.11,1.19,5,1.14,0-.24,0-.49,0-.73A33.48,33.48,0,0,0,52.62,7.13C48.9,8.92,43.79,11.8,45.18,13.53Z" style="fill:#eae79e"/><path d="M35.93,12.54c4-1.83,6.69-5,9.46-8.34a33.61,33.61,0,0,0-17.28-.14,35.52,35.52,0,0,0,2.07,6.48C32,14.26,32.6,14.08,35.93,12.54Z" style="fill:#eae79e"/><path d="M35.93,12.54c4-1.83,6.69-5,9.46-8.34a33.61,33.61,0,0,0-17.28-.14,35.52,35.52,0,0,0,2.07,6.48C32,14.26,32.6,14.08,35.93,12.54Z" style="fill:#eae79e"/><path d="M30.64,60.08c.71-1.75,3.37-7.75,3-9.54-.38-1.64-5.2-4.17-6.62-5.32-2.21-1.79-5.6-2.58-8.22-3.64s-4.81-.1-7.32-.52c-1.8-.3-.6-1.66-1.3-2.66s-2.5-.94-2.5-2.82,3-4.91,6-4.51c2,.27,3,5.92,5,5.45C20.81,36,20.71,30,23.15,28c.53-.42,8-4.71,8-9.41,0-4.24-3.47-5.68-4.5-7.53a22,22,0,0,0-4.41-4.92A33.51,33.51,0,0,0,3,36.51C3,50.42,12.38,69.76,21.21,84.9c1.27-5.47,2.38-11.64,4.53-16.73C26.91,65.39,29.5,62.87,30.64,60.08Z" style="fill:#eae79e"/><path d="M30.64,60.08c.71-1.75,3.37-7.75,3-9.54-.38-1.64-5.2-4.17-6.62-5.32-2.21-1.79-5.6-2.58-8.22-3.64s-4.81-.1-7.32-.52c-1.8-.3-.6-1.66-1.3-2.66s-2.5-.94-2.5-2.82,3-4.91,6-4.51c2,.27,3,5.92,5,5.45C20.81,36,20.71,30,23.15,28c.53-.42,8-4.71,8-9.41,0-4.24-3.47-5.68-4.5-7.53a22,22,0,0,0-4.41-4.92A33.51,33.51,0,0,0,3,36.51C3,50.42,12.38,69.76,21.21,84.9c1.27-5.47,2.38-11.64,4.53-16.73C26.91,65.39,29.5,62.87,30.64,60.08Z" style="fill:#eae79e"/><path d="M37.39,41.21c2.33,1.23,6.82-.31,8.91,1.26,1.4,1,1.74,4.44,1.89,6.13.49,5.57.68,17.46,6.46,17.4,1.83,0,3.62-5.45,6.5-9,1.67-2.06,1.81-7.35,2-10,.08-1.15,1.34-3.29,1.85-4.19.8-1.41,2.14-1.36,2.69-3.27-4.54,0-3.44-1.38-6.05-5.19-2.46-3.6-1.45-5.31-6.07-5.74-5.38-.56-10.23-4-14.55-.75C37.77,30.3,33,38.88,37.39,41.21Z" style="fill:#eae79e"/><path d="M37.39,41.21c2.33,1.23,6.82-.31,8.91,1.26,1.4,1,1.74,4.44,1.89,6.13.49,5.57.68,17.46,6.46,17.4,1.83,0,3.62-5.45,6.5-9,1.67-2.06,1.81-7.35,2-10,.08-1.15,1.34-3.29,1.85-4.19.8-1.41,2.14-1.36,2.69-3.27-4.54,0-3.44-1.38-6.05-5.19-2.46-3.6-1.45-5.31-6.07-5.74-5.38-.56-10.23-4-14.55-.75C37.77,30.3,33,38.88,37.39,41.21Z" style="fill:#eae79e"/><path d="M42.61,18.61c1.2-.72.1-2.07-.84-2.47a.35.35,0,0,0-.49.25C41.09,17.4,41.17,19.48,42.61,18.61Z" style="fill:#eae79e"/><path d="M42.61,18.61c1.2-.72.1-2.07-.84-2.47a.35.35,0,0,0-.49.25C41.09,17.4,41.17,19.48,42.61,18.61Z" style="fill:#eae79e"/><path d="M36.5,111.5a3,3,0,0,1-2.42-1.23C32.69,108.38,0,63.47,0,36.51A36.55,36.55,0,0,1,36.49,0h0A36.5,36.5,0,0,1,73,36.49c0,27-32.69,71.88-34.08,73.78A3,3,0,0,1,36.5,111.5ZM36.5,6h0A30.54,30.54,0,0,0,6,36.51c0,21,22.89,55.8,30.5,66.79C44.1,92.31,67,57.46,67,36.49A30.5,30.5,0,0,0,36.5,6Z" style="fill:#34323b"/></g></g></g></svg>