<svg xmlns="http://www.w3.org/2000/svg" viewBox="0 0 322.78 328.46"><title>Logo</title><g id="Ebene_2" data-name="Ebene 2"><g id="Colored"><g id="Logo"><path d="M26.41,303.38q0,4.31-2.8,10.32a29.6,29.6,0,0,1-4,6.24,18.3,18.3,0,0,1-5.54,4.37,16.79,16.79,0,0,1-7.81,1.87H5.84q-5.59,0-5.6-3,0-3.79.29-14.69t.29-14.69q0-9.15-.41-24.24T0,245.34v-.7q0-1.75.12-3a16.77,16.77,0,0,1,.52-2.74A4.43,4.43,0,0,1,2,236.48a3.65,3.65,0,0,1,2.51-.87,18.29,18.29,0,0,1,9.67,2.48A16.17,16.17,0,0,1,20.4,245a23,23,0,0,1,2.16,10.2,23.67,23.67,0,0,1-1.31,7.49,30.31,30.31,0,0,1-3.52,7.26,19.63,19.63,0,0,1-4.84,5.19,28.06,28.06,0,0,1,10.23,12.06A39.42,39.42,0,0,1,26.41,303.38Zm-18.25-61q-1.69,0-1.69,3.73,0,5.83.24,14t.24,13.35a6.12,6.12,0,0,0,2.88-1.69,12.51,12.51,0,0,0,2.42-3.5,59.93,59.93,0,0,0,3.32-8.16q.76-2.33,1.17-3.26v-4.25a10.29,10.29,0,0,0-1.22-4.72,11.64,11.64,0,0,0-3.21-3.93A6.65,6.65,0,0,0,8.16,242.36Zm12.08,61.31a52,52,0,0,0-.91-10.05,23.05,23.05,0,0,0-2.3-7,29.15,29.15,0,0,0-2.68-3.79,9.52,9.52,0,0,0-2.27-2.1l-.93-.41H6.88q.58,15.73.59,39.57a14.12,14.12,0,0,0,6.79-2.86,14.9,14.9,0,0,0,4.43-5.74A18.61,18.61,0,0,0,20.23,303.67Z" style="fill:#34323b"/><path d="M62.13,327.21q-2.51,0-4.78-5.77a70.45,70.45,0,0,1-3.73-12.7l-.82-4q-3.33-17-4.37-19.52H47q0,3.5-.06,6.35t-.06,6.58q0,15.79,2.28,24.88l-1.34,3.21H44.47l-1.57-1.75.12-8q0-10.08-1-32.58Q41,262.06,41,251.27q0-5.65,4-5.65a18.44,18.44,0,0,1,7.55,1.48,12.2,12.2,0,0,1,5.27,4.31,11.77,11.77,0,0,1,1.92,6.79v8.39a14.92,14.92,0,0,1-.64,4,32.24,32.24,0,0,1-1.34,3.9l-2.27,4.31-1.86,3.5,2.28,11.36q1.63,8.92,3.21,14.71a66.62,66.62,0,0,0,3.79,10.58l.76,1.51a15.61,15.61,0,0,1,.93,2.07,5.08,5.08,0,0,1,.29,1.66,3.18,3.18,0,0,1-.76,2.16A2.43,2.43,0,0,1,62.13,327.21Zm-8.41-66a34.45,34.45,0,0,0-.18-3.76,21.76,21.76,0,0,0-.7-3.41,5.54,5.54,0,0,0-2-2.88A5.94,5.94,0,0,0,47.43,250l-.17.7a3.15,3.15,0,0,0-.23,1q0,5.94.24,14.1t.24,13.46q1.75-.93,3.18-4.08a33.72,33.72,0,0,0,2.24-7.08A34.83,34.83,0,0,0,53.72,261.18Z" style="fill:#34323b"/><path d="M98.7,251.67a3,3,0,0,1-1,2.19,7.33,7.33,0,0,1-2.51,1.54,51.79,51.79,0,0,0-9-2.27q.17,2.51.18,5.13,0,3.5-.23,8.57-.29,6.3-.29,8.57l.35,1.86,1.92-.12q1-.06,2.33-.06,5.77,0,5.77,3.26a2.93,2.93,0,0,1-1.08,2.24,3.92,3.92,0,0,1-2.71,1,23.75,23.75,0,0,1-3.38-.23H86q.35,4.55.35,9,0,4.31-.23,10.78-.29,8-.29,10.84,0,6.7.23,6.7l3.9-.18,4.9-.12q4.55,0,4.55,2.91a2.8,2.8,0,0,1-1.49,2.56,7.07,7.07,0,0,1-3.64.88H84.2a4.3,4.3,0,0,1-2.89-1.08A3.49,3.49,0,0,1,80,323.06v-3.15q0-1.28-.06-2.39L79.83,315q0-1.92-.29-7.63t-.29-7.63q0-6.58.4-17.42t.4-17.43q0-1.28-.29-5.07-.35-3.32-.35-5,0-8.45,5-8.45a29,29,0,0,1,5.74.73,27.28,27.28,0,0,1,6,1.92Q98.7,250.21,98.7,251.67Z" style="fill:#34323b"/><path d="M136.52,310.12l-.47-2.56-11.77-1.75a82.59,82.59,0,0,0-2,11.07q-.76,5.89-2.27,7.75a3.09,3.09,0,0,1-2.45,1.17,4.09,4.09,0,0,1-2.62-.93,2.81,2.81,0,0,1-1.17-2.27A1.76,1.76,0,0,1,114,322l.12-.47A511.58,511.58,0,0,0,126,261q.23-2.56.41-4.84a68.8,68.8,0,0,1,.76-7.08,10.2,10.2,0,0,1,1.4-4h4a5.09,5.09,0,0,1,2.91.79,2.55,2.55,0,0,1,1.17,2.24q0,9.09,2.45,27,2.39,18.12,2.39,25.76a19.26,19.26,0,0,0,.64,3.67,19.24,19.24,0,0,1,.64,3.67,56.28,56.28,0,0,0,1.17,7.11,47.51,47.51,0,0,1,1.11,7.4v.12q0,2.62-2,3.38a7.29,7.29,0,0,1-4-.87,3.44,3.44,0,0,1-1.31-3.09A91.29,91.29,0,0,0,136.52,310.12Zm-1.23-6.82a23.25,23.25,0,0,1-.35-4.43q0-5.65-.47-11.86T133,271.42q-.82-7.05-1.28-12.35-5.41,30-7,42.31Q126.73,302.66,135.3,303.3Z" style="fill:#34323b"/><path d="M189.12,250q0,.18-2.85,4.78-9,14.92-10,16.79l-.12,3.55-.12,3.55q0,3.26,2,11.22t4.61,15.79a62.7,62.7,0,0,0,4.4,10.75l1.57,2.16a16.55,16.55,0,0,1,1.75,2.88,6.26,6.26,0,0,1,.53,2.54,2.91,2.91,0,0,1-1,2.24,3.42,3.42,0,0,1-2.39.9q-2.74,0-5.83-5.94a78.68,78.68,0,0,1-5-13.29q-2.33-8-4.14-16.2-1.34-5.83-2.16-10.43-4.31,8.63-4.31,20.75v22.09q0,2.8-2.45,2.8a4,4,0,0,1-2.89-1,3.62,3.62,0,0,1-1.08-2.77V286.92q0-6.18,1.16-19.35,1.1-12.53,1.1-19.23a3.63,3.63,0,0,1,3.55-2.27,3.68,3.68,0,0,1,3.67,3.67v.35q-1.57,2.68-1.57,21.74v4.25l4.37-8.74q4.19-8.51,7.69-14.51t4.89-6a6,6,0,0,1,3.23.84A2.64,2.64,0,0,1,189.12,250Z" style="fill:#34323b"/><path d="M218.83,232.76a12.48,12.48,0,0,1,5.65,1.28,12.15,12.15,0,0,1,4.37,3.73,32.92,32.92,0,0,1,3.26,5.65,33.56,33.56,0,0,1,2.16,6.82q.93,4.61,1.46,8.16a75.15,75.15,0,0,1,.7,7.93q.41,8.8.41,15.91v6.88q0,2.62-.52,7.63t-.52,7.46v.52a34.77,34.77,0,0,0-.76,7.87,18.75,18.75,0,0,1-1.4,6.88,17.87,17.87,0,0,1-4,6.18,8.15,8.15,0,0,1-6,2.8,9.23,9.23,0,0,1-5.86-2.16,16.84,16.84,0,0,1-4.52-5.77,44.49,44.49,0,0,1-3-8.1,84.11,84.11,0,0,1-2.1-9.56q-.7-4.2-1.14-9.18t-.61-8.83q-.12-4.43-.12-6.29,0-3.26-.06-6.41l-.12-7.52a123.8,123.8,0,0,1,.58-12.71,43.13,43.13,0,0,1,2.45-11.25,16.82,16.82,0,0,1,2.27-4.23,10.09,10.09,0,0,1,3.21-2.71A9.37,9.37,0,0,1,218.83,232.76Zm.58,6.29q-2.8,0-4.43,4.66a47.31,47.31,0,0,0-2.33,10.72q-.76,7.17-.87,12.06l-.06,2.21q-.12,5.59-.11,6.24v.52a151.91,151.91,0,0,0,1.58,19.64q1,7.63,2.3,13.23a37.8,37.8,0,0,0,3.41,9.44q2.21,4.14,5,4.14,2.39,0,4.08-4.49a43.91,43.91,0,0,0,2.15-9.82q.7-5.86,1.11-12.62.23-4.14.23-7.93,0-5.36-.18-11-.29-6.35-1.4-16.08a60.64,60.64,0,0,0-3.56-14.57,12.61,12.61,0,0,0-3-4.72A5.63,5.63,0,0,0,219.41,239.06Z" style="fill:#34323b"/><path d="M268.37,326.93a10.26,10.26,0,0,1-5.13-1.28,9.91,9.91,0,0,1-3.67-3.61,27.57,27.57,0,0,1-2.39-5.16,32.09,32.09,0,0,1-1.4-6.15,98.15,98.15,0,0,1-.82-13.17q-.3-14.28-.3-31.47,0-4.14-.29-11.6l-.23-5.48q1.1-2.51,2.56-2.51t2.51,2.16a10.06,10.06,0,0,1,1.11,4.66v32.46q0,4.26.88,12.65.82,8.68.82,12.65,0,8.74,7.58,8.74,8.51,0,8.5-64.17V247.9A6.62,6.62,0,0,1,278,247a2.84,2.84,0,0,1,.7-2.13,3.73,3.73,0,0,1,2.56-.67,3.37,3.37,0,0,1,2.45.9,3.58,3.58,0,0,1,1.11,2.07q.12,1.4.12,2.8a58.22,58.22,0,0,1-.41,6.06,57.69,57.69,0,0,0-.41,5.94q0,2-.23,5-.29,3.67-.29,5a7.25,7.25,0,0,0,.06,1,8.49,8.49,0,0,1,.06,1Q283.76,326.93,268.37,326.93Z" style="fill:#34323b"/><path d="M310.55,314l.17-4.08q-.47-1.4-1.87-26.37T307.28,252q-6.88-.17-8.92-1.51a2.4,2.4,0,0,1-1.22-2,2.15,2.15,0,0,1,1.22-1.81,4.8,4.8,0,0,1,2.56-.76q2.68,0,8.1.52a76.91,76.91,0,0,0,8.1.58,6.64,6.64,0,0,0,.93-.06h1q3.73,0,3.73,2.85a2.84,2.84,0,0,1-1.19,2.33,4.37,4.37,0,0,1-2.77.93,15,15,0,0,1-3.09-.41l-2.39-.41-.12.53-.12.7q0,11.66,2,33.86t2,33.92a3.2,3.2,0,0,1-1.25,2.48,4.22,4.22,0,0,1-2.83,1.08l-2.21-1.57-.12-4.6Z" style="fill:#34323b"/><path id="Outline" d="M228.39,72c0,52.6-67,144-67,144s-67-91.41-67-144a67,67,0,0,1,134,0Z" style="fill:#3f8fae"/><path d="M193.63,13.26C186.2,16.84,176,22.6,178.75,26.07c4,5,5.48,5.42-1.22,9.56-8.6,5.33-9.44,12.86-5.78,14.44,4.35,1.88,10.78-7.34,17.16-5.42,3.05.92,5.73,2.9,8.82,3.81,4.84,1.43,6.21.39,8.72,4.07,3.92,5.73,5.91,13.86,11.88,18.64,2.56,2.05,6.22,2.37,10,2.28,0-.49,0-1,0-1.46A67,67,0,0,0,193.63,13.26Z" style="fill:#eae79e"/><path d="M161.37,5a67.11,67.11,0,0,0-16.76,2.12c1.17,4.37,2.21,9.08,4.14,13,3.7,7.45,4.84,7.07,11.5,4C168.2,20.4,173.62,14,179.16,7.4A67,67,0,0,0,161.37,5Z" style="fill:#eae79e"/><path d="M139.87,135.34c2.34-5.55,7.53-10.6,9.8-16.18,1.42-3.5,6.74-15.5,5.91-19.09-.76-3.28-10.4-8.35-13.23-10.64-4.41-3.57-11.2-5.16-16.44-7.27s-9.62-.2-14.63-1c-3.59-.61-1.2-3.31-2.59-5.31-1.57-2.26-5-1.88-5-5.65s6-9.81,12-9c4,.54,6,11.84,10,10.89,4.33-1,4.12-13.06,9-16.94,1.05-.84,16-9.41,16-18.82,0-8.47-6.93-11.36-9-15.06a44.06,44.06,0,0,0-8.82-9.85A67,67,0,0,0,94.39,72c0,27.82,18.76,66.52,36.43,96.79C133.35,157.86,135.58,145.51,139.87,135.34Z" style="fill:#eae79e"/><path d="M163.17,81.41c4.67,2.47,13.64-.62,17.82,2.51,2.8,2.1,3.48,8.87,3.78,12.26,1,11.14,1.36,34.93,12.92,34.8,3.66,0,7.24-10.9,13-18,3.34-4.12,3.62-14.7,4-20,.16-2.3,2.67-6.57,3.7-8.39,1.61-2.83,4.27-2.71,5.37-6.53-9.07,0-6.88-2.75-12.11-10.38-4.93-7.2-2.9-10.61-12.15-11.49-10.75-1.12-20.45-8-29.1-1.5C163.93,59.59,154.35,76.76,163.17,81.41Z" style="fill:#eae79e"/><path d="M171,31.79c-.38,2-.23,6.16,2.65,4.43,2.4-1.45.19-4.14-1.67-4.93A.7.7,0,0,0,171,31.79Z" style="fill:#eae79e"/><path d="M161.39,221a5,5,0,0,1-4-2,616,616,0,0,1-33.81-52.76C100.88,126.38,89.39,94.7,89.39,72a72.09,72.09,0,0,1,72-72h0a72,72,0,0,1,72,72c0,22.69-11.49,54.39-34.15,94.21A615.68,615.68,0,0,1,165.42,219,5,5,0,0,1,161.39,221Zm0-211h0a62.08,62.08,0,0,0-62,62c0,43,47.66,114.72,62,135.34,14.34-20.62,62-92.37,62-135.36a62,62,0,0,0-62-62Z" style="fill:#34323b"/></g></g></g></svg>