<svg xmlns="http://www.w3.org/2000/svg" xmlns:xlink="http://www.w3.org/1999/xlink" x="0" y="0" version="1.1" viewBox="0 0 32 32" width="96" height="96" style="fill: rgb(51, 51, 51);"><g fill="none" stroke="none" stroke-width="1" stroke-linecap="butt" stroke-linejoin="miter" stroke-miterlimit="10" stroke-dasharray="" stroke-dashoffset="0" font-family="none" font-weight="normal" font-size="12" text-anchor="start" mix-blend-mode="normal"><g><g><path d="M0,32l0,-32l32,0l0,32z" fill="none" font-family="sans-serif"/><g fill="#333333" font-family="Bitstream Vera Sans"><path d="M17,19.90367l0,-2.90367l0,-1l1,0l3.00459,0l-1.72018,1.72018l-1.51376,1.41284z M16.20322,27l-10.20322,0l-1,0l0,-1l0,-20l0,-1l1,0l20,0l1,0l0,1l0,10.20327l-1.66055,-1.71244l-0.33945,-0.3637l0,-7.12713l-18,0l0,18l7.13073,0l0.30963,0.28899z M22.97187,14l-0.97187,0l-12,0l-1,0l0,-1l0,-3l0,-1l1,0l12,0l1,0l0,1l0,3l0,0.96986z M13.86533,23l-3.86533,0l-1,0l0,-1l0,-5l0,-1l1,0l4,0l1,0l0,1l0,4.90367l-0.55963,0.55963z M11,12l10,0l0,-1l-10,0z M11,21l2,0l0,-3l-2,0z"/></g><g fill="#333333" font-family="sans-serif"><g><path d="M28.66972,20.79817l-1.41284,1.41284l0.80734,0.70642l-3.12844,0l0,-3.02752l0.80734,0.80734l1.41284,-1.41284l-3.22936,-3.43119l-3.12844,3.33028l1.41284,1.41284l0.70642,-0.70642l0,3.02752l-3.12844,0l0.80734,-0.80734l-1.41284,-1.41284l-3.33028,3.22936l3.43119,3.33028l1.41284,-1.51376l-0.90826,-0.80734l3.12844,0l0,3.12844l-0.80734,-0.80734l-1.41284,1.41284l3.22936,3.33028l3.12844,-3.33028l-1.41284,-1.41284l-0.70642,0.80734l0,-3.12844l3.12844,0l-0.80734,0.70642l1.41284,1.51376l3.33028,-3.22936z"/></g></g></g></g></g></svg>